<svg width="256" height="256" viewBox="0 0 256 256" fill="none" xmlns="http://www.w3.org/2000/svg">
<g transform="translate(-38, 25) scale(1.3)">
<path d="M226.506 30.5406C231.534 36.5879 234.047 44.6104 233.702 52.6399C233.356 60.6715 230.143 68.0882 224.809 73.2224C219.474 78.3566 212.5 80.7443 205.457 79.8244C198.417 78.9025 191.848 74.7842 187.407 68.1722C187.407 68.1722 187.407 68.1722 187.407 68.1722C187.515 68.313 187.634 68.4647 187.655 68.4878C187.68 68.5168 187.703 68.5419 187.722 68.5634C187.762 68.6065 187.79 68.6352 187.801 68.6417C187.83 68.6634 187.841 68.6622 187.841 68.6489C187.844 68.6244 187.812 68.5585 187.775 68.4903C187.693 68.343 187.576 68.1626 187.452 67.9841C187.2 67.6205 186.905 67.2449 186.645 66.9287C186.114 66.282 185.678 65.8452 185.582 65.6395C185.442 65.3772 185.923 65.4577 186.758 65.3168C187.583 65.2018 188.532 64.7277 188.695 64.4289C189.077 63.712 186.835 64.9785 184.711 68.1841C183.531 69.7366 182.889 71.2549 182.666 71.6598C182.543 71.865 182.496 71.7564 182.359 71.3574C182.229 70.9693 181.969 70.3045 181.64 69.8049C181.318 69.2968 180.975 69.0157 180.918 69.0826C180.854 69.1394 181.085 69.502 181.641 69.9758C182.742 70.9429 185.064 72.2193 187.937 73.1849C200.393 77.5118 215.59 83.1115 227.74 103.253C240.656 125.354 232.706 151.055 224.899 162.233C198.124 197.913 154.296 188.381 131.573 153.494C131.398 153.21 131.224 152.926 131.051 152.64C126.862 145.758 121.431 139.821 115.616 136.476C112.747 134.833 109.701 133.803 107.323 134.139C105.055 134.434 103.023 136.356 105.411 140.034C106.891 142.264 110.93 145.129 116.874 145.601C119.817 145.84 123.044 145.47 126.156 144.47C127.764 143.93 129.258 143.322 130.876 142.382C131.637 141.96 132.481 141.397 133.355 140.706C133.835 140.304 134.192 140.05 134.787 139.431C134.921 139.296 135.054 139.161 135.185 139.026C135.318 138.887 135.432 138.775 135.644 138.511C135.833 138.28 136.018 138.049 136.2 137.816C136.246 137.757 136.292 137.699 136.337 137.641C136.359 137.611 136.382 137.582 136.405 137.553C136.443 137.498 136.516 137.385 136.571 137.301C136.804 136.942 137.033 136.579 137.257 136.212C138.979 153.275 129.992 161.295 117.916 162.933C105.783 164.526 90.5561 158.824 76.5833 147.863C62.6106 136.903 52.2403 122.526 48.7517 108.68C45.3203 94.8775 48.0589 81.9567 62.0061 77.1846C62.0061 77.1846 62.0061 77.1846 62.0061 77.1846C83.1971 51.257 108.013 58.0223 120.387 65.5633C139.53 78.8034 142.964 91.2816 148.79 101.265C153.901 111.379 158.269 120.325 163.234 128.669C163.286 128.758 163.338 128.845 163.392 128.931C166.502 134.024 171.751 137.432 178.077 138.082C184.311 138.952 190.429 135.367 190.899 133.449C192.542 130.649 193.227 128.097 193.187 127.267C193.186 126.838 193.081 126.891 193.077 127.149C193.061 127.404 193.155 127.76 193.097 127.765C193.247 127.647 187.543 123.315 180.344 121.916C168.973 118.683 152.584 113.149 141.598 91.5331C131.208 69.1331 137.458 47.8833 144.451 35.2675C148.888 27.3779 154.68 18.5858 165.787 12.2824C176.78 5.65178 193.187 6.55907 203.827 12.2252C213.156 17.0461 218.82 21.4392 226.506 30.5406Z" fill="black"/
</g>
</svg>
