<svg width="32" height="32" viewBox="0 0 32 32" fill="none" xmlns="http://www.w3.org/2000/svg">
  <!-- JS cord/wire -->
  <path d="M22 10C28 4 30 12 26 14C22 16 24 22 26 24C28 26 26 30 22 28C18 26 16 20 18 18" stroke="#FFA366" stroke-width="3" stroke-linecap="round"/>

  <!-- Simplified controller body -->
  <path d="M6 28C3 28.5 1 26 1 24C1 20 10 18 10 18V10C10 10 0 9 1 5C1.5 3 4 1 8 1.5C12 2 18 2 22 2C24.5 1.5 27 0 29 3C31 6 31 9 29 10C26 12 22 10 22 10V18C22 18 30 19 31 23C32 27 29 29 26 28.5C21 28 16 30 16 30C16 30 11 29 6 28Z" fill="#2A849D"/>

  <!-- D-pad -->
  <circle cx="16" cy="8" r="4" fill="#D9D9D9"/>
  <rect x="14.5" y="5" width="3" height="6" rx="0.5" fill="#767171"/>
  <rect x="13" y="6.5" width="6" height="3" rx="0.5" fill="#767171"/>

  <!-- Colorful buttons -->
  <circle cx="19" cy="22" r="2.5" fill="#F4A261"/>
  <circle cx="13" cy="22" r="2.5" fill="#2A9D8F"/>
  <circle cx="16" cy="19" r="2.5" fill="#66BFFF"/>
  <circle cx="16" cy="25" r="2.5" fill="#E76F51"/>

  <!-- CV button area -->
  <circle cx="19" cy="14" r="2" fill="#6C6763"/>
</svg>
