<?xml version="1.0" standalone="no"?>
<!DOCTYPE svg PUBLIC "-//W3C//DTD SVG 20010904//EN"
 "http://www.w3.org/TR/2001/REC-SVG-20010904/DTD/svg10.dtd">
<svg version="1.0" xmlns="http://www.w3.org/2000/svg"
 width="683.000000pt" height="514.000000pt" viewBox="0 0 683.000000 514.000000"
 preserveAspectRatio="xMidYMid meet">
<metadata>
Created by potrace 1.16, written by Peter Selinger 2001-2019
</metadata>
<g transform="translate(0.000000,514.000000) scale(0.100000,-0.100000)"
fill="#000000" stroke="none">
<path d="M1918 4499 c-45 -23 -62 -54 -77 -134 -53 -288 75 -473 418 -605 53
-21 104 -40 114 -44 15 -5 10 -16 -40 -78 -132 -165 -321 -476 -392 -644 -75
-177 -113 -374 -114 -584 0 -80 3 -160 7 -177 l8 -33 117 0 c65 0 171 -3 237
-6 114 -6 120 -5 154 18 84 57 218 293 343 603 165 410 297 904 255 956 -7 9
-42 24 -78 34 -295 79 -566 175 -713 253 -99 52 -208 145 -237 201 -43 85 -33
190 22 236 35 30 27 31 -24 4z"/>
<path d="M3546 3951 c-3 -4 -8 -52 -12 -105 l-7 -96 -87 0 -87 0 -7 -46 c-8
-62 -8 -104 2 -104 7 0 112 -16 169 -25 l33 -6 -7 -89 -6 -90 97 0 96 0 0 91
0 90 95 -7 95 -7 0 87 0 86 -67 0 c-113 0 -113 1 -113 84 0 39 -3 88 -6 109
l-7 37 -88 0 c-48 0 -90 -4 -93 -9z"/>
<path d="M5138 3860 c-124 -22 -230 -80 -309 -168 -73 -81 -92 -130 -92 -237
0 -157 52 -284 164 -396 72 -73 151 -121 309 -189 261 -113 422 -274 474 -476
24 -94 21 -232 -9 -348 -99 -394 -379 -685 -750 -783 -88 -23 -120 -26 -270
-27 -128 -1 -191 4 -253 17 -164 35 -264 88 -313 165 -44 70 -46 97 -11 145
57 81 94 171 133 326 21 85 39 163 39 172 0 10 41 80 92 156 120 181 138 217
138 269 0 35 -5 47 -31 68 -30 25 -47 32 -99 38 -14 2 -24 8 -23 13 0 6 4 55
7 110 4 84 2 74 -14 -61 -54 -456 -134 -844 -196 -951 -136 -234 -695 -359
-1767 -393 -443 -15 -885 2 -1192 45 -287 41 -484 117 -530 205 -43 83 21 263
134 378 43 43 48 51 21 32 -101 -71 -190 -201 -221 -323 -18 -73 -7 -176 25
-230 96 -166 408 -294 876 -361 485 -70 1206 -73 1590 -7 46 8 78 5 200 -19
305 -61 577 -84 910 -77 415 8 670 68 979 227 418 216 723 610 857 1105 53
195 64 519 28 773 -60 416 -274 688 -614 782 -87 23 -214 33 -282 20z"/>
<path d="M4343 2880 c0 -30 2 -43 4 -27 2 15 2 39 0 55 -2 15 -4 2 -4 -28z"/>
<path d="M3419 2561 c-36 -36 -37 -70 -3 -110 30 -36 80 -48 135 -32 74 22 94
98 38 145 -25 21 -41 26 -86 26 -47 0 -59 -4 -84 -29z"/>
<path d="M3174 2406 c-91 -40 -81 -148 16 -177 82 -25 160 20 160 90 0 79 -91
124 -176 87z"/>
<path d="M3654 2381 c-30 -13 -64 -60 -64 -88 0 -14 13 -37 29 -54 26 -25 37
-29 86 -29 49 0 60 4 86 29 37 37 37 72 1 112 -21 24 -38 32 -72 35 -25 2 -55
0 -66 -5z"/>
<path d="M3341 2164 c-52 -43 -39 -113 24 -140 94 -39 201 21 181 101 -16 64
-146 89 -205 39z"/>
</g>
</svg>
