<svg width="246" height="197" viewBox="0 0 246 197" fill="none" xmlns="http://www.w3.org/2000/svg">
    <g filter="url(#filter0_d_101_91)">
        <path d="M226.506 30.5406C231.534 36.5879 234.047 44.6104 233.702 52.6399C233.356 60.6715 230.143 68.0882 224.809 73.2224C219.474 78.3566 212.5 80.7443 205.457 79.8244C198.417 78.9025 191.848 74.7842 187.407 68.1722C187.407 68.1722 187.407 68.1722 187.407 68.1722C187.515 68.313 187.634 68.4647 187.655 68.4878C187.68 68.5168 187.703 68.5419 187.722 68.5634C187.762 68.6065 187.79 68.6352 187.801 68.6417C187.83 68.6634 187.841 68.6622 187.841 68.6489C187.844 68.6244 187.812 68.5585 187.775 68.4903C187.693 68.343 187.576 68.1626 187.452 67.9841C187.2 67.6205 186.905 67.2449 186.645 66.9287C186.114 66.282 185.678 65.8452 185.582 65.6395C185.442 65.3772 185.923 65.4577 186.758 65.3168C187.583 65.2018 188.532 64.7277 188.695 64.4289C189.077 63.712 186.835 64.9785 184.711 68.1841C183.531 69.7366 182.889 71.2549 182.666 71.6598C182.543 71.865 182.496 71.7564 182.359 71.3574C182.229 70.9693 181.969 70.3045 181.64 69.8049C181.318 69.2968 180.975 69.0157 180.918 69.0826C180.854 69.1394 181.085 69.502 181.641 69.9758C182.742 70.9429 185.064 72.2193 187.937 73.1849C200.393 77.5118 215.59 83.1115 227.74 103.253C240.656 125.354 232.706 151.055 224.899 162.233C198.124 197.913 154.296 188.381 131.573 153.494C131.398 153.21 131.224 152.926 131.051 152.64C126.862 145.758 121.431 139.821 115.616 136.476C112.747 134.833 109.701 133.803 107.323 134.139C105.055 134.434 103.023 136.356 105.411 140.034C106.891 142.264 110.93 145.129 116.874 145.601C119.817 145.84 123.044 145.47 126.156 144.47C127.764 143.93 129.258 143.322 130.876 142.382C131.637 141.96 132.481 141.397 133.355 140.706C133.835 140.304 134.192 140.05 134.787 139.431C134.921 139.296 135.054 139.161 135.185 139.026C135.318 138.887 135.432 138.775 135.644 138.511C135.833 138.28 136.018 138.049 136.2 137.816C136.246 137.757 136.292 137.699 136.337 137.641C136.359 137.611 136.382 137.582 136.405 137.553C136.443 137.498 136.516 137.385 136.571 137.301C136.804 136.942 137.033 136.579 137.257 136.212C138.979 153.275 129.992 161.295 117.916 162.933C105.783 164.526 90.5561 158.824 76.5833 147.863C62.6106 136.903 52.2403 122.526 48.7517 108.68C45.3203 94.8775 48.0589 81.9567 62.0061 77.1846C62.0061 77.1846 62.0061 77.1846 62.0061 77.1846C83.1971 51.257 108.013 58.0223 120.387 65.5633C139.53 78.8034 142.964 91.2816 148.79 101.265C153.901 111.379 158.269 120.325 163.234 128.669C163.286 128.758 163.338 128.845 163.392 128.931C166.502 134.024 171.751 137.432 178.077 138.082C184.311 138.952 190.429 135.367 190.899 133.449C192.542 130.649 193.227 128.097 193.187 127.267C193.186 126.838 193.081 126.891 193.077 127.149C193.061 127.404 193.155 127.76 193.097 127.765C193.247 127.647 187.543 123.315 180.344 121.916C168.973 118.683 152.584 113.149 141.598 91.5331C131.208 69.1331 137.458 47.8833 144.451 35.2675C148.888 27.3779 154.68 18.5858 165.787 12.2824C176.78 5.65178 193.187 6.55907 203.827 12.2252C213.156 17.0461 218.82 21.4392 226.506 30.5406Z" fill="#FF6600"/>
    </g>
    <g filter="url(#filter1_d_101_91)">
        <path d="M222.391 31.943C226.311 36.7641 228.29 43.1027 228.022 49.4376C227.753 55.7738 225.237 61.6097 221.05 65.6391C216.864 69.6685 211.378 71.5342 205.823 70.8035C200.269 70.0715 195.078 66.8252 191.523 61.6521C191.523 61.6521 191.523 61.6521 191.523 61.6521C191.726 61.9161 191.714 61.8917 191.741 61.9217C191.762 61.9421 191.767 61.9434 191.768 61.9387C191.772 61.9324 191.749 61.8931 191.73 61.8592C191.689 61.788 191.611 61.6749 191.537 61.5693C191.374 61.3407 191.183 61.0931 190.987 60.8498C190.588 60.356 190.143 59.8584 189.724 59.4254C188.872 58.5434 188.067 57.8743 187.502 57.4581C186.802 56.9442 186.546 56.81 186.574 56.6726C186.592 56.5523 186.712 56.3274 186.283 56.3809C185.456 56.403 182.84 58.4617 180.473 62.1604C179.032 64.2536 178.139 66.4342 177.813 67.8123C177.641 68.5024 177.591 68.9622 177.55 69.1889C177.514 69.424 177.458 69.4339 177.425 69.5332C176.757 69.6756 180.56 73.8584 187.138 75.7556C199.041 79.7744 213.238 85.2407 224.094 103.274C235.606 122.902 228.679 145.959 221.32 156.644C197.22 189.215 155.751 180.724 134.923 148.349C134.76 148.087 134.599 147.823 134.438 147.558C130.168 140.522 124.849 134.268 119.108 130.211C116.268 128.208 113.242 126.708 110.698 126.38C108.245 126.025 105.901 127.008 106.987 129.636C107.65 131.222 110.297 133.425 114.493 133.932C116.566 134.187 118.877 134.009 121.121 133.374C122.281 133.028 123.365 132.632 124.547 131.99C125.104 131.703 125.723 131.313 126.372 130.821C126.727 130.532 126.994 130.352 127.44 129.897C127.541 129.798 127.641 129.698 127.74 129.597C127.841 129.494 127.928 129.412 128.088 129.212C128.232 129.039 128.373 128.864 128.514 128.686C128.549 128.641 128.584 128.596 128.619 128.552C128.636 128.529 128.654 128.507 128.671 128.484C128.701 128.442 128.757 128.355 128.8 128.29C128.98 128.013 129.159 127.73 129.336 127.44C129.393 139.889 122.159 146.111 112.741 147.495C103.288 148.851 91.8029 144.77 81.4356 136.638C71.0683 128.506 63.4178 117.577 60.7891 106.744C58.196 95.9382 60.2184 85.628 69.9273 80.8392C87.2581 59.4137 108.043 64.5119 118.811 70.8435C135.531 81.8878 139.538 93.1316 145.298 102.413C150.483 111.814 154.963 120.443 159.847 128.634C159.911 128.743 159.976 128.851 160.042 128.958C163.947 135.365 170.525 139.551 177.952 140.332C185.281 141.297 192.714 137.665 194.478 133.92C196.367 130.74 197.379 127.636 197.503 125.78C197.587 123.846 197.37 123.675 196.744 122.626C195.599 120.401 188.896 115.935 181.143 114.228C170.336 111.152 155.428 105.777 145.813 86.6871C136.669 66.9729 142.156 47.8293 148.689 36.1736C152.882 28.777 158.301 20.7771 168.198 15.2127C177.996 9.37402 192.332 10.1832 201.906 15.289C210.246 19.6061 215.599 23.8502 222.391 31.943Z" fill="#FF8839"/>
    </g>
    <path d="M91.5 91.7932C115.5 71.2931 152.5 135.5 165 144.293C187 159.769 203.297 146.5 206 136.5C211 118 195.5 104.5 180.5 98.5C160.033 90.313 147.564 75.0187 150.5 56.2931C151.72 48.5117 158.816 30.3523 173 25.0001C180.69 22.0985 194.81 21.0635 205.5 28.5C228.5 44.5 220.206 63.9809 210.712 56.2931C198 46 197.547 39.4556 186.212 40.5C172.86 41.7303 162.5 56.2931 165 67.5C167.5 78.7069 175.5 81.5 196 90C216.5 98.5 221.5 117.5 221.5 130.5C221.5 140.5 214 158.5 199 164C196.571 164.891 175 172 154.5 153C143.493 142.798 147.336 139.115 139.712 136.5C132.004 133.856 141.723 183.791 139.712 182.906" stroke="#FFB774" stroke-width="7" stroke-linecap="round"/>
    <g filter="url(#filter2_d_101_91)">
        <path d="M140.437 192.771C138.701 192.956 137.055 191.644 136.86 189.921L136.198 184.069C136.024 182.535 137.071 181.216 138.611 181.029L141.673 180.658C143.42 180.447 145.095 181.763 145.292 183.504L145.96 189.4C146.135 190.95 145.064 192.277 143.503 192.444L140.437 192.771Z" fill="#958C8C"/>
        <path d="M137.363 189.905L136.701 184.053C136.556 182.774 137.429 181.676 138.712 181.52L141.773 181.149C143.229 180.972 144.625 182.069 144.789 183.52L145.456 189.416C145.603 190.707 144.711 191.814 143.41 191.953L140.344 192.28L140.074 192.294C138.731 192.296 137.516 191.252 137.363 189.905Z" stroke="black"/>
    </g>
    <g filter="url(#filter3_d_101_91)">
        <path d="M137.686 187.558C135.952 187.774 134.282 186.488 134.06 184.765L132.784 174.883C132.585 173.337 133.634 171.993 135.191 171.801L141.897 170.974C143.63 170.76 145.298 172.046 145.52 173.767L146.795 183.644C146.995 185.189 145.947 186.532 144.391 186.725L137.686 187.558Z" fill="#474040"/>
        <path d="M134.562 184.741L133.287 174.859C133.121 173.571 133.995 172.45 135.293 172.29L141.998 171.463C143.442 171.285 144.832 172.357 145.018 173.791L146.293 183.668C146.459 184.956 145.586 186.075 144.289 186.236L137.585 187.069C136.14 187.248 134.748 186.176 134.562 184.741Z" stroke="black"/>
    </g>
    <path d="M26.937 19.7999C30.4081 0.0493031 76.2078 31.8507 81.5136 37.2037C86.8194 42.5566 82.4006 49.2712 78.0331 68.1722L53.0581 55.2233L41.9281 49.3852L30.2682 42.9647C30.2682 42.9647 23.4659 39.5506 26.937 19.7999Z" fill="url(#paint0_linear_101_91)"/>
    <g filter="url(#filter4_d_101_91)">
        <path d="M67.5542 48.3305C65.6157 42.1791 24.1175 31.9261 27.4829 17.3516C30.3905 5.52003 56.4745 4.7026 68.6605 8.5923C80.8466 12.482 116.128 28.1975 122.844 48.3306C129.561 68.4637 135.208 107.17 125.138 152.756C115.068 198.342 39.7919 174.585 25.4261 166.69C11.0603 158.796 -6.84483 130.914 11.6133 124.887C30.0714 118.86 72.5143 119.381 72.125 113.485C80.6191 81.8399 69.4927 54.4818 67.5542 48.3305Z" fill="url(#paint1_linear_101_91)"/>
    </g>
    <g filter="url(#filter5_d_101_91)">
        <path d="M102.043 120.52C104.943 120.998 106.974 124.234 106.579 127.747C106.184 131.26 103.513 133.721 100.613 133.243C97.7124 132.765 95.6806 129.528 96.0755 126.015C96.4704 122.501 99.1424 120.041 102.043 120.52ZM92.5401 109.88C95.4403 110.359 97.4712 113.594 97.0765 117.108C96.6816 120.621 94.0105 123.082 91.1101 122.604C88.2099 122.125 86.179 118.889 86.5739 115.376C86.9688 111.862 89.6399 109.402 92.5401 109.88ZM113.546 113.345C116.447 113.823 118.477 117.059 118.083 120.572C117.688 124.086 115.017 126.547 112.116 126.069C109.216 125.59 107.185 122.354 107.58 118.84C107.975 115.327 110.646 112.867 113.546 113.345ZM104.045 102.706C106.945 103.185 108.976 106.421 108.581 109.934C108.186 113.448 105.515 115.908 102.615 115.43C99.7145 114.951 97.6827 111.715 98.0774 108.202C98.4723 104.688 101.144 102.228 104.045 102.706Z" fill="#4A4343"/>
    </g>
    <g filter="url(#filter6_d_101_91)">
        <path d="M109.946 60.7169C109.616 63.6537 111.425 66.3768 113.985 66.7991C116.546 67.2214 118.354 69.9445 118.024 72.8813C117.694 75.8181 115.35 77.8564 112.79 77.4341L112.017 77.3066C109.883 76.9547 107.931 78.6534 107.656 81.1007C107.381 83.548 105.428 85.2466 103.294 84.8947L101.749 84.6398C99.6148 84.2879 98.108 82.0186 98.383 79.5713C98.658 77.124 97.1512 74.8547 95.0174 74.5028C92.8836 74.1509 91.3768 71.8816 91.6519 69.4343L91.8511 67.6618C92.1261 65.2145 94.0789 63.5158 96.2127 63.8678C98.3465 64.2197 100.299 62.5211 100.574 60.0738L100.674 59.1875C101.004 56.2507 103.347 54.2124 105.908 54.6347C108.468 55.057 110.277 57.7801 109.946 60.7169Z" fill="#4A4343"/>
    </g>
    <defs>
        <filter id="filter0_d_101_91" x="47.4136" y="7.63702" width="198.165" height="187.127" filterUnits="userSpaceOnUse" color-interpolation-filters="sRGB">
            <feFlood flood-opacity="0" result="BackgroundImageFix"/>
            <feColorMatrix in="SourceAlpha" type="matrix" values="0 0 0 0 0 0 0 0 0 0 0 0 0 0 0 0 0 0 127 0" result="hardAlpha"/>
            <feOffset dx="7" dy="6"/>
            <feGaussianBlur stdDeviation="2"/>
            <feComposite in2="hardAlpha" operator="out"/>
            <feColorMatrix type="matrix" values="0 0 0 0 0 0 0 0 0 0 0 0 0 0 0 0 0 0 0.25 0"/>
            <feBlend mode="normal" in2="BackgroundImageFix" result="effect1_dropShadow_101_91"/>
            <feBlend mode="normal" in="SourceGraphic" in2="effect1_dropShadow_101_91" result="shape"/>
        </filter>
        <filter id="filter1_d_101_91" x="59.7565" y="11.14" width="181.462" height="176.114" filterUnits="userSpaceOnUse" color-interpolation-filters="sRGB">
            <feFlood flood-opacity="0" result="BackgroundImageFix"/>
            <feColorMatrix in="SourceAlpha" type="matrix" values="0 0 0 0 0 0 0 0 0 0 0 0 0 0 0 0 0 0 127 0" result="hardAlpha"/>
            <feOffset dx="7" dy="6"/>
            <feGaussianBlur stdDeviation="2"/>
            <feComposite in2="hardAlpha" operator="out"/>
            <feColorMatrix type="matrix" values="0 0 0 0 0 0 0 0 0 0 0 0 0 0 0 0 0 0 0.25 0"/>
            <feBlend mode="normal" in2="BackgroundImageFix" result="effect1_dropShadow_101_91"/>
            <feBlend mode="normal" in="SourceGraphic" in2="effect1_dropShadow_101_91" result="shape"/>
        </filter>
        <filter id="filter2_d_101_91" x="132.179" y="176.636" width="17.7997" height="20.1526" filterUnits="userSpaceOnUse" color-interpolation-filters="sRGB">
            <feFlood flood-opacity="0" result="BackgroundImageFix"/>
            <feColorMatrix in="SourceAlpha" type="matrix" values="0 0 0 0 0 0 0 0 0 0 0 0 0 0 0 0 0 0 127 0" result="hardAlpha"/>
            <feOffset/>
            <feGaussianBlur stdDeviation="2"/>
            <feComposite in2="hardAlpha" operator="out"/>
            <feColorMatrix type="matrix" values="0 0 0 0 0 0 0 0 0 0 0 0 0 0 0 0 0 0 0.25 0"/>
            <feBlend mode="normal" in2="BackgroundImageFix" result="effect1_dropShadow_101_91"/>
            <feBlend mode="normal" in="SourceGraphic" in2="effect1_dropShadow_101_91" result="shape"/>
        </filter>
        <filter id="filter3_d_101_91" x="128.76" y="166.95" width="22.0596" height="24.6315" filterUnits="userSpaceOnUse" color-interpolation-filters="sRGB">
            <feFlood flood-opacity="0" result="BackgroundImageFix"/>
            <feColorMatrix in="SourceAlpha" type="matrix" values="0 0 0 0 0 0 0 0 0 0 0 0 0 0 0 0 0 0 127 0" result="hardAlpha"/>
            <feOffset/>
            <feGaussianBlur stdDeviation="2"/>
            <feComposite in2="hardAlpha" operator="out"/>
            <feColorMatrix type="matrix" values="0 0 0 0 0 0 0 0 0 0 0 0 0 0 0 0 0 0 0.25 0"/>
            <feBlend mode="normal" in2="BackgroundImageFix" result="effect1_dropShadow_101_91"/>
            <feBlend mode="normal" in="SourceGraphic" in2="effect1_dropShadow_101_91" result="shape"/>
        </filter>
        <filter id="filter4_d_101_91" x="3.74005" y="6.50494" width="137.877" height="183.435" filterUnits="userSpaceOnUse" color-interpolation-filters="sRGB">
            <feFlood flood-opacity="0" result="BackgroundImageFix"/>
            <feColorMatrix in="SourceAlpha" type="matrix" values="0 0 0 0 0 0 0 0 0 0 0 0 0 0 0 0 0 0 127 0" result="hardAlpha"/>
            <feOffset dx="7" dy="6"/>
            <feGaussianBlur stdDeviation="2"/>
            <feComposite in2="hardAlpha" operator="out"/>
            <feColorMatrix type="matrix" values="0 0 0 0 0 0 0 0 0 0 0 0 0 0 0 0 0 0 0.25 0"/>
            <feBlend mode="normal" in2="BackgroundImageFix" result="effect1_dropShadow_101_91"/>
            <feBlend mode="normal" in="SourceGraphic" in2="effect1_dropShadow_101_91" result="shape"/>
        </filter>
        <filter id="filter5_d_101_91" x="84.5248" y="94.6465" width="39.607" height="38.6561" filterUnits="userSpaceOnUse" color-interpolation-filters="sRGB">
            <feFlood flood-opacity="0" result="BackgroundImageFix"/>
            <feColorMatrix in="SourceAlpha" type="matrix" values="0 0 0 0 0 0 0 0 0 0 0 0 0 0 0 0 0 0 127 0" result="hardAlpha"/>
            <feOffset dx="2" dy="-4"/>
            <feGaussianBlur stdDeviation="2"/>
            <feComposite in2="hardAlpha" operator="out"/>
            <feColorMatrix type="matrix" values="0 0 0 0 0 0 0 0 0 0 0 0 0 0 0 0 0 0 0.25 0"/>
            <feBlend mode="normal" in2="BackgroundImageFix" result="effect1_dropShadow_101_91"/>
            <feBlend mode="normal" in="SourceGraphic" in2="effect1_dropShadow_101_91" result="shape"/>
        </filter>
        <filter id="filter6_d_101_91" x="89.6195" y="46.5793" width="34.4432" height="38.3616" filterUnits="userSpaceOnUse" color-interpolation-filters="sRGB">
            <feFlood flood-opacity="0" result="BackgroundImageFix"/>
            <feColorMatrix in="SourceAlpha" type="matrix" values="0 0 0 0 0 0 0 0 0 0 0 0 0 0 0 0 0 0 127 0" result="hardAlpha"/>
            <feOffset dx="2" dy="-4"/>
            <feGaussianBlur stdDeviation="2"/>
            <feComposite in2="hardAlpha" operator="out"/>
            <feColorMatrix type="matrix" values="0 0 0 0 0 0 0 0 0 0 0 0 0 0 0 0 0 0 0.25 0"/>
            <feBlend mode="normal" in2="BackgroundImageFix" result="effect1_dropShadow_101_91"/>
            <feBlend mode="normal" in="SourceGraphic" in2="effect1_dropShadow_101_91" result="shape"/>
        </filter>
        <linearGradient id="paint0_linear_101_91" x1="50.9381" y1="23.7031" x2="31.245" y2="63.7787" gradientUnits="userSpaceOnUse">
            <stop stop-color="#66BFFF"/>
            <stop offset="1" stop-color="#115F97"/>
        </linearGradient>
        <linearGradient id="paint1_linear_101_91" x1="39.4589" y1="124.954" x2="68.4432" y2="190.152" gradientUnits="userSpaceOnUse">
            <stop stop-color="#66BFFF"/>
            <stop offset="1" stop-color="#3D7399"/>
        </linearGradient>
    </defs>
</svg>
