<svg width="230" height="155" viewBox="0 0 230 155" fill="none" xmlns="http://www.w3.org/2000/svg">
<g filter="url(#filter0_d_38_3)">
<path d="M210.755 17.934C215.753 23.0322 218.197 30.0462 217.785 37.2202C217.371 44.3964 214.094 51.1824 208.716 56.0476C203.339 60.9128 196.351 63.4134 189.332 62.9614C182.316 62.5073 175.801 59.1754 171.458 53.4857C171.458 53.4857 171.458 53.4857 171.458 53.4857C171.557 53.5976 171.667 53.7171 171.691 53.7405C171.714 53.7639 171.736 53.7843 171.755 53.802C171.792 53.837 171.823 53.8638 171.834 53.8691C171.863 53.8881 171.878 53.891 171.882 53.8822C171.892 53.8672 171.869 53.819 171.843 53.7691C171.782 53.6598 171.686 53.5227 171.588 53.388C171.382 53.1108 171.135 52.8199 170.92 52.5742C170.473 52.0677 170.104 51.714 170.03 51.5373C169.927 51.313 170.339 51.3706 171.269 51.2789C172.174 51.2059 173.49 50.818 174.16 50.3549C175.602 49.3094 174.116 49.491 172.392 51.6814C171.592 52.4704 171.325 53.0527 171.243 52.5146C171.197 52.0632 170.801 50.0799 169.954 49.086C169.573 48.5914 169.239 48.3911 169.188 48.4559C169.131 48.5162 169.35 48.8107 169.843 49.1805C170.824 49.9354 172.825 50.9029 175.313 51.6511C186.503 55.0694 199.524 59.1988 210.785 74.3639C216.257 81.8823 219.253 93.4371 217.769 102.922C216.448 112.465 212.496 119.521 208.505 125.071C179.336 156.645 141.195 145.563 120.91 118.672C120.89 118.644 120.871 118.617 120.852 118.59C117.118 113.211 112.166 108.74 106.783 106.457C104.13 105.343 101.297 104.745 99.0409 105.246C96.8894 105.719 94.8812 107.46 96.8814 110.666C98.1531 112.579 101.613 115.184 107.794 115.712C110.84 115.963 114.376 115.624 117.93 114.529C119.733 113.966 121.502 113.256 123.357 112.239C124.256 111.755 125.236 111.137 126.228 110.412C126.5 110.205 126.766 109.997 127.027 109.789C127.157 109.686 127.286 109.582 127.413 109.478C127.57 109.339 127.734 109.188 127.891 109.044C128.049 108.898 128.205 108.752 128.358 108.606C128.435 108.533 128.511 108.46 128.587 108.387C128.627 108.348 128.655 108.323 128.706 108.27C128.762 108.209 128.818 108.148 128.874 108.087C129.097 107.843 129.315 107.598 129.528 107.354C129.581 107.293 129.634 107.231 129.687 107.17C129.747 107.098 129.76 107.094 129.935 106.857C130.211 106.486 130.478 106.115 130.739 105.741C132.809 121.453 123.699 128.908 111.522 130.656C99.2821 132.361 83.8967 127.479 69.8303 117.825C55.764 108.171 45.4721 95.4305 42.2989 83.1471C39.1877 70.9061 42.3753 59.3876 57.2673 55.3166C57.2673 55.3166 57.2673 55.3166 57.2673 55.3166C81.2835 29.8689 104.907 38.5764 115.429 44.3848C132.236 55.4321 134.988 65.4679 140.094 73.557C144.55 81.7322 148.442 88.8436 153 95.3677C153.023 95.4006 153.046 95.4337 153.068 95.4667C155.68 99.2925 160.281 101.983 165.735 102.553C168.389 102.839 171.103 102.513 173.001 101.817C174.946 101.149 175.724 100.12 175.413 100.301C176.716 98.3704 176.955 96.9011 176.766 97.1983C176.692 97.3194 176.632 97.8681 176.718 98.3898C176.792 98.9172 176.972 99.3213 176.94 99.3726C177.051 99.3492 171.895 96.1031 165.614 95.1064C155.309 92.5456 141.387 88.8283 130.808 72.3431C120.16 54.8847 125.745 34.3421 133.141 23.4422C137.571 16.63 143.698 8.73197 155.154 3.49335C166.634 -1.93504 181.293 -0.420269 190.56 3.83621C198.792 7.57707 203.78 10.8471 210.755 17.934Z" fill="#B34700"/>
</g>
<g filter="url(#filter1_d_38_3)">
<path d="M202.145 25.7234C204.872 28.6604 206.237 32.6087 206.013 36.6325C205.788 40.6571 203.98 44.4394 201 47.1356C198.02 49.8317 194.127 51.2065 190.192 50.9456C186.257 50.684 182.589 48.8199 180.068 45.6963C180.068 45.6963 180.068 45.6963 180.068 45.6963C180.197 45.8405 180.17 45.805 180.179 45.8112C180.181 45.8098 180.165 45.7891 180.157 45.777C180.139 45.7501 180.092 45.693 180.055 45.6481C179.983 45.5584 179.871 45.4313 179.774 45.3222C179.556 45.08 179.323 44.8349 179.087 44.5975C178.604 44.1118 178.072 43.626 177.561 43.1965C176.511 42.315 175.466 41.5997 174.528 41.0859C172.121 39.8638 171.321 39.7895 169.996 40.0875C168.612 40.4188 166.109 42.2911 163.792 45.4942C162.345 47.4049 161.448 49.4081 161.147 50.8887C160.858 52.4106 160.942 53.1815 161.377 54.1817C162.065 56.2216 166.92 59.6023 173.188 61.1722C183.302 64.0599 194.6 67.9958 203.37 79.8433C213.095 92.4152 208.27 111.249 201.255 119.644C178.768 144.849 144.605 136.479 127.956 113.588C127.936 113.559 127.916 113.53 127.896 113.502C123.981 107.872 119.261 102.823 114.082 99.2488C109.205 95.7269 102.175 93.4265 100.945 96.1438C100.721 96.932 101.67 98.2801 104.185 98.7792C105.418 99.0211 106.945 99.0107 108.526 98.6503C109.328 98.463 110.127 98.2085 110.985 97.8016C111.402 97.6087 111.86 97.352 112.337 97.0328C112.468 96.9406 112.596 96.8473 112.723 96.7526C112.787 96.7052 112.85 96.6575 112.913 96.6095C112.99 96.5449 113.071 96.4738 113.149 96.405C113.316 96.2524 113.426 96.1705 113.645 95.9384C113.759 95.8161 113.872 95.6917 113.984 95.5648C114.013 95.5331 114.041 95.5012 114.069 95.4691C114.1 95.4313 114.107 95.4297 114.2 95.3036C114.348 95.1061 114.495 94.9031 114.641 94.693C113.716 102.087 108.375 106.121 101.719 107.231C95.044 108.327 87.2609 106.175 80.4228 101.482C73.5847 96.7888 68.6631 90.2215 67.0816 83.4588C65.5196 76.7094 67.0865 70.0847 73.3649 66.3647C73.3649 66.3647 73.3649 66.3647 73.3649 66.3647C88.0571 50.4378 103.621 55.0293 111.365 58.9071C133.591 74.0268 135.992 88.0005 145.956 100.456C145.978 100.487 146 100.519 146.022 100.551C153.349 113.185 177.309 114.603 182.664 105.728C184.555 103.005 185.608 100.311 185.75 98.4524C185.87 96.5701 185.541 95.5301 184.356 93.8931C181.975 90.5522 175.095 87.1126 167.739 85.5853C158.566 83.3025 147.189 79.6796 139.384 67.2475C131.504 54.2489 135.577 38.6153 141.741 29.6295C145.578 23.8299 150.688 17.6225 159.319 13.7608C167.949 9.77184 178.719 10.8824 186.062 14.2876C192.47 17.2211 196.889 20.2925 202.145 25.7234Z" fill="#E86A00"/>
</g>
<g filter="url(#filter2_d_38_3)">
<path d="M195.656 27.5111C196.723 28.6918 197.258 30.2536 197.155 31.8429C197.052 33.4323 196.317 34.9208 195.114 35.9791C193.911 37.0374 192.341 37.5766 190.751 37.4764C189.162 37.376 187.681 36.6462 186.646 35.4373C186.646 35.4373 186.646 35.4373 186.646 35.4373C184.33 32.8665 180.736 30.0711 177.384 28.5508C169.08 24.3701 160.889 28.3247 154.931 36.9508C150.664 42.7963 149.07 50.0354 152.14 55.3173C155.103 60.7557 162.365 64.2956 169.961 66.0774C179.783 68.5444 190.352 72.3958 197.447 81.9976C205.116 91.975 201.357 106.331 194.937 114.294C176.754 135.32 143.725 129.442 129.295 108.948C129.293 108.945 129.291 108.942 129.289 108.939C121.096 97.295 109.293 84.7026 98.4727 83.3506C96.9903 83.2623 95.9038 83.6431 95.4919 84.1415C95.2765 84.3873 95.2004 84.648 95.2087 84.8839C95.2137 85.0014 95.2397 85.1155 95.3051 85.2C95.3386 85.2412 95.3821 85.2752 95.452 85.2798C95.4913 85.2769 95.5236 85.2825 95.5924 85.2428C95.6269 85.2223 95.6516 85.2141 95.7069 85.1652C95.7356 85.1393 95.7666 85.1096 95.8001 85.0756C95.8222 85.0512 95.8166 85.0652 95.8682 84.9991C95.9162 84.9377 95.9694 84.8668 96.0281 84.7848C94.9695 87.2663 92.7266 88.8284 90.0894 89.3249C87.4492 89.8193 84.5786 89.1728 82.1614 87.5624C79.7443 85.952 78.042 83.5519 77.4814 80.925C76.9238 78.3 77.5014 75.6285 79.3838 73.6958C79.3838 73.6958 79.3838 73.6958 79.3838 73.6958C87.0782 65.0374 96.817 66.1837 102.725 68.5839C120.654 77.7772 127.207 91.4389 136.654 103.767C136.656 103.77 136.658 103.773 136.661 103.776C147.325 120.143 176.083 123.429 187.442 108.846C192.639 101.855 194.3 93.5525 189.669 87.5337C185.157 81.3548 176.425 77.685 167.725 75.7502C158.95 73.6963 148.972 70.0656 143.157 60.453C137.287 50.5873 140.522 38.5154 146.04 30.7403C149.638 25.5401 154.208 20.4638 160.96 17.4971C167.701 14.4393 175.903 15.1208 182.088 17.9114C187.359 20.248 191.553 23.249 195.656 27.5111Z" fill="#FFBB80"/>
</g>
<path d="M21.8841 17.7193C25.1587 2.33851 68.3662 27.1039 73.3717 31.2725C78.3772 35.4411 74.2085 40.6701 70.0882 55.3893L46.5267 45.3053L36.0267 40.7589L25.0267 35.7589C25.0267 35.7589 18.6094 33.1002 21.8841 17.7193Z" fill="url(#paint0_linear_38_3)"/>
<g filter="url(#filter3_d_38_3)">
<path d="M60.2024 39.9375C58.3736 35.1472 19.2241 27.1626 22.3991 15.8127C25.1421 6.59884 49.7498 5.96227 61.2461 8.99138C72.7424 12.0205 106.027 24.2589 112.363 39.9376C118.699 55.6163 124.027 85.7589 114.527 121.259C105.027 156.759 34.0114 138.258 20.4587 132.11C6.90599 125.963 -9.98579 104.25 7.42763 99.5559C24.841 94.8622 64.8818 95.2679 64.5145 90.6765C72.5279 66.033 62.0312 44.7279 60.2024 39.9375Z" fill="url(#paint1_linear_38_3)"/>
</g>
<g filter="url(#filter4_d_38_3)">
<path d="M92.7386 96.1545C95.4748 96.527 97.3909 99.0471 97.0184 101.783C96.6459 104.519 94.1258 106.436 91.3896 106.063C88.6534 105.691 86.7373 103.17 87.1098 100.434C87.4823 97.6981 90.0024 95.782 92.7386 96.1545ZM83.7744 87.8694C86.5105 88.242 88.4267 90.7621 88.0541 93.4983C87.6816 96.2344 85.1615 98.1506 82.4253 97.778C79.6891 97.4055 77.773 94.8854 78.1456 92.1492C78.5181 89.413 81.0382 87.4969 83.7744 87.8694ZM103.592 90.5675C106.328 90.9401 108.244 93.4602 107.871 96.1963C107.499 98.9325 104.979 100.849 102.242 100.476C99.5063 100.104 97.5902 97.5835 97.9627 94.8473C98.3353 92.1111 100.855 90.195 103.592 90.5675ZM94.6273 82.2825C97.3635 82.655 99.2796 85.1751 98.9071 87.9113C98.5345 90.6475 96.0144 92.5636 93.2782 92.1911C90.5421 91.8185 88.6259 89.2984 88.9985 86.5622C89.371 83.8261 91.8911 81.91 94.6273 82.2825Z" fill="#4A4343"/>
</g>
<g filter="url(#filter5_d_38_3)">
<path d="M100.195 49.5834C99.884 51.8705 101.59 53.9911 104.005 54.3199C106.421 54.6488 108.127 56.7694 107.816 59.0565C107.504 61.3435 105.293 62.9309 102.878 62.602L102.149 62.5027C100.136 62.2287 98.2936 63.5515 98.0341 65.4573C97.7746 67.3632 95.9324 68.686 93.9194 68.4119L92.4614 68.2134C90.4484 67.9394 89.0269 66.1722 89.2864 64.2663C89.5458 62.3605 88.1243 60.5933 86.1113 60.3192C84.0983 60.0452 82.6767 58.278 82.9362 56.3721L83.1241 54.9918C83.3836 53.0859 85.2258 51.7631 87.2389 52.0372C89.2519 52.3113 91.0941 50.9885 91.3536 49.0826L91.4476 48.3924C91.7589 46.1054 93.9696 44.518 96.3853 44.8469C98.8009 45.1758 100.507 47.2964 100.195 49.5834Z" fill="#4A4343"/>
</g>
<defs>
<filter id="filter0_d_38_3" x="41.217" y="0" width="187.93" height="154.275" filterUnits="userSpaceOnUse" color-interpolation-filters="sRGB">
<feFlood flood-opacity="0" result="BackgroundImageFix"/>
<feColorMatrix in="SourceAlpha" type="matrix" values="0 0 0 0 0 0 0 0 0 0 0 0 0 0 0 0 0 0 127 0" result="hardAlpha"/>
<feOffset dx="7" dy="6"/>
<feGaussianBlur stdDeviation="2"/>
<feComposite in2="hardAlpha" operator="out"/>
<feColorMatrix type="matrix" values="0 0 0 0 0 0 0 0 0 0 0 0 0 0 0 0 0 0 0.25 0"/>
<feBlend mode="normal" in2="BackgroundImageFix" result="effect1_dropShadow_38_3"/>
<feBlend mode="normal" in="SourceGraphic" in2="effect1_dropShadow_38_3" result="shape"/>
</filter>
<filter id="filter1_d_38_3" x="66.5193" y="11.2179" width="153.328" height="133.832" filterUnits="userSpaceOnUse" color-interpolation-filters="sRGB">
<feFlood flood-opacity="0" result="BackgroundImageFix"/>
<feColorMatrix in="SourceAlpha" type="matrix" values="0 0 0 0 0 0 0 0 0 0 0 0 0 0 0 0 0 0 127 0" result="hardAlpha"/>
<feOffset dx="7" dy="6"/>
<feGaussianBlur stdDeviation="2"/>
<feComposite in2="hardAlpha" operator="out"/>
<feColorMatrix type="matrix" values="0 0 0 0 0 0 0 0 0 0 0 0 0 0 0 0 0 0 0.25 0"/>
<feBlend mode="normal" in2="BackgroundImageFix" result="effect1_dropShadow_38_3"/>
<feBlend mode="normal" in="SourceGraphic" in2="effect1_dropShadow_38_3" result="shape"/>
</filter>
<filter id="filter2_d_38_3" x="77.2784" y="15.492" width="135.448" height="121.98" filterUnits="userSpaceOnUse" color-interpolation-filters="sRGB">
<feFlood flood-opacity="0" result="BackgroundImageFix"/>
<feColorMatrix in="SourceAlpha" type="matrix" values="0 0 0 0 0 0 0 0 0 0 0 0 0 0 0 0 0 0 127 0" result="hardAlpha"/>
<feOffset dx="7" dy="6"/>
<feGaussianBlur stdDeviation="2"/>
<feComposite in2="hardAlpha" operator="out"/>
<feColorMatrix type="matrix" values="0 0 0 0 0 0 0 0 0 0 0 0 0 0 0 0 0 0 0.25 0"/>
<feBlend mode="normal" in2="BackgroundImageFix" result="effect1_dropShadow_38_3"/>
<feBlend mode="normal" in="SourceGraphic" in2="effect1_dropShadow_38_3" result="shape"/>
</filter>
<filter id="filter3_d_38_3" x="0" y="7.36584" width="130.696" height="145.063" filterUnits="userSpaceOnUse" color-interpolation-filters="sRGB">
<feFlood flood-opacity="0" result="BackgroundImageFix"/>
<feColorMatrix in="SourceAlpha" type="matrix" values="0 0 0 0 0 0 0 0 0 0 0 0 0 0 0 0 0 0 127 0" result="hardAlpha"/>
<feOffset dx="7" dy="6"/>
<feGaussianBlur stdDeviation="2"/>
<feComposite in2="hardAlpha" operator="out"/>
<feColorMatrix type="matrix" values="0 0 0 0 0 0 0 0 0 0 0 0 0 0 0 0 0 0 0.25 0"/>
<feBlend mode="normal" in2="BackgroundImageFix" result="effect1_dropShadow_38_3"/>
<feBlend mode="normal" in="SourceGraphic" in2="effect1_dropShadow_38_3" result="shape"/>
</filter>
<filter id="filter4_d_38_3" x="76.0992" y="74.2362" width="37.8184" height="31.8732" filterUnits="userSpaceOnUse" color-interpolation-filters="sRGB">
<feFlood flood-opacity="0" result="BackgroundImageFix"/>
<feColorMatrix in="SourceAlpha" type="matrix" values="0 0 0 0 0 0 0 0 0 0 0 0 0 0 0 0 0 0 127 0" result="hardAlpha"/>
<feOffset dx="2" dy="-4"/>
<feGaussianBlur stdDeviation="2"/>
<feComposite in2="hardAlpha" operator="out"/>
<feColorMatrix type="matrix" values="0 0 0 0 0 0 0 0 0 0 0 0 0 0 0 0 0 0 0.25 0"/>
<feBlend mode="normal" in2="BackgroundImageFix" result="effect1_dropShadow_38_3"/>
<feBlend mode="normal" in="SourceGraphic" in2="effect1_dropShadow_38_3" result="shape"/>
</filter>
<filter id="filter5_d_38_3" x="80.9056" y="36.8038" width="32.9466" height="31.6441" filterUnits="userSpaceOnUse" color-interpolation-filters="sRGB">
<feFlood flood-opacity="0" result="BackgroundImageFix"/>
<feColorMatrix in="SourceAlpha" type="matrix" values="0 0 0 0 0 0 0 0 0 0 0 0 0 0 0 0 0 0 127 0" result="hardAlpha"/>
<feOffset dx="2" dy="-4"/>
<feGaussianBlur stdDeviation="2"/>
<feComposite in2="hardAlpha" operator="out"/>
<feColorMatrix type="matrix" values="0 0 0 0 0 0 0 0 0 0 0 0 0 0 0 0 0 0 0.25 0"/>
<feBlend mode="normal" in2="BackgroundImageFix" result="effect1_dropShadow_38_3"/>
<feBlend mode="normal" in="SourceGraphic" in2="effect1_dropShadow_38_3" result="shape"/>
</filter>
<linearGradient id="paint0_linear_38_3" x1="44.5267" y1="20.7589" x2="31.0309" y2="54.0296" gradientUnits="userSpaceOnUse">
<stop stop-color="#66BFFF"/>
<stop offset="1" stop-color="#115F97"/>
</linearGradient>
<linearGradient id="paint1_linear_38_3" x1="33.6972" y1="99.6078" x2="53.3634" y2="153.199" gradientUnits="userSpaceOnUse">
<stop stop-color="#66BFFF"/>
<stop offset="1" stop-color="#3D7399"/>
</linearGradient>
</defs>
</svg>
