<svg width="424" height="274" viewBox="0 0 424 274" fill="none" xmlns="http://www.w3.org/2000/svg">
<path d="M383.715 28.6978C261.215 -53.8022 224.215 113.698 329.215 133.198C434.215 152.698 392.215 263.198 329.215 261.698C266.215 260.198 247.715 217.698 257.215 193.698C266.715 169.698 281.369 149.552 198.634 133.198" stroke="#FFA366" stroke-width="18" stroke-linecap="round"/>
<g filter="url(#filter0_d_32_884)">
<path d="M416.908 57.9324C416.423 58.6573 413.859 57.7936 411.181 56.0032L391.783 43.0361C389.104 41.2458 387.326 39.2067 387.81 38.4817L389.39 36.1189C389.874 35.3939 392.439 36.2576 395.117 38.048L414.515 51.0151C417.194 52.8055 418.972 54.8446 418.487 55.5695L416.908 57.9324Z" fill="#D9D9D9"/>
<path d="M411.459 55.5877L392.06 42.6203C390.747 41.7424 389.669 40.8127 388.987 40.0304C388.644 39.6365 388.419 39.3015 388.308 39.0466C388.22 38.846 388.23 38.7647 388.233 38.7497L389.798 36.4074C389.809 36.4005 389.878 36.3582 390.102 36.3626C390.38 36.3681 390.775 36.4472 391.271 36.614C392.254 36.9454 393.526 37.5856 394.839 38.4635L414.238 51.4309C415.551 52.3088 416.629 53.2385 417.311 54.0208C417.654 54.4147 417.879 54.7497 417.99 55.0046C418.08 55.2095 418.067 55.2899 418.065 55.3024L416.499 57.6446C416.486 57.6528 416.415 57.693 416.196 57.6887C415.918 57.6831 415.522 57.604 415.027 57.4372C414.043 57.1059 412.772 56.4656 411.459 55.5877Z" stroke="#191717"/>
</g>
<g filter="url(#filter1_d_32_884)">
<path d="M417.727 56.7072C417.404 57.1905 414.971 56.1309 412.292 54.3405L392.894 41.3734C390.216 39.583 388.306 37.7398 388.629 37.2565L389.682 35.6813C390.005 35.198 392.439 36.2576 395.117 38.048L414.515 51.0151C417.194 52.8055 419.103 54.6487 418.78 55.132L417.727 56.7072Z" fill="#D9D9D9"/>
<path d="M412.571 53.925L393.172 40.9576C391.849 40.0737 390.728 39.1831 389.983 38.4645C389.608 38.1024 389.346 37.8014 389.201 37.5786C389.159 37.514 389.133 37.4638 389.116 37.4279L390.027 36.0656C390.066 36.0673 390.123 36.0722 390.199 36.0864C390.46 36.1356 390.838 36.2624 391.316 36.4705C392.265 36.8836 393.517 37.5797 394.839 38.4635L414.238 51.4309C415.56 52.3148 416.682 53.2054 417.426 53.924C417.801 54.2861 418.063 54.5872 418.208 54.8099C418.25 54.8745 418.276 54.9247 418.293 54.9606L417.382 56.3229C417.343 56.3212 417.287 56.3164 417.211 56.3021C416.949 56.2529 416.571 56.1261 416.093 55.918C415.145 55.5049 413.893 54.8088 412.571 53.925Z" stroke="#191717"/>
</g>
<g filter="url(#filter2_d_32_884)">
<path d="M421.354 51.2815C420.869 52.0064 418.305 51.1428 415.627 49.3524L396.228 36.3853C393.55 34.5949 391.772 32.5558 392.256 31.8308L393.836 29.468C394.32 28.743 396.884 29.6067 399.563 31.3971L418.961 44.3642C421.64 46.1546 423.418 48.1937 422.933 48.9187L421.354 51.2815Z" fill="#D9D9D9"/>
<path d="M415.905 48.9369L396.506 35.9694C395.193 35.0915 394.115 34.1618 393.433 33.3795C393.089 32.9856 392.865 32.6506 392.754 32.3957C392.666 32.1951 392.676 32.1139 392.679 32.0988L394.244 29.7565C394.255 29.7496 394.324 29.7073 394.548 29.7117C394.826 29.7172 395.221 29.7963 395.717 29.9631C396.7 30.2945 397.971 30.9348 399.285 31.8126L418.684 44.7801C419.997 45.6579 421.074 46.5877 421.757 47.37C422.1 47.7638 422.324 48.0989 422.436 48.3537C422.525 48.5586 422.513 48.639 422.511 48.6515L420.945 50.9937C420.932 51.002 420.861 51.0421 420.642 51.0378C420.364 51.0322 419.968 50.9531 419.473 50.7863C418.489 50.455 417.218 49.8147 415.905 48.9369Z" stroke="#191717"/>
</g>
<g filter="url(#filter3_d_32_884)">
<path d="M422.173 50.0563C421.85 50.5396 419.417 49.48 416.738 47.6896L397.34 34.7225C394.661 32.9321 392.752 31.0889 393.075 30.6056L394.128 29.0304C394.451 28.5471 396.884 29.6067 399.563 31.3971L418.961 44.3642C421.64 46.1546 423.549 47.9978 423.226 48.4811L422.173 50.0563Z" fill="#D9D9D9"/>
<path d="M417.016 47.2741L397.617 34.3067C396.295 33.4229 395.174 32.5322 394.429 31.8136C394.054 31.4515 393.792 31.1505 393.647 30.9278C393.605 30.8631 393.579 30.8129 393.562 30.7771L394.473 29.4147C394.512 29.4164 394.569 29.4213 394.644 29.4355C394.906 29.4847 395.284 29.6115 395.762 29.8196C396.711 30.2327 397.962 30.9288 399.285 31.8126L418.684 44.7801C420.006 45.6639 421.127 46.5545 421.872 47.2731C422.247 47.6352 422.509 47.9363 422.654 48.159C422.696 48.2236 422.722 48.2738 422.739 48.3097L421.828 49.672C421.789 49.6703 421.732 49.6655 421.657 49.6512C421.395 49.602 421.017 49.4752 420.539 49.2671C419.59 48.854 418.339 48.1579 417.016 47.2741Z" stroke="#191717"/>
</g>
<g filter="url(#filter4_d_32_884)">
<rect x="380.838" y="34.5171" width="14" height="12" rx="3" transform="rotate(-146.239 380.838 34.5171)" fill="#474040"/>
<rect x="380.7" y="33.8236" width="13" height="11" rx="2.5" transform="rotate(-146.239 380.7 33.8236)" stroke="black"/>
</g>
<g filter="url(#filter5_d_32_884)">
<path d="M407.166 50.9135C405.631 53.2092 402.34 53.7019 399.815 52.0138L381.525 39.7876C378.999 38.0996 378.196 34.87 379.731 32.5743L384.732 25.0921C386.267 22.7963 389.558 22.3037 392.084 23.9918L410.373 36.2179C412.899 37.906 413.702 41.1355 412.167 43.4313L407.166 50.9135Z" fill="#474040"/>
<path d="M400.092 51.5981L381.802 39.372C379.469 37.8118 378.79 34.8819 380.146 32.8522L385.148 25.3699C386.505 23.3402 389.472 22.8473 391.806 24.4075L410.096 36.6336C412.429 38.1937 413.108 41.1236 411.752 43.1534L406.75 50.6356C405.393 52.6654 402.426 53.1582 400.092 51.5981Z" stroke="#191717"/>
</g>
<path d="M76.6988 273.261C28.0449 278.717 1.69731 252.576 0.198737 246.796C-1.67611 230.973 120.699 203.261 120.699 203.261L120.699 141.232L120.699 82.2605C120.699 82.2605 -5.67731 69.1651 0.19874 49.7605C2.022 45.6242 18.1395 13.1182 54.1988 16.7605C92.5269 20.6321 202.207 14.508 214.402 28.8803C215.039 29.3341 216.739 30.634 220.699 33.7605C230.199 41.2605 256.487 87.7766 232.398 90.4356C234.448 112.121 235.294 141.232 235.294 141.232C235.294 141.232 236.938 167.812 235.294 189.261C260.268 191.996 225.97 244.287 214.041 246.796C213.88 247.019 213.794 247.135 213.794 247.135C213.794 247.135 130.199 267.261 76.6988 273.261Z" fill="#2A849D"/>
<path d="M188.699 97.7605C174.063 97.7605 162.199 85.2245 162.199 69.7605C162.199 54.2966 174.063 41.7605 188.699 41.7605C203.334 41.7605 215.199 54.2966 215.199 69.7605C215.199 85.2245 203.334 97.7605 188.699 97.7605Z" fill="#D9D9D9"/>
<path d="M180.37 43.7356C180.37 41.1022 197.029 41.1022 197.027 43.7356C197.026 46.369 196.968 93.9453 196.998 96.1189C197.027 98.2924 180.37 98.323 180.37 96.1189C180.37 93.9147 180.37 46.369 180.37 43.7356Z" fill="#767171"/>
<path d="M213.33 60.9606C215.822 60.9606 215.822 78.5619 213.33 78.5605C210.837 78.5592 165.81 78.4978 163.752 78.5292C161.695 78.5605 161.666 60.9606 163.752 60.9606C165.839 60.9605 210.837 60.9606 213.33 60.9606Z" fill="#767171"/>
<path d="M196.199 214.761C189.571 214.761 184.199 209.388 184.199 202.761C184.199 196.133 189.571 190.761 196.199 190.761C202.826 190.761 208.199 196.133 208.199 202.761C208.199 209.388 202.826 214.761 196.199 214.761Z" fill="#F4A261"/>
<path d="M176.199 190.761C169.571 190.761 164.199 185.388 164.199 178.761C164.199 172.133 169.571 166.761 176.199 166.761C182.826 166.761 188.199 172.133 188.199 178.761C188.199 185.388 182.826 190.761 176.199 190.761Z" fill="#66BFFF"/>
<path d="M155.199 214.761C148.571 214.761 143.199 209.388 143.199 202.761C143.199 196.133 148.571 190.761 155.199 190.761C161.826 190.761 167.199 196.133 167.199 202.761C167.199 209.388 161.826 214.761 155.199 214.761Z" fill="#2A9D8F"/>
<path d="M176.199 235.761C169.571 235.761 164.199 230.388 164.199 223.761C164.199 217.133 169.571 211.761 176.199 211.761C182.826 211.761 188.199 217.133 188.199 223.761C188.199 230.388 182.826 235.761 176.199 235.761Z" fill="#E76F51"/>
<path d="M198.199 163.761C188.258 163.761 180.199 155.03 180.199 144.261C180.199 133.491 188.258 124.761 198.199 124.761C208.14 124.761 216.199 133.491 216.199 144.261C216.199 155.03 208.14 163.761 198.199 163.761Z" fill="#6C6763"/>
<path d="M194.055 139.017V140.665C194.3 140.857 194.583 140.979 194.903 141.033C195.233 141.086 195.895 141.113 196.887 141.113H203.399V143.305H197.639C196.924 143.305 196.369 143.289 195.975 143.257C195.58 143.235 195.132 143.171 194.631 143.065C193.681 142.862 192.871 142.355 192.199 141.545V139.017H194.055Z" fill="white"/>
<path d="M203.399 145.771V149.611H201.479V146.539L201.383 146.491L196.711 149.051C195.772 149.574 195.057 149.835 194.567 149.835C193.489 149.835 192.7 149.478 192.199 148.763V144.523H194.055V147.835L194.151 147.883L199.319 145.003C200.065 144.587 200.673 144.379 201.143 144.379C202.252 144.379 203.004 144.843 203.399 145.771Z" fill="white"/>
<g filter="url(#filter6_d_32_884)">
<path d="M404.087 50.1214C402.875 51.9338 400.032 52.1591 397.736 50.6244L381.109 39.5098C378.813 37.9752 377.934 35.2618 379.146 33.4494L383.094 27.5424C384.306 25.73 387.149 25.5047 389.445 27.0394L406.072 38.154C408.368 39.6886 409.247 42.402 408.035 44.2144L404.087 50.1214Z" fill="#474040"/>
<path d="M398.014 50.2088L381.387 39.0941C379.224 37.6482 378.561 35.224 379.561 33.7274L383.51 27.8202C384.511 26.3236 387.004 26.0091 389.167 27.455L405.794 38.5697C407.957 40.0156 408.62 42.4398 407.62 43.9364L403.671 49.8436L403.573 49.98C402.515 51.3579 400.11 51.6096 398.014 50.2088Z" stroke="#191717"/>
</g>
<line x1="408.039" y1="41.6053" x2="411.924" y2="39.3913" stroke="black"/>
<defs>
<filter id="filter0_d_32_884" x="387.731" y="35.8623" width="30.8363" height="22.3267" filterUnits="userSpaceOnUse" color-interpolation-filters="sRGB">
<feFlood flood-opacity="0" result="BackgroundImageFix"/>
<feColorMatrix in="SourceAlpha" type="matrix" values="0 0 0 0 0 0 0 0 0 0 0 0 0 0 0 0 0 0 127 0" result="hardAlpha"/>
<feOffset/>
<feComposite in2="hardAlpha" operator="out"/>
<feColorMatrix type="matrix" values="0 0 0 0 0 0 0 0 0 0 0 0 0 0 0 0 0 0 0.25 0"/>
<feBlend mode="normal" in2="BackgroundImageFix" result="effect1_dropShadow_32_884"/>
<feBlend mode="normal" in="SourceGraphic" in2="effect1_dropShadow_32_884" result="shape"/>
</filter>
<filter id="filter1_d_32_884" x="388.594" y="35.5644" width="30.2219" height="21.2596" filterUnits="userSpaceOnUse" color-interpolation-filters="sRGB">
<feFlood flood-opacity="0" result="BackgroundImageFix"/>
<feColorMatrix in="SourceAlpha" type="matrix" values="0 0 0 0 0 0 0 0 0 0 0 0 0 0 0 0 0 0 127 0" result="hardAlpha"/>
<feOffset/>
<feComposite in2="hardAlpha" operator="out"/>
<feColorMatrix type="matrix" values="0 0 0 0 0 0 0 0 0 0 0 0 0 0 0 0 0 0 0.25 0"/>
<feBlend mode="normal" in2="BackgroundImageFix" result="effect1_dropShadow_32_884"/>
<feBlend mode="normal" in="SourceGraphic" in2="effect1_dropShadow_32_884" result="shape"/>
</filter>
<filter id="filter2_d_32_884" x="392.177" y="29.2114" width="30.8363" height="22.3267" filterUnits="userSpaceOnUse" color-interpolation-filters="sRGB">
<feFlood flood-opacity="0" result="BackgroundImageFix"/>
<feColorMatrix in="SourceAlpha" type="matrix" values="0 0 0 0 0 0 0 0 0 0 0 0 0 0 0 0 0 0 127 0" result="hardAlpha"/>
<feOffset/>
<feComposite in2="hardAlpha" operator="out"/>
<feColorMatrix type="matrix" values="0 0 0 0 0 0 0 0 0 0 0 0 0 0 0 0 0 0 0.25 0"/>
<feBlend mode="normal" in2="BackgroundImageFix" result="effect1_dropShadow_32_884"/>
<feBlend mode="normal" in="SourceGraphic" in2="effect1_dropShadow_32_884" result="shape"/>
</filter>
<filter id="filter3_d_32_884" x="393.04" y="28.9135" width="30.2219" height="21.2596" filterUnits="userSpaceOnUse" color-interpolation-filters="sRGB">
<feFlood flood-opacity="0" result="BackgroundImageFix"/>
<feColorMatrix in="SourceAlpha" type="matrix" values="0 0 0 0 0 0 0 0 0 0 0 0 0 0 0 0 0 0 127 0" result="hardAlpha"/>
<feOffset/>
<feComposite in2="hardAlpha" operator="out"/>
<feColorMatrix type="matrix" values="0 0 0 0 0 0 0 0 0 0 0 0 0 0 0 0 0 0 0.25 0"/>
<feBlend mode="normal" in2="BackgroundImageFix" result="effect1_dropShadow_32_884"/>
<feBlend mode="normal" in="SourceGraphic" in2="effect1_dropShadow_32_884" result="shape"/>
</filter>
<filter id="filter4_d_32_884" x="366.36" y="13.9215" width="23.9859" height="23.4347" filterUnits="userSpaceOnUse" color-interpolation-filters="sRGB">
<feFlood flood-opacity="0" result="BackgroundImageFix"/>
<feColorMatrix in="SourceAlpha" type="matrix" values="0 0 0 0 0 0 0 0 0 0 0 0 0 0 0 0 0 0 127 0" result="hardAlpha"/>
<feOffset/>
<feGaussianBlur stdDeviation="2"/>
<feComposite in2="hardAlpha" operator="out"/>
<feColorMatrix type="matrix" values="0 0 0 0 0 0 0 0 0 0 0 0 0 0 0 0 0 0 0.25 0"/>
<feBlend mode="normal" in2="BackgroundImageFix" result="effect1_dropShadow_32_884"/>
<feBlend mode="normal" in="SourceGraphic" in2="effect1_dropShadow_32_884" result="shape"/>
</filter>
<filter id="filter5_d_32_884" x="378.952" y="22.9887" width="33.9942" height="30.0283" filterUnits="userSpaceOnUse" color-interpolation-filters="sRGB">
<feFlood flood-opacity="0" result="BackgroundImageFix"/>
<feColorMatrix in="SourceAlpha" type="matrix" values="0 0 0 0 0 0 0 0 0 0 0 0 0 0 0 0 0 0 127 0" result="hardAlpha"/>
<feOffset/>
<feComposite in2="hardAlpha" operator="out"/>
<feColorMatrix type="matrix" values="0 0 0 0 0 0 0 0 0 0 0 0 0 0 0 0 0 0 0.25 0"/>
<feBlend mode="normal" in2="BackgroundImageFix" result="effect1_dropShadow_32_884"/>
<feBlend mode="normal" in="SourceGraphic" in2="effect1_dropShadow_32_884" result="shape"/>
</filter>
<filter id="filter6_d_32_884" x="378.602" y="26.0209" width="29.978" height="25.622" filterUnits="userSpaceOnUse" color-interpolation-filters="sRGB">
<feFlood flood-opacity="0" result="BackgroundImageFix"/>
<feColorMatrix in="SourceAlpha" type="matrix" values="0 0 0 0 0 0 0 0 0 0 0 0 0 0 0 0 0 0 127 0" result="hardAlpha"/>
<feOffset/>
<feComposite in2="hardAlpha" operator="out"/>
<feColorMatrix type="matrix" values="0 0 0 0 0 0 0 0 0 0 0 0 0 0 0 0 0 0 0.25 0"/>
<feBlend mode="normal" in2="BackgroundImageFix" result="effect1_dropShadow_32_884"/>
<feBlend mode="normal" in="SourceGraphic" in2="effect1_dropShadow_32_884" result="shape"/>
</filter>
</defs>
</svg>
