<svg width="356" height="313" viewBox="0 0 356 313" fill="none" xmlns="http://www.w3.org/2000/svg">
    <mask id="path-1-outside-1_29_801" maskUnits="userSpaceOnUse" x="2.28882e-05" y="179" width="105" height="105" fill="black">
        <rect fill="white" x="2.28882e-05" y="179" width="105" height="105"/>
        <path d="M2.28905 213.409C0.170242 193.485 10.321 182.695 12.5653 182.081C18.7094 181.314 29.4705 231.428 29.4705 231.428L53.5568 231.428L76.4556 231.428C76.4556 231.428 81.5407 179.675 89.0756 182.081C90.6818 182.828 103.304 189.428 101.89 204.195C100.386 219.891 102.764 264.807 97.1835 269.801C97.0073 270.062 96.5025 270.758 95.2885 272.38C92.3762 276.27 74.3137 287.035 73.2812 277.171C64.8607 278.01 53.5568 278.357 53.5568 278.357C53.5568 278.357 43.2353 279.03 34.9068 278.357C33.8447 288.584 13.5396 274.538 12.5653 269.653C12.4786 269.588 12.4337 269.552 12.4337 269.552C12.4337 269.552 4.6189 235.319 2.28905 213.409Z"/>
    </mask>
    <path d="M2.28905 213.409C0.170242 193.485 10.321 182.695 12.5653 182.081C18.7094 181.314 29.4705 231.428 29.4705 231.428L53.5568 231.428L76.4556 231.428C76.4556 231.428 81.5407 179.675 89.0756 182.081C90.6818 182.828 103.304 189.428 101.89 204.195C100.386 219.891 102.764 264.807 97.1835 269.801C97.0073 270.062 96.5025 270.758 95.2885 272.38C92.3762 276.27 74.3137 287.035 73.2812 277.171C64.8607 278.01 53.5568 278.357 53.5568 278.357C53.5568 278.357 43.2353 279.03 34.9068 278.357C33.8447 288.584 13.5396 274.538 12.5653 269.653C12.4786 269.588 12.4337 269.552 12.4337 269.552C12.4337 269.552 4.6189 235.319 2.28905 213.409Z" fill="#517BDC"/>
    <path d="M97.0359 269.923L97.6361 270.722H97.6361L97.0359 269.923ZM97.1835 269.801L97.8504 270.547L97.9426 270.464L98.0119 270.361L97.1835 269.801ZM97.0359 269.923L96.4356 269.123C96.5014 269.078 96.8428 268.942 97.131 268.927C97.7426 269.215 98.0292 270.038 97.9829 270.244C97.9598 270.305 97.9188 270.392 97.9041 270.419C97.8952 270.434 97.88 270.459 97.8738 270.468C97.8622 270.486 97.8525 270.5 97.849 270.505C97.8443 270.511 97.8405 270.516 97.8383 270.519C97.8308 270.53 97.8247 270.537 97.8243 270.538C97.8214 270.542 97.8195 270.544 97.8202 270.543C97.8208 270.542 97.8231 270.539 97.8273 270.534C97.8355 270.524 97.8478 270.509 97.8623 270.492C97.8932 270.454 97.9255 270.416 97.9469 270.392C97.9492 270.39 97.9509 270.388 97.9523 270.386C97.9536 270.385 97.9542 270.384 97.9542 270.384C97.9541 270.384 97.9529 270.386 97.9507 270.388C97.9486 270.39 97.9443 270.394 97.9381 270.4C97.9325 270.406 97.9217 270.416 97.9071 270.429C97.8948 270.439 97.8664 270.463 97.8266 270.491C97.8063 270.505 97.7737 270.526 97.7315 270.549C97.7098 270.56 97.682 270.574 97.6487 270.588C97.616 270.602 97.5722 270.618 97.5191 270.633C97.4668 270.646 97.3946 270.661 97.3075 270.665C97.2202 270.669 97.1055 270.663 96.9777 270.624C96.8455 270.585 96.7119 270.515 96.5941 270.409C96.4775 270.304 96.3999 270.184 96.3506 270.074C96.3026 269.966 96.2817 269.868 96.2722 269.794C96.2628 269.719 96.2632 269.656 96.266 269.609C96.2688 269.562 96.2746 269.521 96.2803 269.49C96.2859 269.459 96.2924 269.432 96.2981 269.411C96.3092 269.37 96.321 269.337 96.3291 269.316C96.3376 269.293 96.3454 269.275 96.3512 269.263C96.3625 269.238 96.3721 269.22 96.3767 269.211C96.3819 269.202 96.3857 269.195 96.3871 269.193C96.3898 269.188 96.389 269.19 96.3826 269.2C96.3767 269.209 96.3678 269.222 96.3551 269.241L97.1835 269.801L98.0119 270.361C98.0458 270.311 98.0801 270.259 98.1085 270.211C98.1207 270.19 98.1464 270.146 98.1712 270.092C98.1822 270.068 98.2085 270.009 98.2296 269.93C98.2402 269.891 98.2571 269.819 98.2625 269.727C98.2672 269.648 98.2693 269.466 98.1776 269.26C98.1281 269.149 98.0503 269.029 97.9334 268.924C97.8154 268.817 97.6815 268.747 97.549 268.708C97.3012 268.634 97.0954 268.676 97.005 268.7C96.9036 268.727 96.8282 268.764 96.789 268.785C96.7454 268.808 96.7114 268.831 96.6894 268.846C96.6462 268.876 96.6138 268.903 96.597 268.917C96.5778 268.934 96.562 268.949 96.5508 268.96C96.5113 268.998 96.4756 269.037 96.4555 269.06C96.4089 269.112 96.3579 269.173 96.3228 269.215C96.3044 269.237 96.288 269.257 96.2759 269.272C96.27 269.279 96.2643 269.286 96.2595 269.292C96.2575 269.295 96.2535 269.3 96.2492 269.305C96.2482 269.307 96.2416 269.315 96.2338 269.325C96.2337 269.326 96.2168 269.348 96.1979 269.377C96.1918 269.387 96.1765 269.411 96.1676 269.426C96.1529 269.453 96.1119 269.54 96.0888 269.602C96.0425 269.808 96.3291 270.63 96.9407 270.918C97.229 270.904 97.5703 270.768 97.6361 270.722L97.0359 269.923ZM97.1835 269.801L96.5166 269.056C96.4883 269.082 96.4612 269.104 96.4356 269.123L97.0359 269.923L97.6361 270.722C97.7101 270.667 97.7815 270.608 97.8504 270.547L97.1835 269.801ZM2.28905 213.409L0.300262 213.621V213.621L2.28905 213.409ZM12.5653 182.081L12.3173 180.097L12.1756 180.115L12.0378 180.152L12.5653 182.081ZM12.4337 269.552L10.4839 269.997C10.5854 270.442 10.8361 270.839 11.1943 271.122L12.4337 269.552ZM12.5653 269.653L14.5267 269.262L14.3787 268.52L13.7765 268.062L12.5653 269.653ZM34.9068 278.357L35.0679 276.363L33.1194 276.206L32.9175 278.15L34.9068 278.357ZM53.5568 278.357L53.4955 276.358C53.4725 276.358 53.4495 276.36 53.4266 276.361L53.5568 278.357ZM73.2812 277.171L75.2703 276.963L75.0632 274.983L73.0828 275.181L73.2812 277.171ZM95.2885 272.38L96.8896 273.578H96.8896L95.2885 272.38ZM97.1835 269.801L95.8498 268.311L95.6653 268.476L95.5267 268.681L97.1835 269.801ZM101.89 204.195L99.8988 204.005V204.005L101.89 204.195ZM89.0756 182.081L89.9187 180.268L89.8042 180.215L89.684 180.176L89.0756 182.081ZM76.4556 231.428V233.428H78.2687L78.446 231.624L76.4556 231.428ZM53.5568 231.428V233.428V233.428V231.428ZM29.4705 231.428L27.5151 231.848L27.8544 233.428H29.4705V231.428ZM2.28905 213.409L4.27783 213.198C3.25957 203.622 5.19376 196.318 7.59052 191.377C8.79253 188.898 10.1079 187.02 11.2194 185.751C11.7765 185.115 12.266 184.651 12.646 184.345C13.0818 183.994 13.2226 183.975 13.0928 184.011L12.5653 182.081L12.0378 180.152C11.3469 180.341 10.6796 180.793 10.139 181.228C9.54254 181.708 8.88731 182.343 8.21028 183.116C6.85349 184.665 5.34283 186.845 3.99147 189.631C1.28148 195.219 -0.800278 203.272 0.300262 213.621L2.28905 213.409ZM12.4337 269.552C14.3836 269.107 14.3836 269.107 14.3835 269.107C14.3835 269.106 14.3834 269.106 14.3833 269.106C14.3831 269.105 14.3827 269.103 14.3823 269.101C14.3814 269.097 14.38 269.091 14.3782 269.083C14.3745 269.067 14.3689 269.043 14.3616 269.01C14.3469 268.946 14.325 268.849 14.2963 268.722C14.2389 268.467 14.1542 268.091 14.0455 267.603C13.828 266.628 13.5145 265.209 13.131 263.437C12.3637 259.894 11.3165 254.942 10.1967 249.307C7.95377 238.02 5.4327 224.058 4.27783 213.198L2.28905 213.409L0.300262 213.621C1.47525 224.67 4.02653 238.78 6.27345 250.086C7.39861 255.749 8.4507 260.724 9.22156 264.284C9.60703 266.064 9.92228 267.491 10.1413 268.474C10.2508 268.965 10.3363 269.345 10.3945 269.603C10.4236 269.732 10.4458 269.83 10.4609 269.896C10.4684 269.929 10.4741 269.954 10.478 269.971C10.4799 269.98 10.4813 269.986 10.4823 269.99C10.4828 269.993 10.4832 269.994 10.4835 269.995C10.4836 269.996 10.4837 269.996 10.4838 269.997C10.4838 269.997 10.4839 269.997 12.4337 269.552ZM12.5653 269.653L13.7765 268.062C13.7382 268.033 13.7101 268.011 13.6928 267.998C13.6841 267.991 13.6781 267.986 13.6748 267.984C13.6732 267.982 13.6722 267.982 13.672 267.981C13.6718 267.981 13.6719 267.981 13.6721 267.982C13.6722 267.982 13.6723 267.982 13.6725 267.982C13.6726 267.982 13.6727 267.982 13.6728 267.982C13.6729 267.982 13.6729 267.982 13.673 267.982C13.673 267.982 13.6731 267.982 13.6731 267.982C13.6731 267.982 13.6731 267.982 13.6732 267.982C13.6732 267.982 13.6732 267.982 12.4337 269.552C11.1943 271.122 11.1943 271.122 11.1943 271.122C11.1943 271.122 11.1943 271.122 11.1944 271.122C11.1944 271.122 11.1944 271.122 11.1945 271.122C11.1945 271.122 11.1946 271.122 11.1947 271.122C11.1949 271.122 11.195 271.122 11.1952 271.122C11.1956 271.123 11.196 271.123 11.1964 271.123C11.1974 271.124 11.1984 271.125 11.1997 271.126C11.2022 271.128 11.2055 271.13 11.2094 271.134C11.2172 271.14 11.2279 271.148 11.2413 271.158C11.268 271.179 11.3057 271.208 11.3541 271.245L12.5653 269.653ZM34.9068 278.357L32.9175 278.15C32.8211 279.079 32.5411 279.458 32.3536 279.624C32.1545 279.801 31.7829 279.983 31.0613 279.999C29.5234 280.032 27.2325 279.288 24.6444 277.908C22.1247 276.564 19.5936 274.763 17.6527 273.023C16.6823 272.153 15.894 271.33 15.3367 270.617C14.7393 269.853 14.5546 269.402 14.5267 269.262L12.5653 269.653L10.6039 270.045C10.8196 271.126 11.4826 272.182 12.1862 273.082C12.9299 274.032 13.8961 275.028 14.9829 276.002C17.1564 277.95 19.9507 279.937 22.7618 281.437C25.5046 282.9 28.55 284.055 31.1485 283.998C32.495 283.969 33.8917 283.608 35.0101 282.615C36.1401 281.611 36.727 280.192 36.8961 278.563L34.9068 278.357ZM53.5568 278.357C53.4266 276.361 53.4267 276.361 53.4267 276.361C53.4267 276.361 53.4267 276.361 53.4266 276.361C53.4264 276.361 53.4261 276.361 53.4256 276.361C53.4247 276.361 53.4231 276.361 53.4209 276.361C53.4165 276.362 53.4097 276.362 53.4005 276.363C53.3819 276.364 53.3537 276.366 53.3162 276.368C53.2412 276.373 53.129 276.379 52.9827 276.388C52.6898 276.404 52.2603 276.428 51.7182 276.454C50.6335 276.506 49.0998 276.568 47.3085 276.61C43.7141 276.693 39.131 276.692 35.0679 276.363L34.9068 278.357L34.7457 280.35C39.0111 280.695 43.753 280.693 47.4014 280.609C49.2316 280.566 50.7987 280.502 51.9096 280.449C52.4652 280.423 52.9072 280.399 53.2113 280.381C53.3634 280.372 53.4811 280.365 53.5614 280.36C53.6015 280.358 53.6323 280.356 53.6533 280.355C53.6638 280.354 53.6719 280.354 53.6776 280.353C53.6804 280.353 53.6825 280.353 53.6841 280.353C53.6849 280.353 53.6855 280.353 53.686 280.353C53.6862 280.353 53.6865 280.353 53.6866 280.353C53.6868 280.353 53.6869 280.353 53.5568 278.357ZM73.2812 277.171L73.0828 275.181C68.9224 275.595 64.0304 275.89 60.1626 276.081C58.2322 276.176 56.5636 276.246 55.3781 276.291C54.7854 276.314 54.3137 276.33 53.9907 276.341C53.8292 276.347 53.7048 276.351 53.6211 276.354C53.5793 276.355 53.5476 276.356 53.5265 276.357C53.516 276.357 53.5081 276.357 53.5029 276.357C53.5003 276.358 53.4984 276.358 53.4971 276.358C53.4965 276.358 53.4961 276.358 53.4958 276.358C53.4957 276.358 53.4956 276.358 53.4955 276.358C53.4955 276.358 53.4955 276.358 53.5568 278.357C53.618 280.356 53.6181 280.356 53.6182 280.356C53.6184 280.356 53.6185 280.356 53.6187 280.356C53.6191 280.356 53.6197 280.356 53.6205 280.356C53.622 280.356 53.6242 280.356 53.6271 280.356C53.6328 280.355 53.6412 280.355 53.6523 280.355C53.6745 280.354 53.7074 280.353 53.7504 280.352C53.8364 280.349 53.9631 280.345 54.1271 280.339C54.4552 280.328 54.9324 280.311 55.5311 280.288C56.7282 280.242 58.4118 280.172 60.3599 280.076C64.2493 279.884 69.2195 279.586 73.4796 279.161L73.2812 277.171ZM73.2812 277.171L71.2921 277.379C71.4547 278.933 71.978 280.287 72.9407 281.32C73.9047 282.355 75.144 282.889 76.4138 283.103C78.8462 283.513 81.7115 282.804 84.3037 281.798C86.9671 280.764 89.6573 279.289 91.8701 277.825C94.0213 276.401 95.9432 274.843 96.8896 273.578L95.2885 272.38L93.6874 271.181C93.1776 271.862 91.7496 273.108 89.6627 274.489C87.6375 275.829 85.2015 277.158 82.8561 278.069C80.4396 279.007 78.4136 279.384 77.0779 279.159C76.4637 279.055 76.0997 278.843 75.867 278.593C75.6328 278.342 75.3658 277.875 75.2703 276.963L73.2812 277.171ZM97.1835 269.801L95.5267 268.681C95.3832 268.893 94.9108 269.547 93.6874 271.181L95.2885 272.38L96.8896 273.578C98.0942 271.969 98.6314 271.231 98.8403 270.922L97.1835 269.801ZM101.89 204.195L99.8988 204.005C99.138 211.948 99.3539 227.307 99.0661 240.969C98.9208 247.867 98.649 254.364 98.0746 259.425C97.787 261.96 97.4301 264.072 96.9964 265.668C96.5326 267.374 96.0768 268.108 95.8498 268.311L97.1835 269.801L98.5172 271.292C99.6854 270.246 100.376 268.484 100.856 266.717C101.367 264.839 101.751 262.5 102.049 259.876C102.645 254.621 102.92 247.971 103.065 241.054C103.359 227.086 103.138 212.138 103.881 204.386L101.89 204.195ZM89.0756 182.081L88.2325 183.895C88.8882 184.2 92.1829 185.893 95.1183 189.207C98.0153 192.477 100.542 197.29 99.8988 204.005L101.89 204.195L103.881 204.386C104.652 196.334 101.574 190.463 98.1124 186.555C94.6886 182.69 90.8691 180.71 89.9187 180.268L89.0756 182.081ZM89.0756 182.081L89.684 180.176C87.4201 179.453 85.7203 181.001 84.7515 182.336C83.711 183.769 82.8173 185.824 82.0316 188.132C80.4433 192.798 79.0803 199.167 77.97 205.507C76.8555 211.871 75.9797 218.302 75.383 223.134C75.0844 225.552 74.8552 227.574 74.7006 228.992C74.6233 229.702 74.5646 230.26 74.5251 230.642C74.5054 230.833 74.4905 230.98 74.4805 231.079C74.4755 231.129 74.4717 231.167 74.4691 231.193C74.4679 231.206 74.4669 231.215 74.4662 231.222C74.4659 231.225 74.4657 231.228 74.4655 231.23C74.4654 231.231 74.4653 231.231 74.4653 231.232C74.4652 231.232 74.4652 231.233 76.4556 231.428C78.446 231.624 78.446 231.624 78.4461 231.623C78.4461 231.623 78.4461 231.623 78.4462 231.622C78.4463 231.621 78.4466 231.618 78.4468 231.615C78.4474 231.61 78.4483 231.601 78.4495 231.589C78.4519 231.564 78.4555 231.528 78.4604 231.48C78.4701 231.384 78.4846 231.24 78.504 231.053C78.5427 230.678 78.6006 230.127 78.677 229.426C78.8299 228.023 79.0569 226.021 79.3528 223.624C79.945 218.829 80.8114 212.471 81.91 206.197C83.0129 199.9 84.3339 193.782 85.8182 189.421C86.5689 187.216 87.3086 185.622 87.9884 184.686C88.74 183.651 88.8473 184.108 88.4671 183.987L89.0756 182.081ZM76.4556 231.428V229.428L53.5568 229.428V231.428V233.428L76.4556 233.428V231.428ZM53.5568 231.428V229.428L29.4705 229.428V231.428V233.428L53.5568 233.428V231.428ZM29.4705 231.428C31.4259 231.008 31.4259 231.008 31.4258 231.007C31.4257 231.007 31.4255 231.006 31.4253 231.006C31.425 231.004 31.4245 231.001 31.4238 230.998C31.4224 230.992 31.4204 230.982 31.4177 230.97C31.4124 230.945 31.4045 230.909 31.3941 230.861C31.3732 230.765 31.3423 230.623 31.3019 230.438C31.221 230.068 31.1017 229.527 30.9479 228.84C30.6402 227.465 30.1941 225.502 29.6397 223.151C28.5314 218.45 26.9876 212.182 25.2488 205.931C23.5145 199.696 21.5685 193.413 19.6506 188.712C18.6976 186.377 17.7106 184.328 16.7093 182.856C16.2118 182.125 15.6454 181.437 14.9981 180.932C14.3537 180.429 13.4283 179.958 12.3173 180.097L12.5653 182.081L12.8133 184.066C12.4703 184.109 12.349 183.939 12.5373 184.086C12.7226 184.23 13.0173 184.541 13.4021 185.106C14.1654 186.228 15.0271 187.969 15.947 190.223C17.7747 194.703 19.6711 200.805 21.3951 207.003C23.1146 213.185 24.645 219.397 25.7465 224.069C26.2969 226.403 26.7395 228.35 27.0444 229.713C27.1968 230.394 27.3147 230.929 27.3944 231.293C27.4343 231.475 27.4646 231.615 27.4848 231.708C27.495 231.755 27.5026 231.79 27.5077 231.814C27.5102 231.825 27.5121 231.834 27.5133 231.84C27.5139 231.843 27.5144 231.845 27.5147 231.846C27.5148 231.847 27.5149 231.847 27.515 231.848C27.5151 231.848 27.5151 231.848 29.4705 231.428Z" fill="black" mask="url(#path-1-outside-1_29_801)"/>
    <mask id="path-3-outside-2_29_801" maskUnits="userSpaceOnUse" x="14" y="-1.14441e-05" width="150" height="105" fill="black">
        <rect fill="white" x="14" y="-1.14441e-05" width="150" height="105"/>
        <path d="M160.584 70.5906C163.635 90.5151 149.018 101.305 145.786 101.919C136.939 102.686 121.443 52.5718 121.443 52.5718L86.7583 52.5718L53.784 52.5718C53.784 52.5718 46.4615 104.325 35.6112 101.919C33.2983 101.172 15.1222 94.5716 17.1589 79.8047C19.3237 64.1087 15.8993 19.1927 23.9358 14.1986C24.1895 13.9381 24.9164 13.242 26.6646 11.6202C30.8583 7.72977 56.8684 -3.0355 58.3551 6.82923C70.4807 5.98964 86.7583 5.6432 86.7583 5.6432C86.7583 5.6432 101.621 4.97004 113.614 5.6432C115.144 -4.58401 144.383 9.4615 145.786 14.3465C145.911 14.4125 145.975 14.4479 145.975 14.4479C145.975 14.4479 157.229 48.6814 160.584 70.5906Z"/>
    </mask>
    <path d="M160.584 70.5906C163.635 90.5151 149.018 101.305 145.786 101.919C136.939 102.686 121.443 52.5718 121.443 52.5718L86.7583 52.5718L53.784 52.5718C53.784 52.5718 46.4615 104.325 35.6112 101.919C33.2983 101.172 15.1222 94.5716 17.1589 79.8047C19.3237 64.1087 15.8993 19.1927 23.9358 14.1986C24.1895 13.9381 24.9164 13.242 26.6646 11.6202C30.8583 7.72977 56.8684 -3.0355 58.3551 6.82923C70.4807 5.98964 86.7583 5.6432 86.7583 5.6432C86.7583 5.6432 101.621 4.97004 113.614 5.6432C115.144 -4.58401 144.383 9.4615 145.786 14.3465C145.911 14.4125 145.975 14.4479 145.975 14.4479C145.975 14.4479 157.229 48.6814 160.584 70.5906Z" fill="#B3EAC0"/>
    <path d="M24.1484 14.0773L23.6863 13.1905L23.6862 13.1905L24.1484 14.0773ZM23.9358 14.1986L23.408 13.3493L23.3044 13.4137L23.2193 13.501L23.9358 14.1986ZM24.1484 14.0773L24.6105 14.9641C24.5517 14.9923 24.2898 15.0672 24.0823 15.0751C23.4674 14.8095 23.1608 13.9202 23.2497 13.6388C23.2885 13.5669 23.3541 13.4698 23.3762 13.4419C23.389 13.4267 23.4104 13.4025 23.4189 13.3933C23.4249 13.387 23.4354 13.3762 23.4398 13.3717C23.4432 13.3683 23.4494 13.3622 23.4521 13.3596C23.4581 13.3537 23.463 13.3491 23.4659 13.3464C23.4716 13.3411 23.4761 13.337 23.478 13.3353C23.4804 13.3332 23.4822 13.3315 23.4833 13.3306C23.4869 13.3274 23.4889 13.3256 23.4878 13.3266C23.4865 13.3278 23.4828 13.3309 23.4765 13.3363C23.4643 13.3467 23.4461 13.3621 23.4248 13.38C23.4034 13.3979 23.3798 13.4175 23.3567 13.4363C23.3332 13.4555 23.3126 13.472 23.2967 13.4844C23.2888 13.4906 23.2837 13.4943 23.2813 13.4962C23.2779 13.4987 23.2822 13.4953 23.2921 13.4887C23.2972 13.4853 23.3074 13.4786 23.3213 13.4702C23.3284 13.4659 23.338 13.4603 23.3495 13.4539C23.3608 13.4477 23.3765 13.4394 23.3958 13.4301C23.4143 13.4212 23.4423 13.4086 23.4774 13.3955C23.4954 13.3888 23.5177 13.3812 23.5437 13.3736C23.5693 13.3661 23.6023 13.3576 23.6411 13.3504C23.6793 13.3434 23.7302 13.3363 23.7906 13.3344C23.8502 13.3326 23.9307 13.3354 24.0236 13.3546C24.1176 13.3741 24.233 13.4122 24.351 13.4861C24.41 13.5231 24.4675 13.5677 24.5211 13.6204C24.5748 13.6732 24.6218 13.7314 24.6616 13.7934C24.7418 13.9185 24.7834 14.0444 24.8032 14.1522C24.8225 14.2577 24.8217 14.349 24.8159 14.4167C24.8101 14.485 24.7981 14.5419 24.7871 14.5841C24.7759 14.6269 24.7634 14.6628 24.7528 14.6903C24.742 14.7182 24.7313 14.742 24.7223 14.7608C24.7131 14.7799 24.7045 14.7963 24.6971 14.8098C24.6825 14.8361 24.6693 14.857 24.66 14.8712C24.6419 14.8989 24.6268 14.9186 24.6199 14.9274C24.6121 14.9374 24.6064 14.9441 24.6045 14.9464C24.6008 14.9508 24.6021 14.9489 24.6117 14.9387C24.6206 14.9291 24.6338 14.9153 24.6523 14.8962L23.9358 14.1986L23.2193 13.501C23.1712 13.5505 23.1225 13.6019 23.0819 13.6496C23.0653 13.6691 23.0265 13.7151 22.9879 13.774C22.9719 13.7983 22.9259 13.8695 22.8875 13.9688C22.8685 14.0179 22.8342 14.1167 22.8232 14.2468C22.8124 14.3735 22.8165 14.6211 22.978 14.873C23.06 15.0009 23.1677 15.1049 23.2895 15.1812C23.4078 15.2552 23.5237 15.2935 23.6182 15.3131C23.795 15.3497 23.9383 15.3294 24.0043 15.3172C24.0798 15.3032 24.1387 15.2834 24.1732 15.2706C24.2103 15.2568 24.2404 15.2432 24.2613 15.2331C24.3324 15.199 24.3869 15.1626 24.404 15.1512C24.4508 15.1199 24.4954 15.0858 24.524 15.0635C24.5876 15.0141 24.6587 14.9553 24.7088 14.9134C24.7349 14.8915 24.7579 14.872 24.7749 14.8575C24.7832 14.8504 24.7911 14.8437 24.7976 14.838C24.8004 14.8357 24.8054 14.8313 24.8109 14.8264C24.8122 14.8253 24.8205 14.8179 24.8304 14.8087C24.8334 14.8059 24.8384 14.8012 24.8445 14.7953C24.849 14.7909 24.862 14.7783 24.8778 14.7614C24.8864 14.7521 24.9078 14.7279 24.9206 14.7127C24.9428 14.6848 25.0084 14.5876 25.0471 14.5158C25.136 14.2343 24.8295 13.3451 24.2146 13.0795C24.0071 13.0873 23.7451 13.1622 23.6863 13.1905L24.1484 14.0773ZM23.9358 14.1986L24.4636 15.048C24.5128 15.0174 24.5618 14.9895 24.6106 14.964L24.1484 14.0773L23.6862 13.1905C23.5916 13.2398 23.4988 13.2928 23.408 13.3493L23.9358 14.1986ZM160.584 70.5906L158.607 70.8933V70.8933L160.584 70.5906ZM145.786 101.919L145.959 103.911L146.06 103.902L146.159 103.883L145.786 101.919ZM145.975 14.4479L147.875 13.8234C147.717 13.3417 147.382 12.9381 146.937 12.6943L145.975 14.4479ZM145.786 14.3465L143.864 14.8986L144.099 15.7169L144.851 16.1147L145.786 14.3465ZM113.614 5.6432L113.502 7.64006L115.323 7.74224L115.592 5.939L113.614 5.6432ZM86.7583 5.6432L86.8009 7.64275C86.8169 7.64241 86.8328 7.64187 86.8488 7.64116L86.7583 5.6432ZM58.3551 6.82923L56.3775 7.12729L56.6525 8.95191L58.4933 8.82445L58.3551 6.82923ZM26.6646 11.6202L25.3044 10.1539H25.3044L26.6646 11.6202ZM23.9358 14.1986L24.9914 15.8974L25.1986 15.7686L25.3688 15.5938L23.9358 14.1986ZM17.1589 79.8047L19.1401 80.078L17.1589 79.8047ZM35.6112 101.919L34.9968 103.822L35.0863 103.851L35.1782 103.871L35.6112 101.919ZM53.784 52.5718V50.5718H52.047L51.8037 52.2917L53.784 52.5718ZM86.7583 52.5718V50.5718V50.5718V52.5718ZM121.443 52.5718L123.353 51.981L122.918 50.5718H121.443V52.5718ZM160.584 70.5906L158.607 70.8933C160.044 80.2788 157.326 87.447 153.901 92.351C152.18 94.8151 150.282 96.7039 148.648 97.9995C147.831 98.6474 147.096 99.1345 146.5 99.4674C145.866 99.8215 145.504 99.9364 145.413 99.9537L145.786 101.919L146.159 103.883C146.876 103.747 147.678 103.391 148.45 102.96C149.26 102.507 150.173 101.895 151.133 101.134C153.054 99.611 155.225 97.4419 157.181 94.6413C161.11 89.0159 164.175 80.8269 162.561 70.2878L160.584 70.5906ZM145.975 14.4479C144.076 15.0725 144.076 15.0725 144.076 15.0727C144.076 15.0729 144.076 15.0732 144.076 15.0737C144.076 15.0746 144.077 15.076 144.077 15.078C144.079 15.0819 144.081 15.0878 144.083 15.0959C144.088 15.1119 144.096 15.1361 144.107 15.1683C144.128 15.2327 144.159 15.3291 144.201 15.456C144.283 15.7099 144.405 16.086 144.561 16.573C144.874 17.5471 145.325 18.9646 145.877 20.7346C146.981 24.275 148.488 29.2235 150.099 34.8535C153.328 46.1383 156.95 60.0717 158.607 70.8933L160.584 70.5906L162.561 70.2878C160.863 59.2003 157.181 45.0623 153.944 33.7531C152.323 28.0862 150.807 23.1069 149.696 19.5439C149.14 17.7622 148.686 16.334 148.37 15.3503C148.212 14.8585 148.089 14.4777 148.005 14.2195C147.963 14.0903 147.931 13.9918 147.909 13.9253C147.898 13.8921 147.89 13.8668 147.884 13.8498C147.881 13.8412 147.879 13.8348 147.878 13.8304C147.877 13.8282 147.876 13.8265 147.876 13.8253C147.876 13.8247 147.876 13.8242 147.876 13.8239C147.876 13.8236 147.875 13.8234 145.975 14.4479ZM145.786 14.3465L144.851 16.1147C144.909 16.1452 144.952 16.1681 144.979 16.1828C144.993 16.1901 145.002 16.1954 145.008 16.1985C145.011 16.2001 145.013 16.2012 145.014 16.2017C145.015 16.2019 145.015 16.202 145.015 16.202C145.015 16.202 145.015 16.202 145.014 16.2019C145.014 16.2019 145.014 16.2018 145.014 16.2017C145.014 16.2017 145.014 16.2017 145.014 16.2017C145.014 16.2016 145.014 16.2016 145.014 16.2016C145.014 16.2016 145.014 16.2016 145.014 16.2016C145.014 16.2016 145.014 16.2016 145.975 14.4479C146.937 12.6943 146.937 12.6943 146.937 12.6943C146.937 12.6942 146.937 12.6942 146.937 12.6942C146.937 12.6942 146.937 12.6942 146.937 12.6942C146.937 12.6941 146.937 12.6941 146.937 12.694C146.937 12.6939 146.936 12.6938 146.936 12.6937C146.936 12.6935 146.935 12.6933 146.935 12.693C146.934 12.6924 146.932 12.6917 146.931 12.6909C146.928 12.6892 146.924 12.6869 146.919 12.6841C146.908 12.6786 146.894 12.6709 146.876 12.6611C146.84 12.6416 146.788 12.6138 146.721 12.5783L145.786 14.3465ZM113.614 5.6432L115.592 5.939C115.699 5.22748 115.994 4.85035 116.428 4.58267C116.95 4.26111 117.816 4.02104 119.119 4.0013C121.728 3.96179 125.295 4.8111 129.053 6.20323C132.77 7.58024 136.482 9.41581 139.326 11.1855C140.75 12.0721 141.912 12.9149 142.736 13.6462C143.148 14.0119 143.445 14.3229 143.642 14.572C143.852 14.8384 143.877 14.944 143.864 14.8986L145.786 14.3465L147.708 13.7944C147.362 12.587 146.349 11.5053 145.391 10.6548C144.342 9.723 142.977 8.74696 141.439 7.78961C138.358 5.87144 134.401 3.9189 130.442 2.45231C126.524 1.00084 122.406 -0.0489388 119.059 0.00175858C117.383 0.0271339 115.704 0.329494 114.328 1.1783C112.865 2.08097 111.912 3.50212 111.636 5.3474L113.614 5.6432ZM86.7583 5.6432C86.8488 7.64116 86.8488 7.64116 86.8488 7.64115C86.8489 7.64115 86.849 7.64114 86.8492 7.64113C86.8495 7.64112 86.8501 7.64109 86.8509 7.64106C86.8525 7.64099 86.855 7.64087 86.8584 7.64073C86.8651 7.64042 86.8754 7.63997 86.8892 7.63935C86.9168 7.63814 86.9584 7.63633 87.0134 7.63399C87.1233 7.6293 87.2869 7.62248 87.4999 7.61401C87.9257 7.59707 88.5488 7.57357 89.3345 7.54743C90.9062 7.49514 93.1273 7.43236 95.7212 7.39051C100.917 7.30666 107.576 7.30743 113.502 7.64006L113.614 5.6432L113.726 3.64634C107.659 3.30581 100.89 3.30658 95.6566 3.39103C93.0357 3.43332 90.7914 3.49675 89.2016 3.54964C88.4065 3.57609 87.7747 3.59992 87.3409 3.61717C87.124 3.6258 86.9566 3.63278 86.843 3.63762C86.7862 3.64004 86.7428 3.64193 86.7134 3.64322C86.6988 3.64387 86.6876 3.64437 86.6799 3.6447C86.6761 3.64488 86.6732 3.64501 86.6712 3.6451C86.6702 3.64515 86.6694 3.64518 86.6688 3.64521C86.6686 3.64521 86.6683 3.64523 86.6682 3.64524C86.668 3.64524 86.6678 3.64524 86.7583 5.6432ZM58.3551 6.82923L58.4933 8.82445C64.5212 8.40707 71.5947 8.11149 77.1724 7.92019C79.9588 7.82462 82.3672 7.75523 84.0786 7.70974C84.9343 7.687 85.6156 7.67024 86.0826 7.65916C86.3161 7.65363 86.4961 7.64952 86.6174 7.64679C86.6781 7.64543 86.7242 7.64441 86.755 7.64374C86.7704 7.64341 86.7819 7.64315 86.7896 7.64299C86.7934 7.64291 86.7963 7.64284 86.7982 7.6428C86.7991 7.64279 86.7998 7.64277 86.8003 7.64276C86.8005 7.64276 86.8007 7.64275 86.8008 7.64275C86.8009 7.64275 86.8009 7.64275 86.7583 5.6432C86.7158 3.64365 86.7157 3.64366 86.7155 3.64366C86.7154 3.64366 86.7152 3.64367 86.7149 3.64367C86.7143 3.64368 86.7136 3.6437 86.7125 3.64372C86.7104 3.64376 86.7074 3.64383 86.7034 3.64392C86.6953 3.64409 86.6833 3.64435 86.6676 3.6447C86.636 3.64539 86.5892 3.64642 86.5277 3.6478C86.4047 3.65056 86.2231 3.65471 85.9878 3.66029C85.5173 3.67144 84.8322 3.6883 83.9723 3.71115C82.2528 3.75686 79.834 3.82655 77.0353 3.92254C71.4427 4.11435 64.3146 4.41179 58.217 4.834L58.3551 6.82923ZM58.3551 6.82923L60.3328 6.53116C60.071 4.79408 59.232 3.40707 57.9336 2.43957C56.6917 1.51412 55.1573 1.06485 53.5982 0.882572C50.504 0.520817 46.6877 1.14244 43.0044 2.13547C39.2745 3.14106 35.4782 4.58432 32.3413 6.02579C29.2838 7.43079 26.6088 8.9439 25.3044 10.1539L26.6646 11.6202L28.0248 13.0864C28.8173 12.3512 30.9662 11.0598 34.0115 9.6604C36.9775 8.29749 40.5629 6.93652 44.0456 5.99758C47.5749 5.04608 50.8019 4.58287 53.1338 4.85551C54.2878 4.99044 55.062 5.28817 55.5435 5.64696C55.9686 5.9637 56.2676 6.3982 56.3775 7.12729L58.3551 6.82923ZM23.9358 14.1986L25.3688 15.5938C25.5793 15.3776 26.264 14.7199 28.0248 13.0864L26.6646 11.6202L25.3044 10.1539C23.5688 11.764 22.7998 12.4985 22.5028 12.8034L23.9358 14.1986ZM17.1589 79.8047L19.1401 80.078C19.7005 76.0152 19.892 70.145 20.0007 63.6678C20.1103 57.1326 20.1355 49.941 20.3446 43.0491C20.5537 36.1558 20.9443 29.6928 21.7648 24.6717C22.1756 22.1577 22.6817 20.0872 23.2885 18.5366C23.9183 16.9274 24.5426 16.1763 24.9914 15.8974L23.9358 14.1986L22.8802 12.4999C21.3199 13.4695 20.2932 15.2145 19.5636 17.0788C18.8111 19.0017 18.2492 21.3823 17.8171 24.0267C16.9518 29.3224 16.5564 36.0058 16.3464 42.9278C16.1364 49.8511 16.1095 57.1436 16.0012 63.6007C15.8919 70.1159 15.6997 75.7462 15.1776 79.5314L17.1589 79.8047ZM35.6112 101.919L36.2256 100.015C35.17 99.6745 30.3007 97.9262 25.9879 94.5452C21.6827 91.1703 18.2602 86.4581 19.1401 80.078L17.1589 79.8047L15.1776 79.5314C14.0209 87.9182 18.6681 93.8896 23.5201 97.6932C28.3643 101.491 33.7395 103.416 34.9968 103.822L35.6112 101.919ZM35.6112 101.919L35.1782 103.871C37.4309 104.371 39.3832 103.375 40.8898 101.934C42.3775 100.511 43.6772 98.4435 44.824 96.1036C47.1309 91.3972 49.1038 84.9891 50.7057 78.6366C52.315 72.2554 53.5788 65.8111 54.4394 60.9708C54.8701 58.5484 55.2008 56.5227 55.4239 55.1011C55.5355 54.3902 55.6203 53.8301 55.6773 53.4466C55.7058 53.2549 55.7274 53.1074 55.7419 53.0072C55.7492 52.9571 55.7547 52.9188 55.7584 52.8929C55.7603 52.8799 55.7617 52.8699 55.7627 52.8631C55.7632 52.8597 55.7635 52.8571 55.7638 52.8552C55.7639 52.8543 55.764 52.8535 55.7641 52.853C55.7642 52.8524 55.7643 52.852 53.784 52.5718C51.8037 52.2917 51.8037 52.2916 51.8037 52.2918C51.8036 52.2922 51.8036 52.2925 51.8035 52.2932C51.8033 52.2945 51.803 52.2966 51.8026 52.2994C51.8018 52.3051 51.8005 52.314 51.7988 52.3258C51.7954 52.3496 51.7903 52.3855 51.7833 52.4333C51.7695 52.5288 51.7486 52.6715 51.7208 52.8583C51.6653 53.2318 51.5822 53.7812 51.4723 54.4807C51.2527 55.88 50.9265 57.8787 50.5012 60.2705C49.6498 65.0587 48.4049 71.4023 46.8272 77.6586C45.2422 83.9436 43.35 90.0226 41.2323 94.3431C40.1669 96.5167 39.1143 98.0973 38.1248 99.0439C37.1541 99.9724 36.5041 100.068 36.0443 99.966L35.6112 101.919ZM53.784 52.5718V54.5718L86.7583 54.5718V52.5718V50.5718L53.784 50.5718V52.5718ZM86.7583 52.5718V54.5718L121.443 54.5718V52.5718V50.5718L86.7583 50.5718V52.5718ZM121.443 52.5718C119.532 53.1627 119.532 53.163 119.532 53.1635C119.532 53.164 119.532 53.1647 119.533 53.1656C119.533 53.1673 119.534 53.1698 119.535 53.173C119.537 53.1795 119.54 53.189 119.544 53.2015C119.552 53.2264 119.563 53.2632 119.578 53.3115C119.608 53.408 119.653 53.5505 119.711 53.7358C119.828 54.1064 120 54.6483 120.222 55.337C120.666 56.7142 121.309 58.6788 122.108 61.0332C123.706 65.739 125.932 72.0157 128.44 78.2768C130.941 84.52 133.751 90.8235 136.525 95.5452C137.907 97.8966 139.334 99.9516 140.771 101.418C142.124 102.799 143.904 104.089 145.959 103.911L145.786 101.919L145.613 99.9261C145.456 99.9397 144.817 99.832 143.629 98.6191C142.524 97.4921 141.29 95.7578 139.974 93.5189C137.355 89.0602 134.632 82.979 132.153 76.7895C129.681 70.618 127.48 64.414 125.896 59.7473C125.104 57.4154 124.468 55.4708 124.029 54.1104C123.81 53.4302 123.641 52.8963 123.526 52.5331C123.469 52.3516 123.425 52.2127 123.396 52.1197C123.382 52.0731 123.371 52.0381 123.364 52.0148C123.36 52.0032 123.357 51.9945 123.356 51.9889C123.355 51.9861 123.354 51.984 123.354 51.9827C123.354 51.982 123.353 51.9816 123.353 51.9813C123.353 51.9811 123.353 51.981 121.443 52.5718Z" fill="black" mask="url(#path-3-outside-2_29_801)"/>
    <path d="M309.427 48.9372C186.927 -33.5627 149.927 133.937 254.927 153.437C359.927 172.937 317.927 283.437 254.927 281.937C191.927 280.437 173.427 221.875 182.927 197.875C192.427 173.874 80 373.937 57 281.937" stroke="#FFA366" stroke-width="12" stroke-linecap="round"/>
    <g filter="url(#filter0_d_29_801)">
        <path d="M348.709 82.1718C348.225 82.8968 345.661 82.0331 342.982 80.2427L323.584 67.2756C320.905 65.4852 319.127 63.4461 319.612 62.7211L321.191 60.3583C321.676 59.6333 324.24 60.497 326.918 62.2874L346.317 75.2545C348.995 77.0449 350.773 79.084 350.289 79.809L348.709 82.1718Z" fill="#D9D9D9"/>
        <path d="M343.26 79.8272L323.861 66.8597C322.548 65.9818 321.471 65.0521 320.788 64.2698C320.445 63.8759 320.221 63.5409 320.109 63.2861C320.021 63.0855 320.031 63.0042 320.034 62.9891L321.6 60.6469C321.61 60.6399 321.68 60.5976 321.903 60.602C322.181 60.6076 322.577 60.6866 323.072 60.8535C324.056 61.1848 325.327 61.8251 326.64 62.7029L346.039 75.6704C347.352 76.5483 348.43 77.478 349.112 78.2603C349.456 78.6542 349.68 78.9892 349.791 79.244C349.881 79.449 349.868 79.5293 349.866 79.5418L348.3 81.8841C348.287 81.8923 348.216 81.9324 347.997 81.9281C347.719 81.9225 347.324 81.8435 346.828 81.6767C345.845 81.3453 344.574 80.705 343.26 79.8272Z" stroke="#191717"/>
    </g>
    <g filter="url(#filter1_d_29_801)">
        <path d="M349.528 80.9466C349.205 81.4299 346.772 80.3704 344.094 78.58L324.695 65.6129C322.017 63.8225 320.108 61.9793 320.431 61.496L321.484 59.9208C321.807 59.4374 324.24 60.497 326.918 62.2874L346.317 75.2545C348.995 77.0449 350.904 78.8881 350.581 79.3714L349.528 80.9466Z" fill="#D9D9D9"/>
        <path d="M344.372 78.1645L324.973 65.197C323.651 64.3132 322.529 63.4226 321.785 62.7039C321.409 62.3419 321.148 62.0408 321.002 61.8181C320.96 61.7534 320.934 61.7032 320.917 61.6674L321.828 60.3051C321.868 60.3068 321.924 60.3116 322 60.3259C322.261 60.375 322.639 60.5019 323.117 60.71C324.066 61.1231 325.318 61.8191 326.64 62.7029L346.039 75.6704C347.361 76.5542 348.483 77.4448 349.227 78.1635C349.602 78.5255 349.864 78.8266 350.01 79.0493C350.052 79.1139 350.078 79.1642 350.094 79.2L349.184 80.5623C349.144 80.5606 349.088 80.5558 349.012 80.5415C348.751 80.4923 348.372 80.3655 347.894 80.1574C346.946 79.7443 345.694 79.0483 344.372 78.1645Z" stroke="#191717"/>
    </g>
    <g filter="url(#filter2_d_29_801)">
        <path d="M353.155 75.5209C352.671 76.2459 350.106 75.3822 347.428 73.5918L328.03 60.6247C325.351 58.8343 323.573 56.7952 324.058 56.0702L325.637 53.7074C326.122 52.9825 328.686 53.8462 331.364 55.6365L350.762 68.6036C353.441 70.394 355.219 72.4331 354.735 73.1581L353.155 75.5209Z" fill="#D9D9D9"/>
        <path d="M347.706 73.1763L328.307 60.2088C326.994 59.331 325.916 58.4013 325.234 57.6189C324.891 57.2251 324.666 56.8901 324.555 56.6352C324.467 56.4346 324.477 56.3533 324.48 56.3382L326.046 53.996C326.056 53.989 326.126 53.9467 326.349 53.9511C326.627 53.9567 327.023 54.0358 327.518 54.2026C328.502 54.5339 329.773 55.1742 331.086 56.052L350.485 69.0195C351.798 69.8974 352.876 70.8271 353.558 71.6094C353.901 72.0033 354.126 72.3383 354.237 72.5932C354.327 72.7981 354.314 72.8784 354.312 72.8909L352.746 75.2332C352.733 75.2414 352.662 75.2815 352.443 75.2772C352.165 75.2717 351.77 75.1926 351.274 75.0258C350.291 74.6944 349.019 74.0542 347.706 73.1763Z" stroke="#191717"/>
    </g>
    <g filter="url(#filter3_d_29_801)">
        <path d="M353.974 74.2957C353.651 74.7791 351.218 73.7195 348.54 71.9291L329.141 58.962C326.463 57.1716 324.553 55.3284 324.876 54.8451L325.929 53.2699C326.253 52.7865 328.686 53.8461 331.364 55.6365L350.762 68.6036C353.441 70.394 355.35 72.2372 355.027 72.7205L353.974 74.2957Z" fill="#D9D9D9"/>
        <path d="M348.818 71.5136L329.419 58.5461C328.097 57.6623 326.975 56.7717 326.23 56.053C325.855 55.691 325.594 55.3899 325.448 55.1672C325.406 55.1025 325.38 55.0523 325.363 55.0165L326.274 53.6542C326.313 53.6559 326.37 53.6607 326.446 53.675C326.707 53.7241 327.085 53.851 327.563 54.0591C328.512 54.4722 329.764 55.1682 331.086 56.052L350.485 69.0195C351.807 69.9033 352.929 70.7939 353.673 71.5126C354.048 71.8746 354.31 72.1757 354.455 72.3984C354.498 72.4631 354.524 72.5133 354.54 72.5491L353.63 73.9114C353.59 73.9097 353.534 73.9049 353.458 73.8906C353.197 73.8415 352.818 73.7146 352.34 73.5065C351.392 73.0934 350.14 72.3974 348.818 71.5136Z" stroke="#191717"/>
    </g>
    <g filter="url(#filter4_d_29_801)">
        <rect x="312.639" y="58.7566" width="14" height="12" rx="3" transform="rotate(-146.239 312.639 58.7566)" fill="#474040"/>
        <rect x="312.501" y="58.063" width="13" height="11" rx="2.5" transform="rotate(-146.239 312.501 58.063)" stroke="black"/>
    </g>
    <g filter="url(#filter5_d_29_801)">
        <path d="M338.967 75.153C337.432 77.4487 334.141 77.9413 331.616 76.2532L313.326 64.0271C310.801 62.339 309.997 59.1095 311.532 56.8138L316.534 49.3315C318.068 47.0358 321.359 46.5432 323.885 48.2312L342.175 60.4574C344.7 62.1454 345.503 65.375 343.969 67.6707L338.967 75.153Z" fill="#474040"/>
        <path d="M331.894 75.8375L313.604 63.6114C311.27 62.0513 310.591 59.1214 311.948 57.0916L316.949 49.6094C318.306 47.5796 321.273 47.0868 323.607 48.6469L341.897 60.8731C344.231 62.4332 344.91 65.3631 343.553 67.3928L338.551 74.8751C337.194 76.9049 334.228 77.3977 331.894 75.8375Z" stroke="#191717"/>
    </g>
    <rect x="71" y="55" width="35" height="126" rx="3" fill="#FFFCFC" stroke="black" stroke-width="2"/>
    <path d="M80 266C74.4772 266 70 261.523 70 256C70 250.477 74.4772 246 80 246C85.5229 246 90 250.477 90 256C90 261.523 85.5229 266 80 266Z" fill="#D9D9D9"/>
    <path d="M76.8572 246.705C76.8572 245.765 83.1434 245.765 83.1429 246.705C83.1424 247.646 83.1205 264.637 83.1317 265.414C83.1429 266.19 76.8572 266.201 76.8572 265.414C76.8572 264.626 76.8572 247.646 76.8572 246.705Z" fill="#767171"/>
    <path d="M89.2946 252.857C90.2351 252.857 90.2352 259.143 89.2947 259.143C88.3542 259.142 71.3626 259.12 70.5863 259.132C69.8101 259.143 69.7991 252.857 70.5863 252.857C71.3735 252.857 88.3542 252.857 89.2946 252.857Z" fill="#767171"/>
    <path d="M46 39C40.4772 39 36 34.5228 36 29C36 23.4771 40.4772 19 46 19C51.5229 19 56 23.4771 56 29C56 34.5228 51.5229 39 46 39Z" fill="#D9D9D9"/>
    <path d="M42.8572 19.7054C42.8572 18.7649 49.1434 18.7649 49.1429 19.7054C49.1424 20.6459 49.1205 37.6374 49.1317 38.4137C49.1429 39.1899 42.8572 39.2009 42.8572 38.4137C42.8572 37.6265 42.8572 20.6459 42.8572 19.7054Z" fill="#767171"/>
    <path d="M55.2946 25.8572C56.2351 25.8572 56.2352 32.1433 55.2947 32.1428C54.3542 32.1424 37.3626 32.1204 36.5863 32.1316C35.8101 32.1428 35.7991 25.8572 36.5863 25.8571C37.3735 25.8571 54.3542 25.8572 55.2946 25.8572Z" fill="#767171"/>
    <path d="M89 89C83.4772 89 79 84.5228 79 79C79 73.4771 83.4772 69 89 69C94.5229 69 99 73.4771 99 79C99 84.5228 94.5229 89 89 89Z" fill="#D9D9D9"/>
    <path d="M85.8572 69.7054C85.8572 68.7649 92.1434 68.7649 92.1429 69.7054C92.1424 70.6459 92.1205 87.6374 92.1317 88.4137C92.1429 89.1899 85.8572 89.2009 85.8572 88.4137C85.8572 87.6265 85.8572 70.6459 85.8572 69.7054Z" fill="#767171"/>
    <path d="M98.2946 75.8572C99.2351 75.8572 99.2352 82.1433 98.2947 82.1428C97.3542 82.1424 80.3626 82.1204 79.5863 82.1316C78.8101 82.1428 78.7991 75.8572 79.5863 75.8571C80.3735 75.8571 97.3542 75.8572 98.2946 75.8572Z" fill="#767171"/>
    <path d="M30 267C30 263.686 32.6863 261 36 261C39.3137 261 42 263.686 42 267C42 270.314 39.3137 273 36 273C32.6863 273 30 270.314 30 267Z" fill="#F4A261"/>
    <path d="M40 256C40 252.686 42.6863 250 46 250C49.3137 250 52 252.686 52 256C52 259.314 49.3137 262 46 262C42.6863 262 40 259.314 40 256Z" fill="#66BFFF"/>
    <path d="M30 245C30 241.686 32.6863 239 36 239C39.3137 239 42 241.686 42 245C42 248.314 39.3137 251 36 251C32.6863 251 30 248.314 30 245Z" fill="#2A9D8F"/>
    <path d="M19 256C19 252.686 21.6863 250 25 250C28.3137 250 31 252.686 31 256C31 259.314 28.3137 262 25 262C21.6863 262 19 259.314 19 256Z" fill="#E76F51"/>
    <path d="M130 17C130 20.3137 127.314 23 124 23C120.686 23 118 20.3137 118 17C118 13.6863 120.686 11 124 11C127.314 11 130 13.6863 130 17Z" fill="#F4A261"/>
    <path d="M120 28C120 31.3137 117.314 34 114 34C110.686 34 108 31.3137 108 28C108 24.6863 110.686 22 114 22C117.314 22 120 24.6863 120 28Z" fill="#66BFFF"/>
    <path d="M130 39C130 42.3137 127.314 45 124 45C120.686 45 118 42.3137 118 39C118 35.6863 120.686 33 124 33C127.314 33 130 35.6863 130 39Z" fill="#2A9D8F"/>
    <path d="M141 28C141 31.3137 138.314 34 135 34C131.686 34 129 31.3137 129 28C129 24.6863 131.686 22 135 22C138.314 22 141 24.6863 141 28Z" fill="#E76F51"/>
    <path d="M89 158C85.6863 158 83 155.314 83 152C83 148.686 85.6863 146 89 146C92.3137 146 95 148.686 95 152C95 155.314 92.3137 158 89 158Z" fill="#D9D9D9"/>
    <path d="M89 134C85.6863 134 83 131.314 83 128C83 124.686 85.6863 122 89 122C92.3137 122 95 124.686 95 128C95 131.314 92.3137 134 89 134Z" fill="#D9D9D9"/>
    <defs>
        <filter id="filter0_d_29_801" x="319.532" y="60.1017" width="30.8363" height="22.3267" filterUnits="userSpaceOnUse" color-interpolation-filters="sRGB">
            <feFlood flood-opacity="0" result="BackgroundImageFix"/>
            <feColorMatrix in="SourceAlpha" type="matrix" values="0 0 0 0 0 0 0 0 0 0 0 0 0 0 0 0 0 0 127 0" result="hardAlpha"/>
            <feOffset/>
            <feComposite in2="hardAlpha" operator="out"/>
            <feColorMatrix type="matrix" values="0 0 0 0 0 0 0 0 0 0 0 0 0 0 0 0 0 0 0.25 0"/>
            <feBlend mode="normal" in2="BackgroundImageFix" result="effect1_dropShadow_29_801"/>
            <feBlend mode="normal" in="SourceGraphic" in2="effect1_dropShadow_29_801" result="shape"/>
        </filter>
        <filter id="filter1_d_29_801" x="320.395" y="59.8039" width="30.2219" height="21.2596" filterUnits="userSpaceOnUse" color-interpolation-filters="sRGB">
            <feFlood flood-opacity="0" result="BackgroundImageFix"/>
            <feColorMatrix in="SourceAlpha" type="matrix" values="0 0 0 0 0 0 0 0 0 0 0 0 0 0 0 0 0 0 127 0" result="hardAlpha"/>
            <feOffset/>
            <feComposite in2="hardAlpha" operator="out"/>
            <feColorMatrix type="matrix" values="0 0 0 0 0 0 0 0 0 0 0 0 0 0 0 0 0 0 0.25 0"/>
            <feBlend mode="normal" in2="BackgroundImageFix" result="effect1_dropShadow_29_801"/>
            <feBlend mode="normal" in="SourceGraphic" in2="effect1_dropShadow_29_801" result="shape"/>
        </filter>
        <filter id="filter2_d_29_801" x="323.978" y="53.4508" width="30.8363" height="22.3267" filterUnits="userSpaceOnUse" color-interpolation-filters="sRGB">
            <feFlood flood-opacity="0" result="BackgroundImageFix"/>
            <feColorMatrix in="SourceAlpha" type="matrix" values="0 0 0 0 0 0 0 0 0 0 0 0 0 0 0 0 0 0 127 0" result="hardAlpha"/>
            <feOffset/>
            <feComposite in2="hardAlpha" operator="out"/>
            <feColorMatrix type="matrix" values="0 0 0 0 0 0 0 0 0 0 0 0 0 0 0 0 0 0 0.25 0"/>
            <feBlend mode="normal" in2="BackgroundImageFix" result="effect1_dropShadow_29_801"/>
            <feBlend mode="normal" in="SourceGraphic" in2="effect1_dropShadow_29_801" result="shape"/>
        </filter>
        <filter id="filter3_d_29_801" x="324.841" y="53.153" width="30.2219" height="21.2596" filterUnits="userSpaceOnUse" color-interpolation-filters="sRGB">
            <feFlood flood-opacity="0" result="BackgroundImageFix"/>
            <feColorMatrix in="SourceAlpha" type="matrix" values="0 0 0 0 0 0 0 0 0 0 0 0 0 0 0 0 0 0 127 0" result="hardAlpha"/>
            <feOffset/>
            <feComposite in2="hardAlpha" operator="out"/>
            <feColorMatrix type="matrix" values="0 0 0 0 0 0 0 0 0 0 0 0 0 0 0 0 0 0 0.25 0"/>
            <feBlend mode="normal" in2="BackgroundImageFix" result="effect1_dropShadow_29_801"/>
            <feBlend mode="normal" in="SourceGraphic" in2="effect1_dropShadow_29_801" result="shape"/>
        </filter>
        <filter id="filter4_d_29_801" x="298.161" y="38.161" width="23.9859" height="23.4347" filterUnits="userSpaceOnUse" color-interpolation-filters="sRGB">
            <feFlood flood-opacity="0" result="BackgroundImageFix"/>
            <feColorMatrix in="SourceAlpha" type="matrix" values="0 0 0 0 0 0 0 0 0 0 0 0 0 0 0 0 0 0 127 0" result="hardAlpha"/>
            <feOffset/>
            <feGaussianBlur stdDeviation="2"/>
            <feComposite in2="hardAlpha" operator="out"/>
            <feColorMatrix type="matrix" values="0 0 0 0 0 0 0 0 0 0 0 0 0 0 0 0 0 0 0.25 0"/>
            <feBlend mode="normal" in2="BackgroundImageFix" result="effect1_dropShadow_29_801"/>
            <feBlend mode="normal" in="SourceGraphic" in2="effect1_dropShadow_29_801" result="shape"/>
        </filter>
        <filter id="filter5_d_29_801" x="310.753" y="47.2281" width="33.9942" height="30.0283" filterUnits="userSpaceOnUse" color-interpolation-filters="sRGB">
            <feFlood flood-opacity="0" result="BackgroundImageFix"/>
            <feColorMatrix in="SourceAlpha" type="matrix" values="0 0 0 0 0 0 0 0 0 0 0 0 0 0 0 0 0 0 127 0" result="hardAlpha"/>
            <feOffset/>
            <feComposite in2="hardAlpha" operator="out"/>
            <feColorMatrix type="matrix" values="0 0 0 0 0 0 0 0 0 0 0 0 0 0 0 0 0 0 0.25 0"/>
            <feBlend mode="normal" in2="BackgroundImageFix" result="effect1_dropShadow_29_801"/>
            <feBlend mode="normal" in="SourceGraphic" in2="effect1_dropShadow_29_801" result="shape"/>
        </filter>
    </defs>
</svg>
