<svg width="231" height="158" viewBox="0 0 231 158" fill="none" xmlns="http://www.w3.org/2000/svg">
    <g filter="url(#filter0_d_38_3)">
        <path d="M212.08 18.4616C217.438 23.8821 220.049 31.3668 219.608 39.0263C219.164 46.6884 215.656 53.9406 209.904 59.1446C204.151 64.3487 196.683 67.0266 189.188 66.5462C181.697 66.0634 174.746 62.5046 170.133 56.41C170.133 56.41 170.133 56.41 170.133 56.41C170.239 56.5291 170.359 56.6605 170.386 56.6871C170.413 56.7134 170.437 56.7367 170.459 56.7573C170.502 56.7978 170.54 56.832 170.553 56.84C170.59 56.866 170.615 56.8781 170.625 56.875C170.647 56.8714 170.638 56.8354 170.623 56.7946C170.586 56.7057 170.512 56.5852 170.434 56.4663C170.271 56.2212 170.068 55.9603 169.898 55.7429C169.544 55.294 169.279 54.996 169.337 54.8712C169.394 54.7083 170.01 54.8213 171.185 54.7349C172.331 54.669 173.919 54.2245 174.801 53.6604C176.678 52.4031 175.348 52.3246 173.715 54.3593C173.014 54.9757 172.845 55.3394 172.796 54.4907C172.788 53.7357 172.318 51.3287 171.273 50.028C170.263 48.6864 169.695 48.8966 170.563 49.5669C171.373 50.2371 173.249 51.1792 175.64 51.9123C186.995 55.4122 200.281 59.5714 211.926 75.2469C217.583 83.0191 220.694 95.0279 219.151 104.841C217.779 114.716 213.702 121.96 209.621 127.632C179.424 160.186 140.671 148.687 119.825 121.18C119.807 121.153 119.788 121.126 119.769 121.098C116.062 115.758 111.074 111.377 105.66 109.292C102.994 108.278 100.149 107.811 97.9313 108.492C95.8247 109.143 93.8924 111.133 96.2562 114.626C98.8389 117.926 113.241 128.638 133.215 109.167C136.035 126.357 126.377 134.359 113.324 136.188C100.201 137.968 83.5265 132.584 68.2007 122.066C52.8749 111.547 41.6377 97.7749 38.1918 84.623C34.8165 71.5195 38.2845 59.2694 54.7907 55.3429C54.7907 55.3429 54.7907 55.3429 54.7907 55.3429C80.2414 28.4304 105.105 37.7711 116.054 43.8765C133.534 55.518 136.1 65.8877 141.217 74.174C145.642 82.5477 149.498 89.7482 154.083 96.3108C154.106 96.344 154.129 96.3772 154.153 96.4104C156.529 99.8938 160.76 102.388 165.878 102.913C168.359 103.176 170.895 102.852 172.584 102.216C174.325 101.61 174.837 100.706 174.298 101.192C175.51 99.3834 175.624 98.1025 175.384 98.7313C175.286 99.0159 175.231 99.7612 175.362 100.47C175.481 101.185 175.743 101.76 175.799 101.941C176.293 102.428 171.402 99.2122 165.287 98.2971C154.808 95.6936 140.495 91.9617 129.488 74.853C118.415 56.7084 124.232 35.4106 131.818 24.2163C136.339 17.2482 142.622 9.09014 154.514 3.6397C166.432 -2.01014 181.689 -0.433195 191.252 3.95426C199.765 7.81933 204.841 11.1199 212.08 18.4616Z" fill="#FF6600"/>
    </g>
    <g filter="url(#filter1_d_38_3)">
        <path d="M206.561 23.4548C210.436 27.5142 212.353 33.0363 212.034 38.6743C211.714 44.3137 209.159 49.6305 204.957 53.4318C200.755 57.2331 195.282 59.1793 189.767 58.819C184.253 58.4575 179.124 55.8422 175.653 51.4168C175.653 51.4168 175.653 51.4168 175.653 51.4168C175.838 51.625 175.833 51.6113 175.859 51.635C175.879 51.6523 175.887 51.6559 175.889 51.6527C175.895 51.6494 175.88 51.623 175.864 51.5967C175.834 51.5453 175.767 51.4587 175.707 51.3799C175.569 51.2058 175.407 51.0161 175.241 50.8314C174.901 50.4526 174.515 50.0668 174.155 49.7315C173.415 49.0423 172.716 48.5125 172.221 48.1716C171.615 47.7527 171.378 47.6349 171.536 47.5263C171.677 47.431 172.134 47.222 172.132 47.0788C172.197 46.704 170.215 47.7093 168.202 50.3931C167.087 51.7286 166.513 53.0031 166.324 53.4485C166.22 53.6789 166.177 53.6882 166.087 53.582C166.004 53.4797 165.857 53.2954 165.775 53.2945C165.04 53.2559 168.59 56.5882 174.277 58.0156C184.944 61.1753 197.125 65.2105 207.172 78.7593C212.058 85.4738 214.69 95.5913 213.392 104.037C212.232 112.53 208.676 118.99 204.973 124.153C179.059 152.624 142.857 142.864 124.342 117.921C124.323 117.893 124.303 117.865 124.284 117.837C120.462 112.336 115.622 107.583 110.339 104.671C107.729 103.24 104.934 102.23 102.554 102.158C100.261 102.068 98.0125 103.018 98.8612 105.317C99.4043 106.682 101.641 108.674 106.036 109.188C108.199 109.435 110.756 109.256 113.348 108.519C114.664 108.139 115.961 107.651 117.33 106.931C117.993 106.589 118.72 106.147 119.461 105.62C119.664 105.469 119.863 105.317 120.058 105.164C120.156 105.088 120.253 105.011 120.349 104.934C120.467 104.832 120.591 104.72 120.709 104.612C120.828 104.504 120.946 104.395 121.062 104.286C121.19 104.161 121.255 104.119 121.455 103.894C121.625 103.709 121.791 103.524 121.955 103.336C121.996 103.29 122.037 103.243 122.078 103.196C122.124 103.14 122.134 103.137 122.269 102.954C122.483 102.668 122.691 102.379 122.896 102.085C123.1 113.465 115.783 119.224 106.332 120.685C96.8423 122.121 85.3283 118.684 74.9908 111.589C64.6533 104.494 57.1453 94.8762 54.7868 85.3092C52.4666 75.7685 54.821 66.6042 65.1097 62.425C65.1097 62.425 65.1097 62.425 65.1097 62.425C84.5835 41.6156 104.28 48.3178 113.449 53.1857C128.127 62.3515 131.463 71.33 136.539 78.7948C141.093 86.341 145.098 93.1706 149.568 99.5724C149.591 99.6048 149.613 99.6372 149.636 99.6696C152.993 104.58 158.765 107.893 165.282 108.605C171.696 109.553 178.355 106.474 178.945 104.671C180.535 102.354 181.17 100.288 181.143 99.5352C181.145 99.1384 181.07 99.0649 181.011 98.9943C180.945 98.9273 180.865 98.7918 180.553 98.429C179.449 96.7894 173.454 93.449 166.649 92.1939C156.896 89.7685 144.214 86.0972 134.986 71.5866C125.686 56.3009 130.535 38.1499 137.331 28.1825C141.472 21.8636 147.103 14.7892 157.183 10.2214C167.275 5.49427 180.039 6.81214 188.368 10.6539C195.712 14.0014 200.423 17.1746 206.561 23.4548Z" fill="#FF8839"/>
    </g>
    <g filter="url(#filter2_d_38_3)">
        <path d="M195.656 29.2371C196.723 30.4177 197.258 31.9796 197.155 33.5689C197.052 35.1583 196.317 36.6468 195.114 37.705C193.911 38.7633 192.341 39.3026 190.751 39.2023C189.162 39.102 187.681 38.3721 186.646 37.1632C186.646 37.1632 186.646 37.1632 186.646 37.1632C184.33 34.5924 180.736 31.7971 177.384 30.2768C169.08 26.0961 160.889 30.0506 154.931 38.6768C150.664 44.5222 149.07 51.7613 152.14 57.0433C155.103 62.4817 162.365 66.0215 169.961 67.8033C179.783 70.2703 190.352 74.1217 197.447 83.7235C205.116 93.7009 201.357 108.057 194.937 116.02C176.754 137.045 143.725 131.168 129.295 110.674C129.293 110.671 129.291 110.668 129.289 110.665C121.096 99.0209 109.293 86.4285 98.4727 85.0766C96.9903 84.9882 95.9038 85.369 95.4919 85.8674C95.2765 86.1132 95.2004 86.374 95.2087 86.6098C95.2137 86.7273 95.2397 86.8415 95.3051 86.9259C95.3386 86.9671 95.3821 87.0012 95.452 87.0057C95.4913 87.0028 95.5236 87.0084 95.5924 86.9688C95.6269 86.9483 95.6516 86.94 95.7069 86.8912C95.7356 86.8653 95.7666 86.8356 95.8001 86.8016C95.8222 86.7771 95.8166 86.7912 95.8682 86.725C95.9162 86.6636 95.9694 86.5927 96.0281 86.5107C94.9695 88.9923 92.7266 90.5543 90.0894 91.0508C87.4492 91.5453 84.5786 90.8988 82.1614 89.2884C79.7443 87.678 78.042 85.2779 77.4814 82.6509C76.9238 80.026 77.5014 77.3545 79.3838 75.4217C79.3838 75.4217 79.3838 75.4217 79.3838 75.4217C87.0782 66.7634 96.817 67.9096 102.725 70.3098C120.654 79.5032 127.207 93.1649 136.654 105.493C136.656 105.496 136.658 105.499 136.661 105.502C147.325 121.869 176.083 125.155 187.442 110.572C192.639 103.581 194.3 95.2785 189.669 89.2597C185.157 83.0807 176.425 79.4109 167.725 77.4762C158.95 75.4223 148.972 71.7916 143.157 62.1789C137.287 52.3133 140.522 40.2414 146.04 32.4662C149.638 27.266 154.208 22.1897 160.96 19.2231C167.701 16.1653 175.903 16.8468 182.088 19.6373C187.359 21.974 191.553 24.975 195.656 29.2371Z" fill="#FFB774"/>
    </g>
    <path d="M21.8841 19.4453C25.1587 4.06447 68.3662 28.8299 73.3717 32.9985C78.3772 37.1671 74.2085 42.3961 70.0882 57.1153L46.5267 47.0313L36.0267 42.4849L25.0267 37.4849C25.0267 37.4849 18.6094 34.8261 21.8841 19.4453Z" fill="url(#paint0_linear_38_3)"/>
    <g filter="url(#filter3_d_38_3)">
        <path d="M60.2024 41.6635C58.3736 36.8731 19.2241 28.8886 22.3991 17.5387C25.1421 8.32479 49.7498 7.68822 61.2461 10.7173C72.7424 13.7464 106.027 25.9849 112.363 41.6635C118.699 57.3422 124.027 87.4849 114.527 122.985C105.027 158.485 34.0114 139.984 20.4587 133.836C6.90599 127.689 -9.98579 105.975 7.42763 101.282C24.841 96.5882 64.8818 96.9938 64.5145 92.4025C72.5279 67.759 62.0312 46.4538 60.2024 41.6635Z" fill="url(#paint1_linear_38_3)"/>
    </g>
    <g filter="url(#filter4_d_38_3)">
        <path d="M92.7386 97.8805C95.4748 98.253 97.3909 100.773 97.0184 103.509C96.6459 106.245 94.1258 108.162 91.3896 107.789C88.6534 107.417 86.7373 104.896 87.1098 102.16C87.4823 99.424 90.0024 97.5079 92.7386 97.8805ZM83.7744 89.5954C86.5105 89.9679 88.4267 92.488 88.0541 95.2242C87.6816 97.9604 85.1615 99.8765 82.4253 99.504C79.6891 99.1315 77.773 96.6113 78.1456 93.8752C78.5181 91.139 81.0382 89.2229 83.7744 89.5954ZM103.592 92.2935C106.328 92.666 108.244 95.1861 107.871 97.9223C107.499 100.658 104.979 102.575 102.242 102.202C99.5063 101.83 97.5902 99.3094 97.9627 96.5733C98.3353 93.8371 100.855 91.921 103.592 92.2935ZM94.6273 84.0084C97.3635 84.381 99.2796 86.9011 98.9071 89.6372C98.5345 92.3734 96.0144 94.2895 93.2782 93.917C90.5421 93.5445 88.6259 91.0244 88.9985 88.2882C89.371 85.552 91.8911 83.6359 94.6273 84.0084Z" fill="#4A4343"/>
    </g>
    <g filter="url(#filter5_d_38_3)">
        <path d="M100.195 51.3094C99.884 53.5964 101.59 55.717 104.005 56.0459C106.421 56.3748 108.127 58.4954 107.816 60.7824C107.504 63.0694 105.293 64.6568 102.878 64.3279L102.149 64.2287C100.136 63.9546 98.2936 65.2774 98.0341 67.1833C97.7746 69.0891 95.9324 70.412 93.9194 70.1379L92.4614 69.9394C90.4484 69.6653 89.0269 67.8981 89.2864 65.9923C89.5458 64.0864 88.1243 62.3193 86.1113 62.0452C84.0983 61.7711 82.6767 60.0039 82.9362 58.0981L83.1241 56.7177C83.3836 54.8119 85.2258 53.4891 87.2389 53.7631C89.2519 54.0372 91.0941 52.7144 91.3536 50.8086L91.4476 50.1184C91.7589 47.8314 93.9696 46.244 96.3853 46.5729C98.8009 46.9018 100.507 49.0224 100.195 51.3094Z" fill="#4A4343"/>
    </g>
    <defs>
        <filter id="filter0_d_38_3" x="37.0233" y="0" width="193.632" height="157.421" filterUnits="userSpaceOnUse" color-interpolation-filters="sRGB">
            <feFlood flood-opacity="0" result="BackgroundImageFix"/>
            <feColorMatrix in="SourceAlpha" type="matrix" values="0 0 0 0 0 0 0 0 0 0 0 0 0 0 0 0 0 0 127 0" result="hardAlpha"/>
            <feOffset dx="7" dy="6"/>
            <feGaussianBlur stdDeviation="2"/>
            <feComposite in2="hardAlpha" operator="out"/>
            <feColorMatrix type="matrix" values="0 0 0 0 0 0 0 0 0 0 0 0 0 0 0 0 0 0 0.25 0"/>
            <feBlend mode="normal" in2="BackgroundImageFix" result="effect1_dropShadow_38_3"/>
            <feBlend mode="normal" in="SourceGraphic" in2="effect1_dropShadow_38_3" result="shape"/>
        </filter>
        <filter id="filter1_d_38_3" x="53.9674" y="7.19122" width="170.754" height="144.316" filterUnits="userSpaceOnUse" color-interpolation-filters="sRGB">
            <feFlood flood-opacity="0" result="BackgroundImageFix"/>
            <feColorMatrix in="SourceAlpha" type="matrix" values="0 0 0 0 0 0 0 0 0 0 0 0 0 0 0 0 0 0 127 0" result="hardAlpha"/>
            <feOffset dx="7" dy="6"/>
            <feGaussianBlur stdDeviation="2"/>
            <feComposite in2="hardAlpha" operator="out"/>
            <feColorMatrix type="matrix" values="0 0 0 0 0 0 0 0 0 0 0 0 0 0 0 0 0 0 0.25 0"/>
            <feBlend mode="normal" in2="BackgroundImageFix" result="effect1_dropShadow_38_3"/>
            <feBlend mode="normal" in="SourceGraphic" in2="effect1_dropShadow_38_3" result="shape"/>
        </filter>
        <filter id="filter2_d_38_3" x="77.2784" y="17.218" width="135.448" height="121.98" filterUnits="userSpaceOnUse" color-interpolation-filters="sRGB">
            <feFlood flood-opacity="0" result="BackgroundImageFix"/>
            <feColorMatrix in="SourceAlpha" type="matrix" values="0 0 0 0 0 0 0 0 0 0 0 0 0 0 0 0 0 0 127 0" result="hardAlpha"/>
            <feOffset dx="7" dy="6"/>
            <feGaussianBlur stdDeviation="2"/>
            <feComposite in2="hardAlpha" operator="out"/>
            <feColorMatrix type="matrix" values="0 0 0 0 0 0 0 0 0 0 0 0 0 0 0 0 0 0 0.25 0"/>
            <feBlend mode="normal" in2="BackgroundImageFix" result="effect1_dropShadow_38_3"/>
            <feBlend mode="normal" in="SourceGraphic" in2="effect1_dropShadow_38_3" result="shape"/>
        </filter>
        <filter id="filter3_d_38_3" x="0" y="9.0918" width="130.696" height="145.063" filterUnits="userSpaceOnUse" color-interpolation-filters="sRGB">
            <feFlood flood-opacity="0" result="BackgroundImageFix"/>
            <feColorMatrix in="SourceAlpha" type="matrix" values="0 0 0 0 0 0 0 0 0 0 0 0 0 0 0 0 0 0 127 0" result="hardAlpha"/>
            <feOffset dx="7" dy="6"/>
            <feGaussianBlur stdDeviation="2"/>
            <feComposite in2="hardAlpha" operator="out"/>
            <feColorMatrix type="matrix" values="0 0 0 0 0 0 0 0 0 0 0 0 0 0 0 0 0 0 0.25 0"/>
            <feBlend mode="normal" in2="BackgroundImageFix" result="effect1_dropShadow_38_3"/>
            <feBlend mode="normal" in="SourceGraphic" in2="effect1_dropShadow_38_3" result="shape"/>
        </filter>
        <filter id="filter4_d_38_3" x="76.0992" y="75.9622" width="37.8184" height="31.8732" filterUnits="userSpaceOnUse" color-interpolation-filters="sRGB">
            <feFlood flood-opacity="0" result="BackgroundImageFix"/>
            <feColorMatrix in="SourceAlpha" type="matrix" values="0 0 0 0 0 0 0 0 0 0 0 0 0 0 0 0 0 0 127 0" result="hardAlpha"/>
            <feOffset dx="2" dy="-4"/>
            <feGaussianBlur stdDeviation="2"/>
            <feComposite in2="hardAlpha" operator="out"/>
            <feColorMatrix type="matrix" values="0 0 0 0 0 0 0 0 0 0 0 0 0 0 0 0 0 0 0.25 0"/>
            <feBlend mode="normal" in2="BackgroundImageFix" result="effect1_dropShadow_38_3"/>
            <feBlend mode="normal" in="SourceGraphic" in2="effect1_dropShadow_38_3" result="shape"/>
        </filter>
        <filter id="filter5_d_38_3" x="80.9056" y="38.5297" width="32.9466" height="31.6441" filterUnits="userSpaceOnUse" color-interpolation-filters="sRGB">
            <feFlood flood-opacity="0" result="BackgroundImageFix"/>
            <feColorMatrix in="SourceAlpha" type="matrix" values="0 0 0 0 0 0 0 0 0 0 0 0 0 0 0 0 0 0 127 0" result="hardAlpha"/>
            <feOffset dx="2" dy="-4"/>
            <feGaussianBlur stdDeviation="2"/>
            <feComposite in2="hardAlpha" operator="out"/>
            <feColorMatrix type="matrix" values="0 0 0 0 0 0 0 0 0 0 0 0 0 0 0 0 0 0 0.25 0"/>
            <feBlend mode="normal" in2="BackgroundImageFix" result="effect1_dropShadow_38_3"/>
            <feBlend mode="normal" in="SourceGraphic" in2="effect1_dropShadow_38_3" result="shape"/>
        </filter>
        <linearGradient id="paint0_linear_38_3" x1="44.5267" y1="22.4849" x2="31.0309" y2="55.7556" gradientUnits="userSpaceOnUse">
            <stop stop-color="#66BFFF"/>
            <stop offset="1" stop-color="#115F97"/>
        </linearGradient>
        <linearGradient id="paint1_linear_38_3" x1="33.6972" y1="101.334" x2="53.3634" y2="154.925" gradientUnits="userSpaceOnUse">
            <stop stop-color="#66BFFF"/>
            <stop offset="1" stop-color="#3D7399"/>
        </linearGradient>
    </defs>
</svg>
