<svg width="357" height="307" viewBox="0 0 357 307" fill="none" xmlns="http://www.w3.org/2000/svg">
<mask id="path-1-outside-1_29_801" maskUnits="userSpaceOnUse" x="1.52588e-05" y="177" width="103" height="103" fill="black">
<rect fill="white" x="1.52588e-05" y="177" width="103" height="103"/>
<path d="M1.28904 210.409C-0.829765 190.485 9.32095 179.695 11.5653 179.081C17.7094 178.314 28.4705 228.428 28.4705 228.428L52.5567 228.428L75.4556 228.428C75.4556 228.428 80.5407 176.675 88.0756 179.081C89.6817 179.828 102.304 186.428 100.89 201.195C99.3864 216.891 101.764 261.807 96.1835 266.801C96.0073 267.062 95.5025 267.758 94.2885 269.38C91.3762 273.27 73.3137 284.035 72.2812 274.171C63.8607 275.01 52.5567 275.357 52.5567 275.357C52.5567 275.357 42.2353 276.03 33.9068 275.357C32.8447 285.584 12.5395 271.538 11.5653 266.653C11.4786 266.588 11.4337 266.552 11.4337 266.552C11.4337 266.552 3.6189 232.319 1.28904 210.409Z"/>
</mask>
<path d="M1.28904 210.409C-0.829765 190.485 9.32095 179.695 11.5653 179.081C17.7094 178.314 28.4705 228.428 28.4705 228.428L52.5567 228.428L75.4556 228.428C75.4556 228.428 80.5407 176.675 88.0756 179.081C89.6817 179.828 102.304 186.428 100.89 201.195C99.3864 216.891 101.764 261.807 96.1835 266.801C96.0073 267.062 95.5025 267.758 94.2885 269.38C91.3762 273.27 73.3137 284.035 72.2812 274.171C63.8607 275.01 52.5567 275.357 52.5567 275.357C52.5567 275.357 42.2353 276.03 33.9068 275.357C32.8447 285.584 12.5395 271.538 11.5653 266.653C11.4786 266.588 11.4337 266.552 11.4337 266.552C11.4337 266.552 3.6189 232.319 1.28904 210.409Z" fill="white"/>
<path d="M96.0359 266.923L96.336 267.323H96.336L96.0359 266.923ZM96.1835 266.801L96.5169 267.174L96.563 267.133L96.5977 267.081L96.1835 266.801ZM96.0359 266.923L95.7357 266.523C95.7686 266.5 95.9393 266.432 96.0834 266.425C96.3892 266.569 96.5325 266.98 96.5094 267.083C96.4978 267.114 96.4773 267.157 96.47 267.171C96.4655 267.178 96.4579 267.191 96.4548 267.196C96.4527 267.199 96.4488 267.205 96.4471 267.207C96.4458 267.209 96.4435 267.212 96.4425 267.214C96.4401 267.217 96.4383 267.219 96.4371 267.221C96.4349 267.224 96.4332 267.226 96.4325 267.227C96.4316 267.228 96.4309 267.229 96.4305 267.23C96.4294 267.231 96.429 267.232 96.43 267.23C96.4317 267.228 96.4348 267.224 96.4395 267.219C96.4486 267.207 96.4619 267.191 96.4774 267.172C96.4929 267.154 96.5102 267.133 96.5273 267.113C96.5446 267.093 96.5607 267.074 96.574 267.059C96.5807 267.052 96.5858 267.046 96.5896 267.042C96.5938 267.038 96.594 267.038 96.5913 267.04C96.5898 267.042 96.5858 267.045 96.5796 267.051C96.5764 267.054 96.5719 267.057 96.5662 267.062C96.5607 267.066 96.5526 267.073 96.5423 267.08C96.5325 267.086 96.5167 267.097 96.4959 267.108C96.4852 267.114 96.4714 267.12 96.455 267.127C96.4388 267.134 96.417 267.142 96.3905 267.149C96.3645 267.156 96.3285 267.164 96.2851 267.166C96.2416 267.168 96.1843 267.164 96.1205 267.145C96.0883 267.136 96.0551 267.122 96.022 267.104C95.9889 267.086 95.9576 267.064 95.9289 267.038C95.9003 267.012 95.8759 266.984 95.8555 266.955C95.8352 266.926 95.8194 266.897 95.8073 266.87C95.7834 266.816 95.7729 266.767 95.7682 266.731C95.7635 266.694 95.7637 266.662 95.7651 266.639C95.7665 266.615 95.7694 266.595 95.7722 266.58C95.775 266.564 95.7782 266.551 95.781 266.541C95.7864 266.52 95.7921 266.504 95.7959 266.495C95.8 266.484 95.8036 266.476 95.8062 266.47C95.8112 266.459 95.8151 266.452 95.8163 266.45C95.8178 266.447 95.8183 266.446 95.8175 266.447C95.8156 266.451 95.811 266.458 95.8025 266.471C95.7942 266.484 95.7833 266.501 95.7693 266.521L96.1835 266.801L96.5977 267.081C96.63 267.034 96.6576 266.991 96.6782 266.957C96.6874 266.941 96.7025 266.915 96.7162 266.885C96.7223 266.871 96.7359 266.84 96.7467 266.8C96.7521 266.78 96.7606 266.744 96.7634 266.698C96.7657 266.658 96.7668 266.567 96.7208 266.463C96.696 266.408 96.6571 266.348 96.5986 266.295C96.5395 266.242 96.4725 266.207 96.4062 266.187C96.2821 266.15 96.179 266.171 96.1335 266.183C96.0826 266.197 96.0446 266.215 96.0246 266.226C96.0025 266.238 95.9851 266.249 95.9737 266.257C95.9352 266.284 95.9064 266.311 95.8976 266.32C95.8723 266.344 95.8469 266.372 95.8283 266.393C95.788 266.438 95.7417 266.493 95.7077 266.534C95.6902 266.555 95.6749 266.574 95.6638 266.588C95.6583 266.594 95.6534 266.6 95.6496 266.605C95.648 266.607 95.6455 266.61 95.643 266.613C95.6423 266.614 95.6389 266.619 95.6349 266.624C95.6348 266.624 95.6263 266.635 95.6169 266.65C95.6138 266.655 95.6062 266.667 95.6017 266.675C95.5944 266.688 95.5739 266.731 95.5623 266.762C95.5392 266.865 95.6825 267.276 95.9883 267.42C96.1324 267.413 96.3031 267.345 96.336 267.323L96.0359 266.923ZM96.1835 266.801L95.8501 266.429C95.8116 266.463 95.7735 266.494 95.7357 266.523L96.0359 266.923L96.336 267.323C96.3979 267.276 96.4582 267.226 96.5169 267.174L96.1835 266.801ZM1.28904 210.409L0.294647 210.515V210.515L1.28904 210.409ZM11.5653 179.081L11.4413 178.089L11.3704 178.098L11.3015 178.117L11.5653 179.081ZM11.4337 266.552L10.4588 266.775C10.5096 266.997 10.6349 267.195 10.814 267.337L11.4337 266.552ZM11.5653 266.653L12.546 266.458L12.472 266.087L12.1709 265.858L11.5653 266.653ZM33.9068 275.357L33.9874 274.36L33.0131 274.281L32.9121 275.253L33.9068 275.357ZM52.5567 275.357L52.5261 274.357C52.5146 274.358 52.5031 274.358 52.4917 274.359L52.5567 275.357ZM72.2812 274.171L73.2758 274.067L73.1722 273.077L72.182 273.176L72.2812 274.171ZM94.2885 269.38L95.089 269.979H95.089L94.2885 269.38ZM96.1835 266.801L95.5167 266.056L95.4244 266.139L95.3551 266.241L96.1835 266.801ZM100.89 201.195L99.8942 201.1V201.1L100.89 201.195ZM88.0756 179.081L88.4971 178.175L88.4399 178.148L88.3798 178.129L88.0756 179.081ZM75.4556 228.428V229.428H76.3622L76.4508 228.526L75.4556 228.428ZM52.5567 228.428V229.428V229.428V228.428ZM28.4705 228.428L27.4928 228.638L27.6624 229.428H28.4705V228.428ZM1.28904 210.409L2.28343 210.304C1.2446 200.535 3.21568 193.043 5.69075 187.94C6.9301 185.385 8.29432 183.431 9.46712 182.092C10.0542 181.422 10.5851 180.915 11.0192 180.566C11.4812 180.194 11.7537 180.067 11.829 180.046L11.5653 179.081L11.3015 178.117C10.8158 178.25 10.2801 178.594 9.76571 179.007C9.22339 179.443 8.6096 180.036 7.96255 180.775C6.66709 182.254 5.20525 184.358 3.89123 187.067C1.25954 192.494 -0.785324 200.359 0.294647 210.515L1.28904 210.409ZM11.4337 266.552C12.4086 266.33 12.4086 266.329 12.4086 266.329C12.4085 266.329 12.4084 266.329 12.4083 266.328C12.4081 266.327 12.4077 266.326 12.4073 266.324C12.4064 266.319 12.405 266.313 12.4031 266.305C12.3994 266.289 12.3938 266.264 12.3864 266.232C12.3717 266.167 12.3497 266.07 12.3208 265.942C12.2632 265.687 12.1783 265.309 12.0694 264.821C11.8516 263.844 11.5377 262.423 11.1536 260.649C10.3855 257.102 9.33702 252.143 8.2159 246.502C5.97195 235.21 3.44333 221.211 2.28343 210.304L1.28904 210.409L0.294647 210.515C1.46461 221.517 4.00833 235.59 6.25426 246.892C7.37807 252.547 8.42895 257.516 9.1989 261.072C9.5839 262.85 9.8987 264.275 10.1173 265.256C10.2267 265.746 10.3119 266.126 10.3699 266.382C10.3989 266.511 10.4211 266.609 10.4361 266.675C10.4435 266.708 10.4492 266.732 10.453 266.749C10.4549 266.758 10.4563 266.764 10.4573 266.768C10.4578 266.77 10.4582 266.772 10.4584 266.773C10.4585 266.773 10.4586 266.774 10.4587 266.774C10.4588 266.774 10.4588 266.775 11.4337 266.552ZM11.5653 266.653L12.1709 265.858C12.1301 265.827 12.0996 265.803 12.0799 265.788C12.07 265.78 12.0629 265.775 12.0584 265.771C12.0562 265.769 12.0547 265.768 12.0539 265.768C12.0535 265.767 12.0532 265.767 12.0532 265.767C12.0531 265.767 12.0531 265.767 12.0532 265.767C12.0532 265.767 12.0532 265.767 12.0533 265.767C12.0533 265.767 12.0533 265.767 12.0534 265.767C12.0534 265.767 12.0534 265.767 12.0534 265.767C12.0534 265.767 12.0534 265.767 12.0534 265.767C12.0535 265.767 12.0535 265.767 11.4337 266.552C10.814 267.337 10.814 267.337 10.814 267.337C10.814 267.337 10.814 267.337 10.814 267.337C10.8141 267.337 10.8141 267.337 10.8141 267.337C10.8141 267.337 10.8142 267.337 10.8142 267.337C10.8143 267.337 10.8144 267.337 10.8145 267.337C10.8148 267.337 10.815 267.338 10.8153 267.338C10.816 267.338 10.8168 267.339 10.8178 267.34C10.8197 267.341 10.8224 267.343 10.8257 267.346C10.8324 267.351 10.8419 267.359 10.8541 267.368C10.8785 267.387 10.9138 267.414 10.9597 267.449L11.5653 266.653ZM33.9068 275.357L32.9121 275.253C32.7975 276.357 32.4409 276.996 32.0177 277.372C31.5888 277.753 30.961 277.98 30.0831 277.999C28.28 278.038 25.8005 277.191 23.1738 275.79C20.5812 274.407 17.9843 272.56 15.9853 270.768C14.9857 269.872 14.153 269.005 13.5491 268.233C12.9251 267.436 12.6208 266.833 12.546 266.458L11.5653 266.653L10.5846 266.849C10.7533 267.695 11.2967 268.6 11.9738 269.466C12.6709 270.357 13.5927 271.309 14.6504 272.257C16.7657 274.153 19.4942 276.094 22.2325 277.555C24.9366 278.997 27.7933 280.049 30.1267 279.998C31.317 279.972 32.4574 279.656 33.346 278.867C34.2404 278.073 34.7505 276.913 34.9015 275.46L33.9068 275.357ZM52.5567 275.357C52.4917 274.359 52.4917 274.359 52.4917 274.359C52.4916 274.359 52.4915 274.359 52.4914 274.359C52.4912 274.359 52.4908 274.359 52.4902 274.359C52.4891 274.359 52.4874 274.359 52.4851 274.359C52.4804 274.36 52.4732 274.36 52.4637 274.361C52.4445 274.362 52.4157 274.364 52.3775 274.366C52.3012 274.371 52.1876 274.378 52.0398 274.386C51.7442 274.403 51.3116 274.426 50.766 274.453C49.6748 274.505 48.1327 274.568 46.3317 274.609C42.7238 274.693 38.101 274.693 33.9874 274.36L33.9068 275.357L33.8262 276.354C38.0411 276.694 42.7433 276.693 46.3782 276.609C48.1986 276.567 49.7574 276.503 50.8617 276.45C51.414 276.424 51.8528 276.4 52.1541 276.383C52.3048 276.374 52.4211 276.367 52.5001 276.362C52.5395 276.36 52.5697 276.358 52.5901 276.357C52.6003 276.356 52.6081 276.356 52.6134 276.355C52.616 276.355 52.6181 276.355 52.6195 276.355C52.6202 276.355 52.6207 276.355 52.6211 276.355C52.6213 276.355 52.6215 276.355 52.6216 276.355C52.6217 276.355 52.6218 276.355 52.5567 275.357ZM72.2812 274.171L72.182 273.176C67.9967 273.593 63.0851 273.889 59.2119 274.08C57.2771 274.175 55.6047 274.245 54.4163 274.29C53.8221 274.313 53.3491 274.33 53.0248 274.341C52.8626 274.346 52.7377 274.35 52.6534 274.353C52.6113 274.355 52.5793 274.356 52.558 274.356C52.5473 274.357 52.5393 274.357 52.5339 274.357C52.5313 274.357 52.5293 274.357 52.528 274.357C52.5273 274.357 52.5268 274.357 52.5265 274.357C52.5264 274.357 52.5263 274.357 52.5262 274.357C52.5261 274.357 52.5261 274.357 52.5567 275.357C52.5874 276.356 52.5874 276.356 52.5876 276.356C52.5877 276.356 52.5878 276.356 52.588 276.356C52.5884 276.356 52.5889 276.356 52.5896 276.356C52.5911 276.356 52.5932 276.356 52.596 276.356C52.6016 276.356 52.6099 276.356 52.6209 276.355C52.6428 276.355 52.6753 276.354 52.7181 276.352C52.8035 276.349 52.9296 276.345 53.093 276.34C53.4198 276.329 53.8956 276.312 54.4928 276.289C55.687 276.243 57.3669 276.173 59.3106 276.077C63.1945 275.886 68.1452 275.588 72.3804 275.166L72.2812 274.171ZM72.2812 274.171L71.2866 274.275C71.4325 275.668 71.8917 276.801 72.6722 277.638C73.4535 278.477 74.4739 278.931 75.5798 279.117C77.7381 279.48 80.3935 278.855 82.9418 277.866C85.5257 276.863 88.1523 275.424 90.3182 273.991C92.4534 272.578 94.2518 271.097 95.089 269.979L94.2885 269.38L93.4879 268.781C92.869 269.607 91.3175 270.931 89.2146 272.323C87.1424 273.694 84.6429 275.06 82.218 276.001C79.7576 276.956 77.5218 277.416 75.9119 277.145C75.1337 277.014 74.5509 276.721 74.1354 276.275C73.7191 275.828 73.388 275.139 73.2758 274.067L72.2812 274.171ZM96.1835 266.801L95.3551 266.241C95.1953 266.478 94.7067 267.152 93.4879 268.781L94.2885 269.38L95.089 269.979C96.2984 268.364 96.8194 267.646 97.0119 267.361L96.1835 266.801ZM100.89 201.195L99.8942 201.1C99.138 208.996 99.3553 224.252 99.0659 237.99C98.9205 244.893 98.6481 251.428 98.0682 256.538C97.7781 259.095 97.4142 261.264 96.9614 262.93C96.4935 264.652 95.9789 265.642 95.5167 266.056L96.1835 266.801L96.8503 267.547C97.7833 266.712 98.4153 265.206 98.8914 263.455C99.3826 261.647 99.7603 259.365 100.055 256.764C100.646 251.557 100.92 244.945 101.065 238.033C101.358 224.141 101.138 209.091 101.885 201.291L100.89 201.195ZM88.0756 179.081L87.654 179.988C88.3834 180.327 91.8094 182.092 94.8668 185.544C97.9051 188.974 100.569 194.051 99.8942 201.1L100.89 201.195L101.885 201.291C102.624 193.573 99.6847 187.966 96.3639 184.218C93.0622 180.491 89.3739 178.582 88.4971 178.175L88.0756 179.081ZM88.0756 179.081L88.3798 178.129C86.7769 177.617 85.4752 178.664 84.5607 179.923C83.6104 181.232 82.7552 183.172 81.9782 185.454C80.4159 190.044 79.0634 196.351 77.955 202.68C76.8445 209.021 75.971 215.433 75.3754 220.257C75.0775 222.669 74.8489 224.686 74.6947 226.101C74.6176 226.808 74.5591 227.365 74.5198 227.745C74.5002 227.935 74.4854 228.081 74.4755 228.18C74.4705 228.229 74.4667 228.266 74.4642 228.292C74.463 228.304 74.462 228.314 74.4614 228.32C74.4611 228.324 74.4608 228.326 74.4607 228.328C74.4606 228.329 74.4605 228.329 74.4605 228.33C74.4604 228.33 74.4604 228.33 75.4556 228.428C76.4508 228.526 76.4508 228.526 76.4509 228.525C76.4509 228.525 76.4509 228.525 76.451 228.524C76.4512 228.522 76.4514 228.52 76.4517 228.517C76.4523 228.511 76.4532 228.502 76.4544 228.49C76.4568 228.465 76.4605 228.428 76.4654 228.38C76.4752 228.283 76.4898 228.139 76.5093 227.95C76.5482 227.574 76.6063 227.021 76.6829 226.317C76.8363 224.911 77.0638 222.904 77.3603 220.502C77.9537 215.697 78.8224 209.321 79.925 203.025C81.0297 196.717 82.3612 190.536 83.8716 186.099C84.631 183.868 85.4092 182.159 86.1792 181.098C86.9851 179.988 87.4905 179.944 87.7714 180.034L88.0756 179.081ZM75.4556 228.428V227.428L52.5567 227.428V228.428V229.428L75.4556 229.428V228.428ZM52.5567 228.428V227.428L28.4705 227.428V228.428V229.428L52.5567 229.428V228.428ZM28.4705 228.428C29.4482 228.218 29.4482 228.218 29.4481 228.218C29.448 228.217 29.4478 228.216 29.4477 228.216C29.4473 228.214 29.4468 228.212 29.4461 228.209C29.4448 228.202 29.4428 228.193 29.4402 228.181C29.4349 228.157 29.4271 228.12 29.4167 228.073C29.3961 227.977 29.3653 227.836 29.325 227.652C29.2444 227.283 29.1255 226.744 28.972 226.058C28.665 224.686 28.2198 222.728 27.6664 220.38C26.5598 215.687 25.0193 209.433 23.2853 203.199C21.5536 196.973 19.6201 190.736 17.7247 186.09C16.7799 183.775 15.8243 181.803 14.8825 180.419C14.4132 179.729 13.9147 179.136 13.3829 178.721C12.8525 178.307 12.1888 177.996 11.4413 178.089L11.5653 179.081L11.6893 180.074C11.7098 180.071 11.8502 180.062 12.1525 180.297C12.4533 180.532 12.816 180.937 13.2289 181.544C14.0517 182.753 14.9447 184.571 15.8729 186.846C17.7232 191.381 19.6319 197.528 21.3585 203.735C23.0828 209.934 24.6166 216.16 25.7198 220.839C26.2712 223.178 26.7147 225.129 27.0202 226.495C27.173 227.177 27.2913 227.714 27.3713 228.079C27.4113 228.262 27.4417 228.402 27.4621 228.496C27.4723 228.543 27.48 228.579 27.4852 228.603C27.4877 228.615 27.4896 228.624 27.4909 228.629C27.4916 228.632 27.492 228.635 27.4923 228.636C27.4925 228.637 27.4926 228.637 27.4927 228.638C27.4928 228.638 27.4928 228.638 28.4705 228.428Z" fill="black" mask="url(#path-1-outside-1_29_801)"/>
<mask id="path-3-outside-2_29_801" maskUnits="userSpaceOnUse" x="14" y="-7.62939e-06" width="148" height="103" fill="black">
<rect fill="white" x="14" y="-7.62939e-06" width="148" height="103"/>
<path d="M159.584 69.5906C162.635 89.5151 148.018 100.305 144.786 100.919C135.939 101.686 120.443 51.5718 120.443 51.5718L85.7583 51.5718L52.784 51.5718C52.784 51.5718 45.4615 103.325 34.6112 100.919C32.2983 100.172 14.1222 93.5716 16.1589 78.8047C18.3237 63.1087 14.8993 18.1927 22.9358 13.1986C23.1895 12.9381 23.9164 12.242 25.6646 10.6202C29.8583 6.72977 55.8683 -4.0355 57.3551 5.82923C69.4807 4.98964 85.7583 4.6432 85.7583 4.6432C85.7583 4.6432 100.621 3.97004 112.614 4.6432C114.144 -5.58401 143.383 8.4615 144.786 13.3465C144.911 13.4125 144.975 13.4479 144.975 13.4479C144.975 13.4479 156.229 47.6814 159.584 69.5906Z"/>
</mask>
<path d="M159.584 69.5906C162.635 89.5151 148.018 100.305 144.786 100.919C135.939 101.686 120.443 51.5718 120.443 51.5718L85.7583 51.5718L52.784 51.5718C52.784 51.5718 45.4615 103.325 34.6112 100.919C32.2983 100.172 14.1222 93.5716 16.1589 78.8047C18.3237 63.1087 14.8993 18.1927 22.9358 13.1986C23.1895 12.9381 23.9164 12.242 25.6646 10.6202C29.8583 6.72977 55.8683 -4.0355 57.3551 5.82923C69.4807 4.98964 85.7583 4.6432 85.7583 4.6432C85.7583 4.6432 100.621 3.97004 112.614 4.6432C114.144 -5.58401 143.383 8.4615 144.786 13.3465C144.911 13.4125 144.975 13.4479 144.975 13.4479C144.975 13.4479 156.229 47.6814 159.584 69.5906Z" fill="white"/>
<path d="M23.1484 13.0773L22.9173 12.6339L22.9173 12.6339L23.1484 13.0773ZM22.9358 13.1986L22.6719 12.774L22.6201 12.8062L22.5776 12.8498L22.9358 13.1986ZM23.1484 13.0773L23.3795 13.5207C23.3501 13.5348 23.2191 13.5723 23.1153 13.5762C22.8079 13.4434 22.6546 12.9988 22.6991 12.858C22.7184 12.8221 22.7512 12.7736 22.7623 12.7596C22.7687 12.752 22.7794 12.7399 22.7837 12.7353C22.7916 12.7269 22.798 12.7206 22.8002 12.7185C22.8032 12.7156 22.8056 12.7133 22.807 12.712C22.8098 12.7094 22.812 12.7074 22.8129 12.7066C22.814 12.7056 22.8148 12.7049 22.8152 12.7045C22.8165 12.7034 22.8168 12.7031 22.8152 12.7045C22.8126 12.7067 22.8079 12.7108 22.8011 12.7166C22.7877 12.728 22.7683 12.7445 22.7458 12.7634C22.6995 12.8021 22.6451 12.8468 22.6035 12.8792C22.5934 12.887 22.5851 12.8933 22.5786 12.8981C22.5717 12.9033 22.5691 12.9049 22.5701 12.9043C22.5706 12.904 22.5739 12.9018 22.5792 12.8986C22.5836 12.8959 22.5954 12.889 22.6122 12.8809C22.6208 12.8767 22.6343 12.8706 22.6513 12.8643C22.6671 12.8584 22.6953 12.8489 22.7319 12.8421C22.7508 12.8386 22.7761 12.8351 22.8061 12.8342C22.8358 12.8332 22.8759 12.8347 22.9222 12.8442C22.9691 12.854 23.0267 12.873 23.0856 12.9099C23.1462 12.9478 23.1998 12.9996 23.2407 13.0633C23.2807 13.1258 23.3015 13.1886 23.3114 13.2424C23.321 13.295 23.3206 13.3405 23.3177 13.3742C23.3148 13.4082 23.3089 13.4365 23.3034 13.4574C23.2978 13.4786 23.2917 13.4964 23.2864 13.5099C23.2763 13.5363 23.2658 13.5563 23.2593 13.5681C23.2524 13.5807 23.2462 13.5906 23.242 13.5969C23.2339 13.6093 23.2275 13.6175 23.2257 13.6198C23.2234 13.6228 23.2225 13.6237 23.2238 13.6222C23.2266 13.619 23.2333 13.6114 23.2457 13.598C23.2578 13.585 23.2737 13.5683 23.294 13.5474L22.9358 13.1986L22.5776 12.8498C22.5313 12.8973 22.492 12.9392 22.4626 12.9738C22.4497 12.9889 22.4271 13.016 22.4059 13.0483C22.397 13.0619 22.3733 13.0986 22.3538 13.1492C22.3441 13.1742 22.3269 13.2239 22.3213 13.2893C22.3159 13.3529 22.318 13.477 22.3989 13.6031C22.4876 13.7415 22.6192 13.8027 22.7195 13.8235C22.8082 13.8418 22.8801 13.8317 22.9135 13.8255C22.981 13.813 23.0307 13.7892 23.0449 13.7824C23.0829 13.7642 23.1135 13.7439 23.126 13.7356C23.1574 13.7145 23.1906 13.6894 23.2172 13.6687C23.2735 13.625 23.339 13.5709 23.3878 13.5301C23.4127 13.5092 23.4345 13.4907 23.4503 13.4772C23.4581 13.4706 23.4649 13.4647 23.4702 13.4602C23.4725 13.4582 23.4758 13.4553 23.479 13.4525C23.4799 13.4517 23.4842 13.4478 23.4893 13.4431C23.4908 13.4417 23.4933 13.4393 23.4964 13.4363C23.4986 13.4342 23.5052 13.4278 23.5131 13.4193C23.5174 13.4147 23.5281 13.4026 23.5345 13.395C23.5456 13.381 23.5784 13.3325 23.5978 13.2965C23.6422 13.1558 23.489 12.7112 23.1815 12.5784C23.0777 12.5823 22.9467 12.6197 22.9173 12.6339L23.1484 13.0773ZM22.9358 13.1986L23.1997 13.6233C23.2593 13.5863 23.3192 13.5521 23.3795 13.5207L23.1484 13.0773L22.9173 12.6339C22.8341 12.6773 22.7523 12.724 22.6719 12.774L22.9358 13.1986ZM159.584 69.5906L158.595 69.7419V69.7419L159.584 69.5906ZM144.786 100.919L144.872 101.915L144.923 101.91L144.973 101.901L144.786 100.919ZM144.975 13.4479L145.925 13.1356C145.846 12.8948 145.679 12.693 145.456 12.5711L144.975 13.4479ZM144.786 13.3465L143.825 13.6225L143.942 14.0317L144.319 14.2306L144.786 13.3465ZM112.614 4.6432L112.558 5.64163L113.468 5.69272L113.603 4.7911L112.614 4.6432ZM85.7583 4.6432L85.7796 5.64297C85.7876 5.64281 85.7956 5.64254 85.8036 5.64218L85.7583 4.6432ZM57.3551 5.82923L56.3663 5.97826L56.5038 6.89057L57.4242 6.82684L57.3551 5.82923ZM25.6646 10.6202L24.9845 9.88705L24.9845 9.88706L25.6646 10.6202ZM22.9358 13.1986L23.4636 14.048L23.5672 13.9836L23.6523 13.8962L22.9358 13.1986ZM16.1589 78.8047L17.1495 78.9413L16.1589 78.8047ZM34.6112 100.919L34.304 101.87L34.3488 101.885L34.3947 101.895L34.6112 100.919ZM52.784 51.5718V50.5718H51.9155L51.7938 51.4317L52.784 51.5718ZM85.7583 51.5718V50.5718V50.5718V51.5718ZM120.443 51.5718L121.398 51.2764L121.18 50.5718H120.443V51.5718ZM159.584 69.5906L158.595 69.7419C160.077 79.4158 157.272 86.8392 153.721 91.9236C151.941 94.4718 149.975 96.4307 148.269 97.783C147.416 98.4593 146.637 98.9777 145.987 99.3405C145.319 99.7139 144.847 99.8891 144.599 99.9362L144.786 100.919L144.973 101.901C145.533 101.795 146.225 101.499 146.963 101.087C147.719 100.664 148.588 100.083 149.512 99.3502C151.361 97.8842 153.464 95.7852 155.361 93.0687C159.164 87.6237 162.142 79.6899 160.572 69.4392L159.584 69.5906ZM144.975 13.4479C144.025 13.7602 144.026 13.7603 144.026 13.7605C144.026 13.7607 144.026 13.7611 144.026 13.7616C144.026 13.7626 144.027 13.7641 144.027 13.7661C144.029 13.7701 144.031 13.7762 144.033 13.7843C144.039 13.8006 144.047 13.8251 144.057 13.8575C144.079 13.9225 144.11 14.0194 144.152 14.1469C144.235 14.4018 144.357 14.7791 144.513 15.2674C144.827 16.2438 145.279 17.664 145.832 19.4369C146.937 22.983 148.446 27.9391 150.06 33.5784C153.291 44.8693 156.928 58.8538 158.595 69.7419L159.584 69.5906L160.572 69.4392C158.885 58.4182 155.217 44.3313 151.983 33.0282C150.364 27.3705 148.85 22.3989 147.741 18.8416C147.186 17.0628 146.733 15.6373 146.418 14.656C146.26 14.1654 146.137 13.7858 146.054 13.5286C146.012 13.4 145.98 13.302 145.958 13.2361C145.948 13.2031 145.939 13.1781 145.934 13.1613C145.931 13.1529 145.929 13.1465 145.928 13.1423C145.927 13.1401 145.926 13.1385 145.926 13.1374C145.926 13.1368 145.926 13.1364 145.926 13.1361C145.926 13.1358 145.925 13.1356 144.975 13.4479ZM144.786 13.3465L144.319 14.2306C144.379 14.2623 144.424 14.2865 144.453 14.3024C144.468 14.3103 144.479 14.3162 144.486 14.3199C144.489 14.3218 144.492 14.3232 144.493 14.324C144.494 14.3244 144.494 14.3246 144.495 14.3248C144.495 14.3248 144.495 14.3249 144.495 14.3249C144.495 14.3249 144.495 14.3248 144.495 14.3248C144.495 14.3248 144.495 14.3248 144.495 14.3248C144.495 14.3248 144.495 14.3248 144.495 14.3248C144.495 14.3248 144.495 14.3248 144.495 14.3248C144.495 14.3247 144.495 14.3247 144.975 13.4479C145.456 12.5711 145.456 12.5711 145.456 12.5711C145.456 12.5711 145.456 12.5711 145.456 12.5711C145.456 12.5711 145.456 12.5711 145.456 12.571C145.456 12.571 145.456 12.571 145.456 12.571C145.456 12.5709 145.456 12.5708 145.456 12.5708C145.455 12.5706 145.455 12.5705 145.455 12.5702C145.454 12.5698 145.453 12.5693 145.452 12.5686C145.449 12.5672 145.446 12.5652 145.441 12.5628C145.432 12.5578 145.419 12.5507 145.402 12.5415C145.368 12.5232 145.318 12.4966 145.253 12.4624L144.786 13.3465ZM112.614 4.6432L113.603 4.7911C113.752 3.79614 114.212 3.158 114.903 2.73158C115.638 2.27821 116.708 2.02257 118.104 2.00142C120.898 1.95911 124.602 2.85854 128.4 4.2655C132.178 5.66491 135.951 7.52972 138.854 9.33652C140.307 10.2408 141.519 11.1169 142.4 11.8984C143.326 12.7205 143.735 13.3103 143.825 13.6225L144.786 13.3465L145.747 13.0705C145.486 12.1614 144.675 11.2437 143.727 10.4027C142.734 9.52097 141.42 8.57824 139.911 7.63858C136.889 5.75754 132.994 3.83424 129.095 2.39005C125.217 0.953407 121.237 -0.046257 118.074 0.00164795C116.492 0.0256119 115.015 0.312401 113.853 1.02939C112.647 1.77332 111.859 2.93346 111.625 4.49531L112.614 4.6432ZM85.7583 4.6432C85.8036 5.64218 85.8036 5.64218 85.8037 5.64217C85.8038 5.64217 85.8039 5.64217 85.8041 5.64216C85.8045 5.64214 85.8051 5.64211 85.806 5.64207C85.8077 5.642 85.8103 5.64188 85.8137 5.64172C85.8207 5.64141 85.8312 5.64095 85.8453 5.64033C85.8733 5.63909 85.9153 5.63726 85.9708 5.6349C86.0816 5.63017 86.2462 5.62331 86.4601 5.61481C86.888 5.59779 87.5132 5.5742 88.3013 5.54799C89.8775 5.49554 92.1044 5.4326 94.705 5.39064C99.9105 5.30664 106.597 5.30703 112.558 5.64163L112.614 4.6432L112.67 3.64478C106.639 3.30621 99.897 3.3066 94.6728 3.3909C92.0586 3.43308 89.8201 3.49635 88.2348 3.5491C87.4421 3.57547 86.8125 3.59921 86.3807 3.61639C86.1647 3.62497 85.9983 3.63191 85.8856 3.63672C85.8292 3.63912 85.7863 3.64098 85.7574 3.64226C85.7429 3.6429 85.7319 3.64338 85.7245 3.64371C85.7208 3.64388 85.718 3.644 85.7161 3.64409C85.7152 3.64413 85.7144 3.64417 85.7139 3.64419C85.7137 3.6442 85.7135 3.64421 85.7133 3.64422C85.7132 3.64423 85.7131 3.64423 85.7583 4.6432ZM57.3551 5.82923L57.4242 6.82684C63.4696 6.40826 70.5567 6.11221 76.1381 5.92078C78.9276 5.82511 81.3386 5.75565 83.052 5.7101C83.9088 5.68733 84.591 5.67054 85.0589 5.65945C85.2929 5.6539 85.4732 5.64978 85.595 5.64705C85.6559 5.64568 85.7021 5.64466 85.7331 5.64398C85.7486 5.64365 85.7603 5.64339 85.768 5.64323C85.7719 5.64314 85.7748 5.64308 85.7768 5.64304C85.7777 5.64302 85.7785 5.64301 85.7789 5.64299C85.7792 5.64299 85.7793 5.64298 85.7794 5.64298C85.7796 5.64297 85.7796 5.64297 85.7583 4.6432C85.737 3.64343 85.737 3.64343 85.7368 3.64343C85.7367 3.64344 85.7365 3.64344 85.7362 3.64345C85.7357 3.64346 85.7349 3.64348 85.7339 3.64349C85.7319 3.64354 85.7289 3.64361 85.7249 3.64369C85.717 3.64386 85.7051 3.64412 85.6894 3.64446C85.6581 3.64515 85.6114 3.64618 85.5501 3.64755C85.4275 3.6503 85.2463 3.65444 85.0115 3.66001C84.5419 3.67114 83.8577 3.68798 82.9989 3.71081C81.2814 3.75645 78.8652 3.82607 76.0695 3.92196C70.4807 4.11365 63.3662 4.41061 57.286 4.83162L57.3551 5.82923ZM57.3551 5.82923L58.344 5.6802C58.1201 4.19511 57.4161 3.04623 56.3361 2.24142C55.2843 1.45763 53.9399 1.04625 52.4821 0.875809C49.5785 0.536331 45.9095 1.11835 42.2647 2.10101C38.5966 3.08993 34.853 4.51261 31.7589 5.93445C28.7044 7.33804 26.1609 8.79575 24.9845 9.88705L25.6646 10.6202L26.3447 11.3533C27.2652 10.4994 29.5456 9.15255 32.594 7.75175C35.6026 6.36919 39.2408 4.98766 42.7853 4.03205C46.3531 3.07018 49.7274 2.56737 52.2499 2.86228C53.5051 3.00904 54.4694 3.34466 55.141 3.84512C55.7844 4.32455 56.2184 4.99717 56.3663 5.97826L57.3551 5.82923ZM22.9358 13.1986L23.6523 13.8962C23.8844 13.6579 24.5902 12.9809 26.3447 11.3533L25.6646 10.6202L24.9845 9.88706C23.2426 11.503 22.4946 12.2183 22.2193 12.501L22.9358 13.1986ZM16.1589 78.8047L17.1495 78.9413C17.7003 74.9479 17.892 69.1377 18.0008 62.6511C18.1101 56.1354 18.1357 48.9185 18.345 42.0188C18.5543 35.1183 18.9462 28.6002 19.7779 23.5105C20.194 20.9638 20.714 18.8158 21.3573 17.1721C22.012 15.4992 22.7369 14.4996 23.4636 14.048L22.9358 13.1986L22.408 12.3493C21.1256 13.1462 20.1995 14.6427 19.4948 16.4433C18.7787 18.2731 18.2308 20.5762 17.804 23.1879C16.9499 28.415 16.5557 35.0433 16.3459 41.9581C16.1362 48.8736 16.1097 56.1409 16.0011 62.6175C15.8919 69.1232 15.6999 74.8135 15.1683 78.6681L16.1589 78.8047ZM34.6112 100.919L34.9184 99.967C33.8124 99.6099 28.8166 97.8174 24.3709 94.3322C19.9291 90.8501 16.2004 85.8231 17.1495 78.9413L16.1589 78.8047L15.1683 78.6681C14.0807 86.5532 18.4217 92.2098 23.137 95.9062C27.8484 99.5997 33.0971 101.481 34.304 101.87L34.6112 100.919ZM34.6112 100.919L34.3947 101.895C36.1992 102.295 37.8259 101.525 39.1985 100.212C40.5617 98.9078 41.7996 96.9618 42.9261 94.6635C45.1857 90.0535 47.1384 83.7277 48.7361 77.3921C50.3374 71.0421 51.5965 64.623 52.4549 59.7957C52.8842 57.381 53.2137 55.362 53.436 53.946C53.5472 53.2379 53.6316 52.6805 53.6882 52.2996C53.7165 52.1091 53.7379 51.9627 53.7523 51.8637C53.7595 51.8142 53.7649 51.7765 53.7685 51.7511C53.7703 51.7384 53.7717 51.7287 53.7726 51.7222C53.7731 51.7189 53.7735 51.7164 53.7737 51.7147C53.7738 51.7139 53.7739 51.7132 53.774 51.7127C53.7741 51.7122 53.7741 51.7119 52.784 51.5718C51.7938 51.4317 51.7938 51.4318 51.7938 51.4321C51.7937 51.4325 51.7937 51.433 51.7936 51.4337C51.7933 51.4351 51.793 51.4374 51.7926 51.4403C51.7918 51.4463 51.7905 51.4554 51.7887 51.4676C51.7852 51.4919 51.78 51.5284 51.773 51.5768C51.759 51.6734 51.7379 51.8174 51.71 52.0054C51.654 52.3814 51.5705 52.9335 51.4602 53.6358C51.2397 55.0406 50.9124 57.0461 50.4857 59.4456C49.632 64.2468 48.3824 70.6156 46.7968 76.9031C45.2076 83.205 43.2953 89.3662 41.1302 93.7832C40.0445 95.9984 38.9301 97.7008 37.8161 98.7665C36.7114 99.8232 35.7358 100.144 34.8277 99.9423L34.6112 100.919ZM52.784 51.5718V52.5718L85.7583 52.5718V51.5718V50.5718L52.784 50.5718V51.5718ZM85.7583 51.5718V52.5718L120.443 52.5718V51.5718V50.5718L85.7583 50.5718V51.5718ZM120.443 51.5718C119.487 51.8673 119.487 51.8675 119.487 51.868C119.488 51.8684 119.488 51.869 119.488 51.8699C119.488 51.8715 119.489 51.8739 119.49 51.877C119.492 51.8833 119.495 51.8926 119.499 51.9048C119.506 51.9293 119.518 51.9657 119.533 52.0135C119.563 52.1092 119.607 52.2508 119.665 52.4351C119.781 52.8039 119.953 53.3438 120.174 54.0304C120.616 55.4034 121.258 57.363 122.055 59.7117C123.649 64.4077 125.869 70.6662 128.368 76.905C130.864 83.1347 133.652 89.3826 136.388 94.0387C137.753 96.3619 139.132 98.3367 140.485 99.7185C141.797 101.057 143.292 102.052 144.872 101.915L144.786 100.919L144.7 99.9224C144.068 99.9772 143.144 99.5738 141.914 98.3189C140.727 97.107 139.444 95.2925 138.112 93.0255C135.454 88.501 132.709 82.3642 130.225 76.1613C127.744 69.9674 125.537 63.7452 123.949 59.0688C123.155 56.7313 122.517 54.7817 122.077 53.417C121.858 52.7348 121.688 52.1988 121.572 51.8338C121.515 51.6513 121.471 51.5115 121.442 51.4176C121.427 51.3707 121.416 51.3352 121.409 51.3115C121.405 51.2997 121.402 51.2908 121.401 51.2849C121.4 51.282 121.399 51.2798 121.398 51.2784C121.398 51.2777 121.398 51.2772 121.398 51.2768C121.398 51.2765 121.398 51.2764 120.443 51.5718Z" fill="black" mask="url(#path-3-outside-2_29_801)"/>
<path d="M308.427 45.9372C185.927 -36.5627 148.927 130.937 253.927 150.437C358.927 169.937 316.927 280.437 253.927 278.937C190.927 277.437 172.427 218.875 181.927 194.875C191.427 170.874 79 370.937 56 278.937" stroke="#FFA366" stroke-width="8" stroke-linecap="round"/>
<g filter="url(#filter0_d_29_801)">
<path d="M350.126 79.0105C349.642 79.7355 347.078 78.8718 344.399 77.0814L325.001 64.1143C322.322 62.3239 320.544 60.2848 321.029 59.5598L322.608 57.197C323.093 56.4721 325.657 57.3358 328.335 59.1261L347.734 72.0932C350.412 73.8836 352.19 75.9227 351.706 76.6477L350.126 79.0105Z" fill="#D9D9D9"/>
<path d="M344.677 76.6659L325.278 63.6984C323.965 62.8206 322.888 61.8908 322.205 61.1085C321.862 60.7147 321.638 60.3796 321.526 60.1248C321.438 59.9242 321.448 59.8429 321.451 59.8278L323.017 57.4856C323.027 57.4786 323.097 57.4363 323.32 57.4407C323.598 57.4463 323.994 57.5254 324.489 57.6922C325.473 58.0235 326.744 58.6638 328.057 59.5416L347.456 72.5091C348.769 73.387 349.847 74.3167 350.529 75.099C350.873 75.4929 351.097 75.8279 351.208 76.0828C351.298 76.2877 351.285 76.368 351.283 76.3805L349.717 78.7228C349.704 78.731 349.633 78.7711 349.414 78.7668C349.136 78.7613 348.741 78.6822 348.245 78.5154C347.262 78.184 345.991 77.5438 344.677 76.6659Z" stroke="#191717"/>
</g>
<g filter="url(#filter1_d_29_801)">
<path d="M350.945 77.7854C350.622 78.2687 348.189 77.2091 345.511 75.4187L326.112 62.4516C323.434 60.6612 321.525 58.818 321.848 58.3347L322.901 56.7595C323.224 56.2762 325.657 57.3358 328.335 59.1261L347.734 72.0932C350.412 73.8836 352.321 75.7268 351.998 76.2101L350.945 77.7854Z" fill="#D9D9D9"/>
<path d="M345.789 75.0032L326.39 62.0357C325.068 61.1519 323.946 60.2613 323.202 59.5426C322.827 59.1806 322.565 58.8795 322.419 58.6568C322.377 58.5922 322.351 58.5419 322.334 58.5061L323.245 57.1438C323.285 57.1455 323.341 57.1503 323.417 57.1646C323.678 57.2138 324.056 57.3406 324.534 57.5487C325.483 57.9618 326.735 58.6579 328.057 59.5416L347.456 72.5091C348.778 73.3929 349.9 74.2835 350.644 75.0022C351.019 75.3642 351.281 75.6653 351.427 75.888C351.469 75.9527 351.495 76.0029 351.511 76.0387L350.601 77.401C350.561 77.3994 350.505 77.3945 350.429 77.3802C350.168 77.3311 349.789 77.2043 349.311 76.9961C348.363 76.583 347.111 75.887 345.789 75.0032Z" stroke="#191717"/>
</g>
<g filter="url(#filter2_d_29_801)">
<path d="M354.572 72.3596C354.088 73.0846 351.523 72.2209 348.845 70.4305L329.447 57.4634C326.768 55.673 324.99 53.6339 325.475 52.909L327.054 50.5462C327.539 49.8212 330.103 50.6849 332.781 52.4753L352.179 65.4424C354.858 67.2328 356.636 69.2719 356.152 69.9968L354.572 72.3596Z" fill="#D9D9D9"/>
<path d="M349.123 70.015L329.724 57.0476C328.411 56.1697 327.333 55.24 326.651 54.4577C326.308 54.0638 326.083 53.7288 325.972 53.4739C325.884 53.2733 325.894 53.192 325.897 53.177L327.463 50.8347C327.473 50.8277 327.543 50.7854 327.766 50.7898C328.044 50.7954 328.44 50.8745 328.935 51.0413C329.919 51.3726 331.19 52.0129 332.503 52.8908L351.902 65.8582C353.215 66.7361 354.293 67.6658 354.975 68.4481C355.318 68.842 355.543 69.177 355.654 69.4319C355.744 69.6368 355.731 69.7171 355.729 69.7296L354.163 72.0719C354.15 72.0801 354.079 72.1203 353.86 72.1159C353.582 72.1104 353.187 72.0313 352.691 71.8645C351.708 71.5331 350.436 70.8929 349.123 70.015Z" stroke="#191717"/>
</g>
<g filter="url(#filter3_d_29_801)">
<path d="M355.391 71.1345C355.068 71.6178 352.635 70.5582 349.957 68.7678L330.558 55.8007C327.88 54.0103 325.97 52.1671 326.294 51.6838L327.346 50.1086C327.67 49.6253 330.103 50.6849 332.781 52.4752L352.179 65.4424C354.858 67.2327 356.767 69.0759 356.444 69.5592L355.391 71.1345Z" fill="#D9D9D9"/>
<path d="M350.235 68.3523L330.836 55.3848C329.514 54.501 328.392 53.6104 327.647 52.8918C327.272 52.5297 327.011 52.2286 326.865 52.0059C326.823 51.9413 326.797 51.891 326.78 51.8552L327.691 50.4929C327.73 50.4946 327.787 50.4994 327.863 50.5137C328.124 50.5629 328.502 50.6897 328.98 50.8978C329.929 51.3109 331.181 52.007 332.503 52.8907L351.902 65.8582C353.224 66.742 354.346 67.6326 355.09 68.3513C355.465 68.7134 355.727 69.0144 355.872 69.2371C355.915 69.3018 355.941 69.352 355.957 69.3878L355.047 70.7502C355.007 70.7485 354.951 70.7436 354.875 70.7294C354.614 70.6802 354.235 70.5534 353.757 70.3453C352.809 69.9321 351.557 69.2361 350.235 68.3523Z" stroke="#191717"/>
</g>
<g filter="url(#filter4_d_29_801)">
<rect x="314.056" y="55.5953" width="11" height="9" rx="3" transform="rotate(-146.239 314.056 55.5953)" fill="#474040"/>
<rect x="313.918" y="54.9018" width="10" height="8" rx="2.5" transform="rotate(-146.239 313.918 54.9018)" stroke="black"/>
</g>
<g filter="url(#filter5_d_29_801)">
<path d="M340.384 71.9917C338.849 74.2874 335.558 74.78 333.033 73.0919L314.743 60.8658C312.218 59.1777 311.414 55.9482 312.949 53.6525L317.951 46.1702C319.485 43.8745 322.776 43.3819 325.302 45.07L343.592 57.2961C346.117 58.9842 346.92 62.2137 345.386 64.5094L340.384 71.9917Z" fill="#474040"/>
<path d="M333.311 72.6763L315.021 60.4501C312.687 58.89 312.008 55.9601 313.365 53.9303L318.366 46.4481C319.723 44.4183 322.69 43.9255 325.024 45.4856L343.314 57.7118C345.648 59.2719 346.327 62.2018 344.97 64.2316L339.968 71.7138C338.611 73.7436 335.645 74.2364 333.311 72.6763Z" stroke="#191717"/>
</g>
<rect x="69" y="51" width="37" height="128" rx="4" fill="#D9D9D9"/>
<defs>
<filter id="filter0_d_29_801" x="320.949" y="56.9404" width="30.8363" height="22.3267" filterUnits="userSpaceOnUse" color-interpolation-filters="sRGB">
<feFlood flood-opacity="0" result="BackgroundImageFix"/>
<feColorMatrix in="SourceAlpha" type="matrix" values="0 0 0 0 0 0 0 0 0 0 0 0 0 0 0 0 0 0 127 0" result="hardAlpha"/>
<feOffset/>
<feComposite in2="hardAlpha" operator="out"/>
<feColorMatrix type="matrix" values="0 0 0 0 0 0 0 0 0 0 0 0 0 0 0 0 0 0 0.25 0"/>
<feBlend mode="normal" in2="BackgroundImageFix" result="effect1_dropShadow_29_801"/>
<feBlend mode="normal" in="SourceGraphic" in2="effect1_dropShadow_29_801" result="shape"/>
</filter>
<filter id="filter1_d_29_801" x="321.812" y="56.6426" width="30.2219" height="21.2596" filterUnits="userSpaceOnUse" color-interpolation-filters="sRGB">
<feFlood flood-opacity="0" result="BackgroundImageFix"/>
<feColorMatrix in="SourceAlpha" type="matrix" values="0 0 0 0 0 0 0 0 0 0 0 0 0 0 0 0 0 0 127 0" result="hardAlpha"/>
<feOffset/>
<feComposite in2="hardAlpha" operator="out"/>
<feColorMatrix type="matrix" values="0 0 0 0 0 0 0 0 0 0 0 0 0 0 0 0 0 0 0.25 0"/>
<feBlend mode="normal" in2="BackgroundImageFix" result="effect1_dropShadow_29_801"/>
<feBlend mode="normal" in="SourceGraphic" in2="effect1_dropShadow_29_801" result="shape"/>
</filter>
<filter id="filter2_d_29_801" x="325.395" y="50.2895" width="30.8363" height="22.3267" filterUnits="userSpaceOnUse" color-interpolation-filters="sRGB">
<feFlood flood-opacity="0" result="BackgroundImageFix"/>
<feColorMatrix in="SourceAlpha" type="matrix" values="0 0 0 0 0 0 0 0 0 0 0 0 0 0 0 0 0 0 127 0" result="hardAlpha"/>
<feOffset/>
<feComposite in2="hardAlpha" operator="out"/>
<feColorMatrix type="matrix" values="0 0 0 0 0 0 0 0 0 0 0 0 0 0 0 0 0 0 0.25 0"/>
<feBlend mode="normal" in2="BackgroundImageFix" result="effect1_dropShadow_29_801"/>
<feBlend mode="normal" in="SourceGraphic" in2="effect1_dropShadow_29_801" result="shape"/>
</filter>
<filter id="filter3_d_29_801" x="326.258" y="49.9917" width="30.2219" height="21.2596" filterUnits="userSpaceOnUse" color-interpolation-filters="sRGB">
<feFlood flood-opacity="0" result="BackgroundImageFix"/>
<feColorMatrix in="SourceAlpha" type="matrix" values="0 0 0 0 0 0 0 0 0 0 0 0 0 0 0 0 0 0 127 0" result="hardAlpha"/>
<feOffset/>
<feComposite in2="hardAlpha" operator="out"/>
<feColorMatrix type="matrix" values="0 0 0 0 0 0 0 0 0 0 0 0 0 0 0 0 0 0 0.25 0"/>
<feBlend mode="normal" in2="BackgroundImageFix" result="effect1_dropShadow_29_801"/>
<feBlend mode="normal" in="SourceGraphic" in2="effect1_dropShadow_29_801" result="shape"/>
</filter>
<filter id="filter4_d_29_801" x="302.072" y="39.1609" width="19.8246" height="19.2734" filterUnits="userSpaceOnUse" color-interpolation-filters="sRGB">
<feFlood flood-opacity="0" result="BackgroundImageFix"/>
<feColorMatrix in="SourceAlpha" type="matrix" values="0 0 0 0 0 0 0 0 0 0 0 0 0 0 0 0 0 0 127 0" result="hardAlpha"/>
<feOffset/>
<feGaussianBlur stdDeviation="2"/>
<feComposite in2="hardAlpha" operator="out"/>
<feColorMatrix type="matrix" values="0 0 0 0 0 0 0 0 0 0 0 0 0 0 0 0 0 0 0.25 0"/>
<feBlend mode="normal" in2="BackgroundImageFix" result="effect1_dropShadow_29_801"/>
<feBlend mode="normal" in="SourceGraphic" in2="effect1_dropShadow_29_801" result="shape"/>
</filter>
<filter id="filter5_d_29_801" x="312.17" y="44.0668" width="33.9942" height="30.0282" filterUnits="userSpaceOnUse" color-interpolation-filters="sRGB">
<feFlood flood-opacity="0" result="BackgroundImageFix"/>
<feColorMatrix in="SourceAlpha" type="matrix" values="0 0 0 0 0 0 0 0 0 0 0 0 0 0 0 0 0 0 127 0" result="hardAlpha"/>
<feOffset/>
<feComposite in2="hardAlpha" operator="out"/>
<feColorMatrix type="matrix" values="0 0 0 0 0 0 0 0 0 0 0 0 0 0 0 0 0 0 0.25 0"/>
<feBlend mode="normal" in2="BackgroundImageFix" result="effect1_dropShadow_29_801"/>
<feBlend mode="normal" in="SourceGraphic" in2="effect1_dropShadow_29_801" result="shape"/>
</filter>
</defs>
</svg>
