<svg width="302" height="226" viewBox="0 0 302 226" fill="none" xmlns="http://www.w3.org/2000/svg">
    <path d="M0 15C0 6.71572 6.71573 0 15 0H287C295.284 0 302 6.71573 302 15V123C302 131.284 295.274 138 286.99 138C199.84 138 124.673 138 15.026 138C6.7417 138 0 131.284 0 123V15Z" fill="#264653"/>
    <path d="M300.25 125.415C303.649 125.415 301.18 157.924 300.441 184.796C300.255 191.533 293.629 196.99 285.474 196.99H199.465L199.64 197.706C200.387 200.773 199.468 203.967 197.147 206.373L191.366 212.364L181.038 222.528C178.795 224.735 175.564 226 172.169 226H152.586C146.062 226 140.774 221.421 140.773 215.773V211.512H111.24V215.773C111.24 221.421 105.951 226 99.4268 226H11.8135C5.28948 226 0.000276244 221.421 0 215.773V189.353C3.82801e-05 188.596 0.0972491 187.859 0.277344 187.149C0.0956542 186.386 3.60091e-06 185.597 0 184.79V125H7.46191L300.25 125.415Z" fill="#718096"/>
    <path d="M123.167 61V102.5H86.833V61H123.167ZM160.5 18.5V60H124.167V18.5H160.5ZM123.167 18.5V60H86.833V18.5H123.167ZM85.833 18.5V60H49.5V18.5H85.833Z" fill="#FFA366" stroke="black"/>
    <path d="M198.5 144.5V103.5H234.5V144.5H198.5ZM161.5 186.5V145.5H197.5V186.5H161.5ZM198.5 186.5V145.5H234.5V186.5H198.5Z" fill="#FFA366" stroke="black"/>
    <path d="M197.5 61V102.5H161.5V61H197.5ZM234.5 18.5V60H198.5V18.5H234.5ZM197.5 18.5V60H161.5V18.5H197.5Z" fill="#66BFFF" stroke="black"/>
    <path d="M86.5 144.5V103.5H122.5V144.5H86.5ZM49.5 186.5V145.5H85.5V186.5H49.5ZM86.5 186.5V145.5H122.5V186.5H86.5Z" fill="#66BFFF" stroke="black"/>
</svg>
