<svg width="216" height="139" viewBox="0 0 216 139" fill="none" xmlns="http://www.w3.org/2000/svg">
    <g filter="url(#filter0_d_38_3)">
        <path d="M187.707 30.546C187.707 30.546 170.207 -10.454 148.207 21.046C136.671 40.4833 138.965 67.0755 170.207 60.046C230.207 46.546 176.684 164.074 148.207 100.546C119.73 37.0177 114.707 68.046 114.707 68.046" stroke="url(#paint0_linear_38_3)" stroke-width="15" stroke-linecap="round"/>
    </g>
    <path d="M22.1815 10.4961C25.4561 -4.88471 68.6637 19.8807 73.6692 24.0493C78.6747 28.2179 74.5059 33.4469 70.3856 48.1661L46.8241 38.0821L24.0805 28.1094C24.0805 28.1094 18.9068 25.877 22.1815 10.4961Z" fill="url(#paint1_linear_38_3)"/>
    <g filter="url(#filter1_d_38_3)">
        <path d="M61.2235 33.1243C59.3637 28.2527 19.5502 20.1327 22.779 8.5902C25.5686 -0.780018 50.5936 -1.42742 62.2849 1.65307C73.9762 4.73357 117.811 34.8709 117.811 34.8709C117.811 34.8709 123.498 108.001 116.386 115.756C109.275 123.512 34.5882 133.113 20.8056 126.861C7.02308 120.609 -10.1551 98.5276 7.5536 93.7543C25.2623 88.981 65.9821 89.3935 65.6086 84.7242C73.7579 59.6626 63.0833 37.996 61.2235 33.1243Z" fill="url(#paint2_linear_38_3)"/>
    </g>
    <g filter="url(#filter2_d_38_3)">
        <path d="M91.9192 88.4415C94.6554 88.8141 96.5715 91.3342 96.199 94.0704C95.8265 96.8065 93.3064 98.7227 90.5702 98.3501C87.834 97.9776 85.9179 95.4575 86.2904 92.7213C86.6629 89.9851 89.183 88.069 91.9192 88.4415ZM82.955 80.1565C85.6911 80.529 87.6073 83.0491 87.2347 85.7853C86.8622 88.5215 84.3421 90.4376 81.6059 90.0651C78.8697 89.6925 76.9536 87.1724 77.3262 84.4363C77.6987 81.7001 80.2188 79.784 82.955 80.1565ZM102.772 82.8546C105.508 83.2271 107.424 85.7472 107.052 88.4834C106.679 91.2196 104.159 93.1357 101.423 92.7632C98.6869 92.3906 96.7708 89.8705 97.1433 87.1344C97.5159 84.3982 100.036 82.4821 102.772 82.8546ZM93.8079 74.5695C96.5441 74.9421 98.4602 77.4622 98.0877 80.1983C97.7151 82.9345 95.195 84.8506 92.4588 84.4781C89.7227 84.1056 87.8065 81.5855 88.1791 78.8493C88.5516 76.1131 91.0717 74.197 93.8079 74.5695Z" fill="#4A4343"/>
    </g>
    <g filter="url(#filter3_d_38_3)">
        <path d="M99.3759 41.8705C99.0646 44.1575 100.77 46.2781 103.186 46.607C105.602 46.9359 107.308 49.0565 106.996 51.3435C106.685 53.6305 104.474 55.2179 102.058 54.889L101.329 54.7898C99.3164 54.5157 97.4742 55.8385 97.2147 57.7444C96.9553 59.6502 95.113 60.9731 93.1 60.699L91.642 60.5005C89.629 60.2264 88.2075 58.4592 88.467 56.5534C88.7264 54.6475 87.3049 52.8804 85.2919 52.6063C83.2789 52.3322 81.8573 50.565 82.1168 48.6592L82.3047 47.2788C82.5642 45.373 84.4064 44.0502 86.4195 44.3242C88.4325 44.5983 90.2747 43.2755 90.5342 41.3696L90.6282 40.6795C90.9396 38.3925 93.1502 36.8051 95.5659 37.134C97.9815 37.4628 99.6873 39.5835 99.3759 41.8705Z" fill="#4A4343"/>
    </g>
    <defs>
        <filter id="filter0_d_38_3" x="107.206" y="1.64349" width="108.796" height="135.372" filterUnits="userSpaceOnUse" color-interpolation-filters="sRGB">
            <feFlood flood-opacity="0" result="BackgroundImageFix"/>
            <feColorMatrix in="SourceAlpha" type="matrix" values="0 0 0 0 0 0 0 0 0 0 0 0 0 0 0 0 0 0 127 0" result="hardAlpha"/>
            <feOffset dx="7" dy="6"/>
            <feGaussianBlur stdDeviation="2"/>
            <feComposite in2="hardAlpha" operator="out"/>
            <feColorMatrix type="matrix" values="0 0 0 0 0 0 0 0 0 0 0 0 0 0 0 0 0 0 0.25 0"/>
            <feBlend mode="normal" in2="BackgroundImageFix" result="effect1_dropShadow_38_3"/>
            <feBlend mode="normal" in="SourceGraphic" in2="effect1_dropShadow_38_3" result="shape"/>
        </filter>
        <filter id="filter1_d_38_3" x="0" y="0" width="130.964" height="138.875" filterUnits="userSpaceOnUse" color-interpolation-filters="sRGB">
            <feFlood flood-opacity="0" result="BackgroundImageFix"/>
            <feColorMatrix in="SourceAlpha" type="matrix" values="0 0 0 0 0 0 0 0 0 0 0 0 0 0 0 0 0 0 127 0" result="hardAlpha"/>
            <feOffset dx="7" dy="6"/>
            <feGaussianBlur stdDeviation="2"/>
            <feComposite in2="hardAlpha" operator="out"/>
            <feColorMatrix type="matrix" values="0 0 0 0 0 0 0 0 0 0 0 0 0 0 0 0 0 0 0.25 0"/>
            <feBlend mode="normal" in2="BackgroundImageFix" result="effect1_dropShadow_38_3"/>
            <feBlend mode="normal" in="SourceGraphic" in2="effect1_dropShadow_38_3" result="shape"/>
        </filter>
        <filter id="filter2_d_38_3" x="75.2798" y="66.5233" width="37.8184" height="31.8732" filterUnits="userSpaceOnUse" color-interpolation-filters="sRGB">
            <feFlood flood-opacity="0" result="BackgroundImageFix"/>
            <feColorMatrix in="SourceAlpha" type="matrix" values="0 0 0 0 0 0 0 0 0 0 0 0 0 0 0 0 0 0 127 0" result="hardAlpha"/>
            <feOffset dx="2" dy="-4"/>
            <feGaussianBlur stdDeviation="2"/>
            <feComposite in2="hardAlpha" operator="out"/>
            <feColorMatrix type="matrix" values="0 0 0 0 0 0 0 0 0 0 0 0 0 0 0 0 0 0 0.25 0"/>
            <feBlend mode="normal" in2="BackgroundImageFix" result="effect1_dropShadow_38_3"/>
            <feBlend mode="normal" in="SourceGraphic" in2="effect1_dropShadow_38_3" result="shape"/>
        </filter>
        <filter id="filter3_d_38_3" x="80.0862" y="29.0908" width="32.9466" height="31.6441" filterUnits="userSpaceOnUse" color-interpolation-filters="sRGB">
            <feFlood flood-opacity="0" result="BackgroundImageFix"/>
            <feColorMatrix in="SourceAlpha" type="matrix" values="0 0 0 0 0 0 0 0 0 0 0 0 0 0 0 0 0 0 127 0" result="hardAlpha"/>
            <feOffset dx="2" dy="-4"/>
            <feGaussianBlur stdDeviation="2"/>
            <feComposite in2="hardAlpha" operator="out"/>
            <feColorMatrix type="matrix" values="0 0 0 0 0 0 0 0 0 0 0 0 0 0 0 0 0 0 0.25 0"/>
            <feBlend mode="normal" in2="BackgroundImageFix" result="effect1_dropShadow_38_3"/>
            <feBlend mode="normal" in="SourceGraphic" in2="effect1_dropShadow_38_3" result="shape"/>
        </filter>
        <linearGradient id="paint0_linear_38_3" x1="176.707" y1="74.046" x2="176.707" y2="178.546" gradientUnits="userSpaceOnUse">
            <stop stop-color="#FFA366"/>
            <stop offset="1" stop-color="#99623D"/>
        </linearGradient>
        <linearGradient id="paint1_linear_38_3" x1="47.7073" y1="1.04596" x2="38.5073" y2="32.5263" gradientUnits="userSpaceOnUse">
            <stop stop-color="#66BFFF"/>
            <stop offset="1" stop-color="#115F97"/>
        </linearGradient>
        <linearGradient id="paint2_linear_38_3" x1="35.2073" y1="110.046" x2="38.7539" y2="132.167" gradientUnits="userSpaceOnUse">
            <stop stop-color="#66BFFF"/>
            <stop offset="1" stop-color="#3D7399"/>
        </linearGradient>
    </defs>
</svg>
