<svg width="302" height="226" viewBox="0 0 302 226" fill="none" xmlns="http://www.w3.org/2000/svg">
<path d="M0 15C0 6.71572 6.71573 0 15 0H287C295.284 0 302 6.71573 302 15V123C302 131.284 295.274 138 286.99 138C199.84 138 124.673 138 15.026 138C6.7417 138 0 131.284 0 123V15Z" fill="#264653"/>
<path d="M300.25 125.415C303.649 125.415 301.18 157.924 300.441 184.796C300.255 191.533 293.629 196.99 285.474 196.99H199.465L199.64 197.706C200.387 200.773 199.468 203.967 197.147 206.373L191.366 212.364L181.038 222.528C178.795 224.735 175.564 226 172.169 226H152.586C146.062 226 140.774 221.421 140.773 215.773V211.512H111.24V215.773C111.24 221.421 105.951 226 99.4268 226H11.8135C5.28948 226 0.000276244 221.421 0 215.773V189.353C3.82801e-05 188.596 0.0972491 187.859 0.277344 187.149C0.0956542 186.386 3.60091e-06 185.597 0 184.79V125H7.46191L300.25 125.415Z" fill="#718096"/>
<path d="M194 114H168V88H194V114Z" fill="#FFA366" stroke="#FF5500" stroke-width="2"/>
<path d="M194 84H168V58H194V84Z" fill="#FFA366" stroke="#FF5500" stroke-width="2"/>
<path d="M194 54H168V28H194V54Z" fill="#FFA366" stroke="#FF5500" stroke-width="2"/>
<path d="M224 54H198V28H224V54Z" fill="#FFA366" stroke="#FF5500" stroke-width="2"/>
<path d="M224 114H198V88H224V114Z" fill="#66BFFF" stroke="#0077DD" stroke-width="2"/>
<path d="M224 144H198V118H224V144Z" fill="#66BFFF" stroke="#0077DD" stroke-width="2"/>
<path d="M224 174H198V148H224V174Z" fill="#66BFFF" stroke="#0077DD" stroke-width="2"/>
<path d="M194 174H168V148H194V174Z" fill="#66BFFF" stroke="#0077DD" stroke-width="2"/>
<path d="M134 114H108V88H134V114Z" fill="#FFA366" stroke="#FF5500" stroke-width="2"/>
<path d="M134 144H108V118H134V144Z" fill="#FFA366" stroke="#FF5500" stroke-width="2"/>
<path d="M134 174H108V148H134V174Z" fill="#FFA366" stroke="#FF5500" stroke-width="2"/>
<path d="M104 174H78V148H104V174Z" fill="#FFA366" stroke="#FF5500" stroke-width="2"/>
<path d="M134 84H108V58H134V84Z" fill="#66BFFF" stroke="#0077DD" stroke-width="2"/>
<path d="M164 54H138V28H164V54Z" fill="#66BFFF" stroke="#0077DD" stroke-width="2"/>
<path d="M134 54H108V28H134V54Z" fill="#66BFFF" stroke="#0077DD" stroke-width="2"/>
<path d="M104 54H78V28H104V54Z" fill="#66BFFF" stroke="#0077DD" stroke-width="2"/>
</svg>
