<svg width="220" height="146" viewBox="0 0 220 146" fill="none" xmlns="http://www.w3.org/2000/svg">
    <g filter="url(#filter0_d_38_3)">
        <path d="M201.53 19.9389C202.604 21.1134 203.149 22.6716 203.058 24.2614C202.966 25.8514 202.242 27.3445 201.047 28.4105C199.853 29.4765 198.287 30.0262 196.697 29.937C195.107 29.8478 193.621 29.1285 192.576 27.9283C192.576 27.9283 192.576 27.9283 192.576 27.9283C189.888 24.9989 185.875 21.9033 182.058 20.1417C172.594 15.3015 163.118 19.5785 156.563 29.153C151.805 35.6531 150.14 43.8078 153.832 49.8213C157.423 55.9948 165.583 59.8934 174.013 61.9411C184.763 64.7084 196.193 68.9564 204.025 79.1414C212.555 89.6247 208.937 105.49 201.795 114.204C181.627 136.997 145.832 129.734 129.973 107.703C129.92 107.629 129.867 107.554 129.813 107.48C120.561 94.6764 107.765 80.9018 95.3404 78.8608C93.5951 78.6798 92.2106 79.0098 91.5398 79.5517C91.1975 79.8178 91.0122 80.1187 90.9342 80.4037C90.8958 80.5458 90.8835 80.6871 90.916 80.7999C90.9335 80.8549 90.9615 80.904 91.0185 80.9226C91.0504 80.9279 91.0793 80.9374 91.1411 80.9065C91.1728 80.8898 91.1973 80.8818 91.249 80.8379C91.2768 80.8134 91.3074 80.7845 91.341 80.7507C91.3625 80.7271 91.3592 80.738 91.4079 80.6762C91.4565 80.6142 91.5113 80.5414 91.5724 80.4559C90.4723 82.9105 88.2235 84.4672 85.5892 84.9629C82.9521 85.4568 80.0982 84.8176 77.7026 83.2176C75.307 81.6177 73.6234 79.2262 73.0695 76.6011C72.5184 73.9778 73.095 71.3042 74.9409 69.3478C74.9409 69.3478 74.9409 69.3478 74.9409 69.3478C83.1863 60.1195 93.4587 61.5955 99.7242 64.1325C118.927 73.9059 126.659 88.7582 137.126 102.234C137.181 102.311 137.236 102.388 137.291 102.465C149.422 120.588 181.32 124.956 194.309 108.738C200.117 101.014 201.809 91.6261 196.357 84.8328C191.064 77.8964 181.358 73.8387 171.708 71.6004C162.112 69.2756 151.41 65.3109 144.963 55.1566C138.373 44.7514 141.575 31.402 147.681 22.9263C151.63 17.2432 156.7 11.7353 164.102 8.68085C171.478 5.5501 180.189 6.4975 186.833 9.5342C192.498 12.0897 197.087 15.3726 201.53 19.9389Z" fill="url(#paint0_linear_38_3)"/>
    </g>
    <path d="M21.8841 10.3535C25.1587 -5.02731 68.3662 19.7381 73.3717 23.9067C78.3772 28.0753 74.2085 33.3043 70.0882 48.0235L46.5267 37.9395L23.7831 27.9668C23.7831 27.9668 18.6094 25.7344 21.8841 10.3535Z" fill="url(#paint1_linear_38_3)"/>
    <g filter="url(#filter1_d_38_3)">
        <path d="M60.2024 32.5717C58.3736 27.7813 19.2241 19.7968 22.3991 8.44686C25.1421 -0.767007 49.7498 -1.40358 61.2461 1.62553C72.7424 4.65464 106.027 16.8931 112.363 32.5717C118.699 48.2504 124.027 78.3931 114.527 113.893C105.027 149.393 34.0114 130.892 20.4587 124.745C6.90599 118.597 -9.98579 96.8837 7.42763 92.19C24.841 87.4964 64.8818 87.902 64.5145 83.3107C72.5279 58.6672 62.0312 37.362 60.2024 32.5717Z" fill="url(#paint2_linear_38_3)"/>
    </g>
    <g filter="url(#filter2_d_38_3)">
        <path d="M92.7386 88.7887C95.4748 89.1612 97.3909 91.6813 97.0184 94.4175C96.6459 97.1537 94.1258 99.0698 91.3896 98.6972C88.6534 98.3247 86.7373 95.8046 87.1098 93.0684C87.4823 90.3322 90.0024 88.4161 92.7386 88.7887ZM83.7744 80.5036C86.5105 80.8761 88.4267 83.3962 88.0541 86.1324C87.6816 88.8686 85.1615 90.7847 82.4253 90.4122C79.6891 90.0397 77.773 87.5196 78.1456 84.7834C78.5181 82.0472 81.0382 80.1311 83.7744 80.5036ZM103.592 83.2017C106.328 83.5742 108.244 86.0943 107.871 88.8305C107.499 91.5667 104.979 93.4828 102.242 93.1103C99.5063 92.7377 97.5902 90.2176 97.9627 87.4815C98.3353 84.7453 100.855 82.8292 103.592 83.2017ZM94.6273 74.9166C97.3635 75.2892 99.2796 77.8093 98.9071 80.5454C98.5345 83.2816 96.0144 85.1977 93.2782 84.8252C90.5421 84.4527 88.6259 81.9326 88.9985 79.1964C89.371 76.4602 91.8911 74.5441 94.6273 74.9166Z" fill="#4A4343"/>
    </g>
    <g filter="url(#filter3_d_38_3)">
        <path d="M100.195 42.2176C99.884 44.5046 101.59 46.6252 104.005 46.9541C106.421 47.283 108.127 49.4036 107.816 51.6906C107.504 53.9776 105.293 55.565 102.878 55.2361L102.149 55.1369C100.136 54.8628 98.2936 56.1856 98.0341 58.0915C97.7746 59.9973 95.9324 61.3202 93.9194 61.0461L92.4614 60.8476C90.4484 60.5735 89.0269 58.8063 89.2864 56.9005C89.5458 54.9946 88.1243 53.2275 86.1113 52.9534C84.0983 52.6793 82.6767 50.9121 82.9362 49.0063L83.1241 47.626C83.3836 45.7201 85.2258 44.3973 87.2389 44.6714C89.2519 44.9454 91.0941 43.6226 91.3536 41.7168L91.4476 41.0266C91.7589 38.7396 93.9696 37.1522 96.3853 37.4811C98.8009 37.81 100.507 39.9306 100.195 42.2176Z" fill="#4A4343"/>
    </g>
    <defs>
        <filter id="filter0_d_38_3" x="72.8695" y="6.74622" width="147.116" height="131.406" filterUnits="userSpaceOnUse" color-interpolation-filters="sRGB">
            <feFlood flood-opacity="0" result="BackgroundImageFix"/>
            <feColorMatrix in="SourceAlpha" type="matrix" values="0 0 0 0 0 0 0 0 0 0 0 0 0 0 0 0 0 0 127 0" result="hardAlpha"/>
            <feOffset dx="7" dy="6"/>
            <feGaussianBlur stdDeviation="2"/>
            <feComposite in2="hardAlpha" operator="out"/>
            <feColorMatrix type="matrix" values="0 0 0 0 0 0 0 0 0 0 0 0 0 0 0 0 0 0 0.25 0"/>
            <feBlend mode="normal" in2="BackgroundImageFix" result="effect1_dropShadow_38_3"/>
            <feBlend mode="normal" in="SourceGraphic" in2="effect1_dropShadow_38_3" result="shape"/>
        </filter>
        <filter id="filter1_d_38_3" x="0" y="0" width="130.696" height="145.063" filterUnits="userSpaceOnUse" color-interpolation-filters="sRGB">
            <feFlood flood-opacity="0" result="BackgroundImageFix"/>
            <feColorMatrix in="SourceAlpha" type="matrix" values="0 0 0 0 0 0 0 0 0 0 0 0 0 0 0 0 0 0 127 0" result="hardAlpha"/>
            <feOffset dx="7" dy="6"/>
            <feGaussianBlur stdDeviation="2"/>
            <feComposite in2="hardAlpha" operator="out"/>
            <feColorMatrix type="matrix" values="0 0 0 0 0 0 0 0 0 0 0 0 0 0 0 0 0 0 0.25 0"/>
            <feBlend mode="normal" in2="BackgroundImageFix" result="effect1_dropShadow_38_3"/>
            <feBlend mode="normal" in="SourceGraphic" in2="effect1_dropShadow_38_3" result="shape"/>
        </filter>
        <filter id="filter2_d_38_3" x="76.0992" y="66.8704" width="37.8184" height="31.8732" filterUnits="userSpaceOnUse" color-interpolation-filters="sRGB">
            <feFlood flood-opacity="0" result="BackgroundImageFix"/>
            <feColorMatrix in="SourceAlpha" type="matrix" values="0 0 0 0 0 0 0 0 0 0 0 0 0 0 0 0 0 0 127 0" result="hardAlpha"/>
            <feOffset dx="2" dy="-4"/>
            <feGaussianBlur stdDeviation="2"/>
            <feComposite in2="hardAlpha" operator="out"/>
            <feColorMatrix type="matrix" values="0 0 0 0 0 0 0 0 0 0 0 0 0 0 0 0 0 0 0.25 0"/>
            <feBlend mode="normal" in2="BackgroundImageFix" result="effect1_dropShadow_38_3"/>
            <feBlend mode="normal" in="SourceGraphic" in2="effect1_dropShadow_38_3" result="shape"/>
        </filter>
        <filter id="filter3_d_38_3" x="80.9056" y="29.4379" width="32.9466" height="31.6441" filterUnits="userSpaceOnUse" color-interpolation-filters="sRGB">
            <feFlood flood-opacity="0" result="BackgroundImageFix"/>
            <feColorMatrix in="SourceAlpha" type="matrix" values="0 0 0 0 0 0 0 0 0 0 0 0 0 0 0 0 0 0 127 0" result="hardAlpha"/>
            <feOffset dx="2" dy="-4"/>
            <feGaussianBlur stdDeviation="2"/>
            <feComposite in2="hardAlpha" operator="out"/>
            <feColorMatrix type="matrix" values="0 0 0 0 0 0 0 0 0 0 0 0 0 0 0 0 0 0 0.25 0"/>
            <feBlend mode="normal" in2="BackgroundImageFix" result="effect1_dropShadow_38_3"/>
            <feBlend mode="normal" in="SourceGraphic" in2="effect1_dropShadow_38_3" result="shape"/>
        </filter>
        <linearGradient id="paint0_linear_38_3" x1="170.473" y1="87.03" x2="169.447" y2="178.028" gradientUnits="userSpaceOnUse">
            <stop stop-color="#FFA366"/>
            <stop offset="1" stop-color="#99623D"/>
        </linearGradient>
        <linearGradient id="paint1_linear_38_3" x1="44.5267" y1="13.3931" x2="31.0309" y2="46.6638" gradientUnits="userSpaceOnUse">
            <stop stop-color="#66BFFF"/>
            <stop offset="1" stop-color="#115F97"/>
        </linearGradient>
        <linearGradient id="paint2_linear_38_3" x1="33.6972" y1="92.242" x2="53.3634" y2="145.833" gradientUnits="userSpaceOnUse">
            <stop stop-color="#66BFFF"/>
            <stop offset="1" stop-color="#3D7399"/>
        </linearGradient>
    </defs>
</svg>
