<svg width="400" height="254" viewBox="0 0 400 254" fill="none" xmlns="http://www.w3.org/2000/svg">
<path d="M328.729 138.5H344.141C344.819 138.5 345.414 138.956 345.59 139.611L346.391 142.595C346.552 143.197 346.324 143.837 345.817 144.201L343.102 146.154C342.448 146.624 342.061 147.379 342.061 148.184V153.707C342.061 155.088 343.18 156.207 344.561 156.207H348.342C349.003 156.207 349.587 156.64 349.778 157.272L351.687 163.589C352.005 164.644 352.978 165.365 354.08 165.365H364.203L364.22 165.364H364.223C364.225 165.364 364.228 165.364 364.232 165.363C364.241 165.363 364.254 165.362 364.271 165.361C364.306 165.359 364.358 165.356 364.426 165.352C364.562 165.343 364.763 165.331 365.023 165.316C365.544 165.288 366.301 165.25 367.243 165.212C369.128 165.136 371.754 165.06 374.719 165.06C380.661 165.06 387.924 165.366 393.316 166.574C393.485 166.612 393.756 166.79 394.106 167.246C394.443 167.686 394.801 168.315 395.166 169.114C395.895 170.711 396.621 172.919 397.266 175.477C398.555 180.591 399.5 187.035 399.5 192.646C399.5 202.367 397.604 217.899 393.975 234.671C392.69 240.606 391.349 243.862 389.725 245.901C388.114 247.923 386.188 248.799 383.547 249.883C376.131 252.926 369.275 254.047 363.795 249.945C360.344 247.362 359.118 243.08 357.402 236.782C355.245 228.865 353.799 223.432 351.979 219.436C350.142 215.4 347.914 212.803 344.205 210.537C344.004 210.414 343.74 210.319 343.447 210.239C343.147 210.158 342.785 210.085 342.37 210.018C341.54 209.883 340.468 209.77 339.196 209.676C336.651 209.487 333.27 209.369 329.35 209.305C321.507 209.176 311.477 209.262 301.592 209.434C291.706 209.605 281.961 209.862 274.688 210.077C271.051 210.184 268.033 210.282 265.923 210.352C264.868 210.386 264.04 210.414 263.477 210.434C263.195 210.443 262.979 210.451 262.833 210.456C262.76 210.459 262.705 210.461 262.668 210.462C262.649 210.463 262.635 210.464 262.626 210.464H112.653C112.646 210.463 112.635 210.463 112.62 210.462C112.591 210.46 112.547 210.457 112.489 210.453C112.374 210.445 112.203 210.434 111.98 210.419C111.534 210.389 110.879 210.347 110.044 210.295C108.375 210.192 105.986 210.052 103.107 209.906C97.3511 209.615 89.6342 209.3 81.7969 209.204C73.963 209.109 65.9943 209.233 59.7393 209.822C56.614 210.117 53.8959 210.528 51.8301 211.095C50.7977 211.378 49.9108 211.705 49.2109 212.084C48.5179 212.46 47.9611 212.912 47.6572 213.473C45.7305 217.027 44.2056 221.338 43.1641 224.746C42.6424 226.453 42.2396 227.939 41.9678 228.999C41.8318 229.529 41.7287 229.953 41.6592 230.245C41.6245 230.391 41.5977 230.503 41.5801 230.58C41.5712 230.618 41.565 230.648 41.5605 230.668C41.5594 230.673 41.5585 230.678 41.5576 230.682V230.684C41.5573 230.685 41.5563 230.687 41.5557 230.689C41.5543 230.695 41.5525 230.703 41.5498 230.713C41.5442 230.734 41.5356 230.766 41.5244 230.809C41.5021 230.893 41.4689 231.019 41.4248 231.182C41.3367 231.508 41.2059 231.985 41.0361 232.588C40.6965 233.794 40.1997 235.502 39.5742 237.512C38.3224 241.533 36.5555 246.75 34.4893 251.549C34.3299 251.919 33.9784 252.271 33.3965 252.576C32.8168 252.88 32.046 253.117 31.1201 253.274C29.2691 253.59 26.88 253.576 24.3652 253.225C21.8533 252.874 19.2412 252.191 16.9453 251.189C14.6437 250.185 12.6951 248.876 11.4678 247.292C10.092 245.517 9.48533 244.881 8.78711 243.642C8.08493 242.395 7.30178 240.554 5.6543 236.423C4.04039 232.376 2.74715 224.202 1.85938 215.758C0.973955 207.336 0.500001 198.73 0.5 193.867C0.500031 184.15 1.55726 177.722 4.62207 169.311C4.83971 168.713 5.43563 168.135 6.46973 167.604C7.49283 167.08 8.8705 166.64 10.5195 166.278C13.8147 165.555 18.097 165.164 22.5645 164.978C31.4935 164.606 41.0715 165.057 44.7637 165.268C45.9243 165.334 46.9708 164.6 47.3096 163.49L48.835 158.49C49.0275 157.859 49.6098 157.428 50.2695 157.428H54.5742C55.9549 157.428 57.0742 156.308 57.0742 154.928V149.158C57.074 147.778 55.9548 146.658 54.5742 146.658H54.418C53.4533 146.658 52.7391 145.761 52.9561 144.821L53.9355 140.578C54.0928 139.898 54.6991 139.416 55.3975 139.416H70.626C71.3584 139.416 71.984 139.945 72.1055 140.667L72.8682 145.208C72.9956 145.967 72.4102 146.658 71.6406 146.658C70.4011 146.658 69.3965 147.664 69.3965 148.903V154.928C69.3965 156.308 70.5158 157.428 71.8965 157.428H75.334C75.9305 157.428 76.4706 157.781 76.709 158.328L79.1221 163.864C79.5195 164.776 80.4196 165.365 81.4141 165.365H317.764C318.731 165.365 319.611 164.807 320.024 163.933L323.268 157.066C323.515 156.542 324.044 156.207 324.624 156.207H328.276C329.657 156.207 330.776 155.088 330.776 153.707V148.936C330.776 147.669 329.829 146.602 328.571 146.453L327.866 146.369C327.031 146.27 326.441 145.504 326.558 144.671L327.243 139.791C327.347 139.051 327.981 138.5 328.729 138.5Z" fill="url(#paint0_linear_78_2355)" stroke="black"/>
<rect x="134.448" y="181.24" width="6.93748" height="10.4187" rx="2.5" transform="rotate(90 134.448 181.24)" fill="url(#paint1_linear_78_2355)" stroke="black"/>
<rect x="229.566" y="175.135" width="3.49827" height="19.149" rx="1.74914" fill="url(#paint2_linear_78_2355)" stroke="black"/>
<rect x="222.991" y="175.135" width="3.49827" height="19.149" rx="1.74914" fill="url(#paint3_linear_78_2355)" stroke="black"/>
<rect x="216.417" y="175.135" width="3.49827" height="19.149" rx="1.74914" fill="url(#paint4_linear_78_2355)" stroke="black"/>
<rect x="209.843" y="175.135" width="3.49827" height="19.149" rx="1.74914" fill="url(#paint5_linear_78_2355)" stroke="black"/>
<rect x="203.268" y="175.135" width="3.49827" height="19.149" rx="1.74914" fill="url(#paint6_linear_78_2355)" stroke="black"/>
<rect x="196.694" y="175.135" width="3.49827" height="19.149" rx="1.74914" fill="url(#paint7_linear_78_2355)" stroke="black"/>
<rect x="190.119" y="175.135" width="3.49827" height="19.149" rx="1.74914" fill="url(#paint8_linear_78_2355)" stroke="black"/>
<rect x="183.545" y="175.135" width="3.49827" height="19.149" rx="1.74914" fill="url(#paint9_linear_78_2355)" stroke="black"/>
<rect x="176.971" y="175.135" width="3.49827" height="19.149" rx="1.74914" fill="url(#paint10_linear_78_2355)" stroke="black"/>
<rect x="163.822" y="175.135" width="3.49827" height="19.149" rx="1.74914" fill="url(#paint11_linear_78_2355)" stroke="black"/>
<rect x="170.396" y="175.135" width="3.49827" height="19.149" rx="1.74914" fill="url(#paint12_linear_78_2355)" stroke="black"/>
<path d="M370.288 182.461C363.982 182.461 357.683 182.671 352.836 183.089C350.41 183.299 348.362 183.559 346.862 183.868C346.111 184.022 345.515 184.186 345.083 184.355C344.867 184.439 344.704 184.521 344.589 184.595C344.47 184.672 344.427 184.725 344.416 184.743C343.853 185.654 343.45 186.922 343.18 188.405C342.911 189.881 342.779 191.537 342.733 193.2C342.643 196.526 342.903 199.842 343.094 201.741C343.163 202.432 343.732 202.997 344.477 203.118C347.137 203.55 352.577 204.847 355.788 208.577C357.016 210.003 357.733 211.511 358.35 212.892C358.97 214.281 359.474 215.497 360.275 216.498C360.279 216.499 360.283 216.502 360.288 216.503C360.333 216.518 360.413 216.534 360.539 216.54C360.792 216.551 361.153 216.521 361.625 216.443C362.563 216.287 363.847 215.957 365.386 215.492C368.457 214.562 372.477 213.115 376.643 211.526C384.97 208.348 393.838 204.619 396.77 203.375C397.243 203.175 397.56 202.76 397.623 202.258C397.827 200.625 398.159 197.355 398.085 193.922C398.01 190.463 397.522 186.946 396.16 184.743C396.149 184.725 396.106 184.672 395.987 184.595C395.872 184.521 395.71 184.439 395.494 184.355C395.062 184.186 394.465 184.022 393.714 183.868C392.215 183.559 390.166 183.299 387.741 183.089C382.894 182.671 376.594 182.461 370.288 182.461Z" fill="url(#paint13_linear_78_2355)" stroke="black"/>
<path d="M29.0659 182.69C35.3719 182.69 41.6712 182.9 46.5181 183.318C48.9435 183.527 50.9924 183.788 52.4917 184.097C53.2426 184.251 53.8393 184.415 54.271 184.584C54.4867 184.668 54.6496 184.75 54.7651 184.824C54.884 184.901 54.927 184.954 54.938 184.972C55.5014 185.883 55.904 187.151 56.1743 188.634C56.4434 190.11 56.5754 191.765 56.6206 193.429C56.7111 196.755 56.4514 200.071 56.2603 201.97C56.1906 202.661 55.6219 203.226 54.8774 203.347C52.2167 203.779 46.7774 205.076 43.5659 208.806C42.3378 210.232 41.621 211.74 41.0044 213.121C40.3843 214.51 39.8796 215.726 39.0786 216.726C39.0751 216.728 39.071 216.731 39.0659 216.732C39.0207 216.747 38.9409 216.763 38.8149 216.768C38.5621 216.78 38.2007 216.75 37.729 216.672C36.7905 216.516 35.5066 216.186 33.9683 215.721C30.8969 214.791 26.8766 213.344 22.7114 211.755C14.3841 208.577 5.51582 204.848 2.5835 203.604C2.11092 203.404 1.79352 202.988 1.73096 202.487C1.52736 200.854 1.19498 197.584 1.26904 194.151C1.34369 190.692 1.8317 187.175 3.19385 184.972C3.20502 184.954 3.24805 184.901 3.3667 184.824C3.48218 184.75 3.64432 184.668 3.85986 184.584C4.29159 184.415 4.88904 184.251 5.64014 184.097C7.13932 183.788 9.18755 183.527 11.6128 183.318C16.4597 182.9 22.7597 182.69 29.0659 182.69Z" fill="url(#paint14_linear_78_2355)" stroke="black"/>
<path d="M2.24658 206.899C2.86257 206.942 3.71163 207.09 4.76123 207.336C6.01175 207.629 7.51396 208.052 9.18701 208.57C12.5328 209.606 16.5414 211.014 20.5513 212.501C28.4681 215.436 36.3614 218.668 39.1304 219.919C39.1349 219.933 39.1426 219.949 39.1479 219.97C39.1841 220.109 39.2154 220.328 39.2349 220.632C39.2733 221.235 39.2604 222.092 39.1919 223.146C39.0551 225.249 38.7012 228.079 38.1353 231.097C37.5692 234.115 36.7934 237.31 35.814 240.144C34.8307 242.989 33.6584 245.425 32.3218 246.966C30.3654 249.221 28.6218 250.233 26.8237 250.626C24.9972 251.026 23.0611 250.802 20.6577 250.462C15.2544 249.699 11.2675 246.921 8.57275 241.868C5.9056 236.867 4.13961 228.021 3.15283 220.362C2.66112 216.546 2.36601 213.049 2.24756 210.511C2.18825 209.24 2.17377 208.219 2.19971 207.521C2.2095 207.257 2.22794 207.051 2.24658 206.899Z" fill="url(#paint15_linear_78_2355)" stroke="black"/>
<path d="M397.025 206.898C396.409 206.941 395.56 207.089 394.511 207.336C393.26 207.629 391.758 208.052 390.085 208.57C386.739 209.606 382.73 211.014 378.721 212.501C370.804 215.436 362.91 218.667 360.141 219.919C360.137 219.933 360.129 219.949 360.124 219.969C360.088 220.108 360.056 220.327 360.037 220.631C359.998 221.234 360.011 222.092 360.08 223.145C360.217 225.248 360.571 228.078 361.137 231.096C361.703 234.115 362.478 237.309 363.458 240.143C364.441 242.989 365.613 245.425 366.95 246.965C368.906 249.22 370.65 250.232 372.448 250.626C374.275 251.025 376.211 250.801 378.614 250.462C384.017 249.698 388.004 246.92 390.699 241.868C393.366 236.867 395.132 228.021 396.119 220.362C396.611 216.545 396.906 213.048 397.024 210.51C397.084 209.24 397.098 208.218 397.072 207.52C397.062 207.257 397.044 207.05 397.025 206.898Z" fill="url(#paint16_linear_78_2355)" stroke="black"/>
<path d="M313.668 177.577C314.812 177.577 315.93 178.341 316.788 179.751C317.641 181.152 318.185 183.12 318.185 185.32C318.185 187.52 317.641 189.487 316.788 190.888C315.93 192.298 314.812 193.062 313.668 193.062C312.524 193.062 311.405 192.298 310.547 190.888C309.694 189.487 309.151 187.52 309.151 185.32C309.151 183.12 309.694 181.152 310.547 179.751C311.405 178.341 312.524 177.577 313.668 177.577Z" fill="url(#paint17_linear_78_2355)" stroke="black"/>
<path d="M298.443 177.577C299.587 177.577 300.705 178.341 301.563 179.751C302.416 181.152 302.96 183.12 302.96 185.32C302.96 187.52 302.416 189.487 301.563 190.888C300.705 192.298 299.587 193.062 298.443 193.062C297.299 193.062 296.18 192.298 295.322 190.888C294.469 189.487 293.926 187.52 293.926 185.32C293.926 183.12 294.469 181.152 295.322 179.751C296.18 178.341 297.299 177.577 298.443 177.577Z" fill="url(#paint18_linear_78_2355)" stroke="black"/>
<path d="M270.416 177.577C271.56 177.577 272.677 178.341 273.536 179.751C274.389 181.152 274.932 183.12 274.932 185.32C274.932 187.52 274.388 189.487 273.536 190.888C272.677 192.298 271.56 193.062 270.416 193.062C269.271 193.062 268.153 192.298 267.294 190.888C266.442 189.487 265.898 187.52 265.898 185.32C265.898 183.12 266.442 181.152 267.294 179.751C268.153 178.341 269.271 177.577 270.416 177.577Z" fill="url(#paint19_linear_78_2355)" stroke="black"/>
<path d="M270.588 181.24C271.234 181.24 271.875 181.625 272.376 182.362C272.876 183.098 273.203 184.142 273.203 185.319C273.203 186.497 272.877 187.541 272.376 188.276C271.875 189.014 271.234 189.398 270.588 189.398C269.943 189.398 269.301 189.014 268.799 188.276C268.299 187.541 267.974 186.497 267.974 185.319C267.974 184.142 268.299 183.098 268.799 182.362C269.301 181.624 269.943 181.24 270.588 181.24Z" fill="url(#paint20_linear_78_2355)" stroke="black"/>
<path d="M93.5989 178.187C94.7431 178.188 95.8609 178.952 96.719 180.361C97.5719 181.762 98.1155 183.731 98.1155 185.931C98.1154 188.13 97.5718 190.098 96.719 191.499C95.8609 192.909 94.7432 193.673 93.5989 193.673C92.4545 193.673 91.3361 192.909 90.4778 191.499C89.625 190.098 89.0814 188.13 89.0813 185.931C89.0813 183.731 89.625 181.762 90.4778 180.361C91.3361 178.951 92.4546 178.187 93.5989 178.187Z" fill="url(#paint21_linear_78_2355)" stroke="black"/>
<line y1="-0.5" x2="283.738" y2="-0.5" transform="matrix(0.999998 0.0021519 -0.000691113 1 57.7855 197.836)" stroke="black"/>
<line x1="311.765" y1="184.625" x2="315.917" y2="184.625" stroke="#D9D9D9" stroke-width="2"/>
<path d="M296.54 185.32H301.211" stroke="#D9D9D9" stroke-width="2"/>
<line x1="299.616" y1="181.961" x2="299.616" y2="189.288" stroke="#D9D9D9" stroke-width="2"/>
<path d="M92.3876 188.372C92.3876 188.372 90.8305 188.372 91.5225 183.793C92.0673 180.188 95.1557 180.74 95.6748 183.793C96.1938 186.846 95.5018 187.762 94.8097 188.372" stroke="#D9D9D9" stroke-width="2"/>
<path d="M106.921 181.24C107.442 181.24 107.998 181.592 108.45 182.34C108.896 183.078 109.188 184.131 109.188 185.319C109.188 186.508 108.896 187.561 108.45 188.299C107.998 189.046 107.442 189.398 106.921 189.398C106.399 189.398 105.843 189.047 105.391 188.299C104.944 187.561 104.652 186.508 104.652 185.319C104.652 184.131 104.944 183.078 105.391 182.34C105.843 181.592 106.399 181.24 106.921 181.24Z" fill="#50E13A" stroke="black"/>
<line x1="94.4256" y1="185.625" x2="94.4256" y2="189.899" stroke="#D9D9D9" stroke-width="2"/>
<rect x="121.356" y="179" width="13.5593" height="11" rx="3" fill="url(#paint22_linear_78_2355)"/>
<g filter="url(#filter0_d_78_2355)">
<path d="M314.189 20.1821C318.702 25.5109 320.958 32.5801 320.648 39.6556C320.338 46.7328 317.454 53.2683 312.666 57.7924C307.877 62.3166 301.617 64.4205 295.296 63.61C288.976 62.7976 283.08 59.1686 279.094 53.3423C279.191 53.4664 279.298 53.6 279.316 53.6204C279.339 53.6459 279.359 53.6681 279.377 53.687C279.412 53.725 279.438 53.7503 279.447 53.756C279.473 53.7751 279.483 53.7741 279.483 53.7623C279.486 53.7408 279.457 53.6827 279.424 53.6226C279.35 53.4928 279.245 53.3338 279.134 53.1765C278.908 52.8561 278.643 52.5252 278.41 52.2465C277.933 51.6767 277.542 51.2918 277.456 51.1105C277.33 50.8794 277.762 50.9503 278.511 50.8262C279.252 50.7248 280.104 50.3071 280.25 50.0438C280.593 49.4121 278.58 50.5281 276.674 53.3528C275.615 54.7208 275.038 56.0587 274.838 56.4155C274.728 56.5963 274.686 56.5006 274.563 56.149C274.446 55.807 274.213 55.2212 273.917 54.781C273.628 54.3333 273.32 54.0856 273.269 54.1445C273.212 54.1946 273.419 54.5141 273.918 54.9316C274.906 55.7838 276.991 56.9085 279.569 57.7594C290.75 61.5721 304.391 66.5065 315.297 84.2547C326.89 103.73 319.754 126.377 312.747 136.227C288.713 167.667 249.373 159.268 228.977 128.526C228.82 128.276 228.664 128.025 228.508 127.773C224.748 121.709 219.873 116.478 214.654 113.53C212.079 112.082 209.344 111.175 207.21 111.471C205.174 111.731 203.35 113.424 205.494 116.665C206.822 118.63 210.448 121.155 215.783 121.571C218.425 121.781 221.321 121.455 224.115 120.574C225.558 120.098 226.899 119.563 228.351 118.734C229.034 118.362 229.792 117.866 230.576 117.257C231.007 116.903 231.328 116.679 231.862 116.134C231.982 116.015 232.101 115.896 232.219 115.777C232.338 115.655 232.441 115.556 232.631 115.323C232.801 115.12 232.967 114.916 233.13 114.711C233.171 114.659 233.213 114.608 233.253 114.557C233.273 114.53 233.293 114.505 233.314 114.479C233.348 114.431 233.414 114.331 233.463 114.257C233.672 113.941 233.878 113.621 234.079 113.297C235.625 128.333 227.558 135.4 216.718 136.843C205.828 138.247 192.16 133.223 179.618 123.564C167.076 113.906 157.767 101.238 154.636 89.0369C151.556 76.8744 154.014 65.4889 166.533 61.2838C185.554 38.437 207.829 44.3984 218.936 51.0434C236.119 62.7103 239.201 73.7058 244.431 82.5029C249.019 91.4152 252.939 99.2982 257.396 106.651C257.443 106.729 257.489 106.806 257.538 106.882C260.329 111.369 265.041 114.373 270.719 114.945C276.315 115.712 281.806 112.553 282.228 110.863C283.703 108.395 284.318 106.147 284.282 105.415C284.281 105.037 284.187 105.084 284.183 105.311C284.169 105.536 284.253 105.85 284.201 105.854C284.336 105.75 279.216 101.933 272.754 100.7C262.547 97.8513 247.836 92.9749 237.975 73.9274C228.649 54.189 234.259 35.4641 240.536 24.3474C244.519 17.3952 249.718 9.64782 259.688 4.09341C269.555 -1.74935 284.282 -0.94987 293.832 4.043C302.206 8.29107 307.29 12.1622 314.189 20.1821Z" fill="#FF6600"/>
</g>
<g filter="url(#filter1_d_78_2355)">
<path d="M310.495 21.418C314.014 25.6662 315.79 31.2517 315.55 36.8339C315.308 42.4172 313.05 47.5597 309.292 51.1103C305.534 54.6609 300.61 56.3049 295.624 55.661C290.639 55.016 285.979 52.1554 282.788 47.597C282.97 47.8296 282.96 47.8081 282.984 47.8346C283.003 47.8526 283.007 47.8537 283.008 47.8496C283.012 47.844 282.991 47.8094 282.974 47.7795C282.937 47.7168 282.867 47.6171 282.801 47.5241C282.654 47.3226 282.483 47.1044 282.307 46.89C281.949 46.4549 281.55 46.0164 281.173 45.6349C280.409 44.8577 279.686 44.2681 279.179 43.9014C278.551 43.4485 278.321 43.3303 278.346 43.2092C278.362 43.1032 278.47 42.905 278.085 42.9521C277.342 42.9716 274.994 44.7857 272.87 48.0449C271.576 49.8894 270.775 51.8109 270.482 53.0253C270.328 53.6334 270.283 54.0385 270.246 54.2383C270.214 54.4454 270.163 54.4542 270.134 54.5417C269.534 54.6672 272.948 58.3529 278.852 60.0247C289.536 63.566 302.28 68.3828 312.024 84.2733C322.357 101.569 316.14 121.886 309.534 131.302C287.902 160.003 250.679 152.521 231.984 123.992C231.837 123.762 231.693 123.529 231.548 123.295C227.716 117.095 222.941 111.585 217.788 108.01C215.239 106.245 212.523 104.923 210.239 104.634C208.037 104.321 205.933 105.187 206.908 107.503C207.503 108.9 209.879 110.842 213.646 111.288C215.506 111.513 217.581 111.356 219.595 110.797C220.636 110.492 221.609 110.143 222.67 109.577C223.17 109.324 223.726 108.981 224.308 108.547C224.627 108.292 224.867 108.134 225.267 107.733C225.358 107.646 225.447 107.558 225.536 107.469C225.627 107.378 225.705 107.306 225.849 107.129C225.978 106.977 226.104 106.823 226.231 106.666C226.262 106.626 226.294 106.587 226.325 106.548C226.341 106.527 226.357 106.508 226.372 106.488C226.399 106.451 226.449 106.374 226.488 106.317C226.649 106.073 226.81 105.823 226.969 105.568C227.02 116.538 220.527 122.02 212.073 123.24C203.588 124.435 193.279 120.839 183.973 113.673C174.667 106.507 167.8 96.8768 165.441 87.331C163.113 77.8092 164.929 68.7241 173.643 64.5043C189.2 45.6246 207.856 50.117 217.522 55.6963C232.529 65.4283 236.126 75.3361 241.296 83.5146C245.95 91.7986 249.972 99.4023 254.356 106.62C254.413 106.716 254.471 106.811 254.531 106.906C258.036 112.551 263.94 116.24 270.607 116.928C277.185 117.778 283.857 114.578 285.441 111.278C287.136 108.476 288.045 105.741 288.156 104.105C288.231 102.401 288.036 102.25 287.475 101.326C286.447 99.3653 280.43 95.4299 273.471 93.9258C263.771 91.2152 250.389 86.4789 241.759 69.6573C233.551 52.2856 238.476 35.4167 244.34 25.1459C248.104 18.6282 252.968 11.5789 261.852 6.67562C270.646 1.5307 283.514 2.24373 292.108 6.74286C299.594 10.547 304.399 14.2868 310.495 21.418Z" fill="#FF8839"/>
</g>
<path d="M192.559 74.2839C214.137 56.07 247.401 113.116 258.639 120.929C278.418 134.679 293.07 122.89 295.5 114.005C299.995 97.568 286.06 85.5736 272.574 80.2427C254.174 72.9688 242.964 59.3801 245.603 42.7429C246.7 35.8293 253.08 19.6952 265.832 14.9399C272.745 12.3619 285.44 11.4423 295.051 18.0494C315.729 32.265 308.272 49.5733 299.736 42.7429C288.308 33.5977 287.901 27.7832 277.71 28.7111C265.706 29.8042 256.392 42.7429 258.639 52.7C260.887 62.657 268.079 65.1386 286.51 72.6907C304.94 80.2427 309.435 97.1237 309.435 108.674C309.435 117.559 302.693 133.551 289.207 138.438C287.023 139.229 267.63 145.546 249.199 128.665C239.303 119.6 242.759 116.328 235.904 114.005C232.852 112.97 250.666 196.443 231.049 212.26C206.121 232.36 122.491 184.5 128 184.5" stroke="#FFB774" stroke-width="7" stroke-linecap="square"/>
<path d="M103.412 27.1518C107.202 11.0402 157.21 36.9823 163.003 41.3489C168.796 45.7156 163.971 51.193 159.203 66.6116L131.933 56.0485L119.78 51.286L107.049 46.0485C107.049 46.0485 99.6218 43.2634 103.412 27.1518Z" fill="url(#paint23_linear_78_2355)"/>
<g filter="url(#filter2_d_78_2355)">
<path d="M147.761 50.4257C145.644 45.4078 100.333 37.0438 104.008 25.1547C107.183 15.503 135.663 14.8362 148.969 18.0092C162.274 21.1823 200.797 34.0022 208.131 50.4258C215.464 66.8494 221.63 98.4242 210.635 135.611C199.64 172.798 117.448 153.418 101.762 146.978C86.0764 140.538 66.5261 117.793 86.6801 112.877C106.834 107.96 153.177 108.385 152.752 103.575C162.026 77.7611 149.877 55.4437 147.761 50.4257Z" fill="url(#paint24_linear_78_2355)"/>
</g>
<g filter="url(#filter3_d_78_2355)">
<path d="M185.419 109.314C188.585 109.704 190.803 112.344 190.372 115.21C189.941 118.076 187.024 120.083 183.857 119.693C180.69 119.303 178.472 116.663 178.903 113.797C179.334 110.931 182.252 108.923 185.419 109.314ZM175.043 100.635C178.209 101.026 180.427 103.665 179.996 106.532C179.565 109.398 176.648 111.405 173.481 111.015C170.315 110.624 168.097 107.984 168.528 105.118C168.959 102.252 171.876 100.245 175.043 100.635ZM197.978 103.462C201.145 103.852 203.363 106.492 202.932 109.358C202.5 112.224 199.584 114.231 196.417 113.841C193.251 113.451 191.033 110.811 191.464 107.945C191.895 105.079 194.812 103.072 197.978 103.462ZM187.603 94.7826C190.77 95.1728 192.988 97.8127 192.557 100.679C192.126 103.545 189.209 105.552 186.042 105.162C182.875 104.772 180.658 102.132 181.089 99.2657C181.52 96.3996 184.437 94.3925 187.603 94.7826Z" fill="#4A4343"/>
</g>
<g filter="url(#filter4_d_78_2355)">
<path d="M194.048 60.53C193.688 62.9257 195.662 65.147 198.458 65.4916C201.254 65.8361 203.228 68.0574 202.868 70.4531C202.507 72.8488 199.949 74.5116 197.153 74.1671L196.309 74.0631C193.979 73.776 191.847 75.1617 191.547 77.1581C191.246 79.1545 189.114 80.5402 186.784 80.2531L185.097 80.0452C182.767 79.7581 181.122 77.9069 181.422 75.9105C181.723 73.9141 180.077 72.063 177.747 71.7759C175.418 71.4888 173.772 69.6376 174.073 67.6412L174.29 66.1953C174.59 64.1989 176.723 62.8132 179.053 63.1003C181.382 63.3874 183.515 62.0018 183.815 60.0054L183.924 59.2824C184.284 56.8867 186.843 55.2239 189.638 55.5684C192.434 55.9129 194.409 58.1343 194.048 60.53Z" fill="#4A4343"/>
</g>
<defs>
<filter id="filter0_d_78_2355" x="153.435" y="0" width="179" height="166.081" filterUnits="userSpaceOnUse" color-interpolation-filters="sRGB">
<feFlood flood-opacity="0" result="BackgroundImageFix"/>
<feColorMatrix in="SourceAlpha" type="matrix" values="0 0 0 0 0 0 0 0 0 0 0 0 0 0 0 0 0 0 127 0" result="hardAlpha"/>
<feOffset dx="7" dy="6"/>
<feGaussianBlur stdDeviation="2"/>
<feComposite in2="hardAlpha" operator="out"/>
<feColorMatrix type="matrix" values="0 0 0 0 0 0 0 0 0 0 0 0 0 0 0 0 0 0 0.25 0"/>
<feBlend mode="normal" in2="BackgroundImageFix" result="effect1_dropShadow_78_2355"/>
<feBlend mode="normal" in="SourceGraphic" in2="effect1_dropShadow_78_2355" result="shape"/>
</filter>
<filter id="filter1_d_78_2355" x="164.514" y="3.08682" width="164.008" height="156.376" filterUnits="userSpaceOnUse" color-interpolation-filters="sRGB">
<feFlood flood-opacity="0" result="BackgroundImageFix"/>
<feColorMatrix in="SourceAlpha" type="matrix" values="0 0 0 0 0 0 0 0 0 0 0 0 0 0 0 0 0 0 127 0" result="hardAlpha"/>
<feOffset dx="7" dy="6"/>
<feGaussianBlur stdDeviation="2"/>
<feComposite in2="hardAlpha" operator="out"/>
<feColorMatrix type="matrix" values="0 0 0 0 0 0 0 0 0 0 0 0 0 0 0 0 0 0 0.25 0"/>
<feBlend mode="normal" in2="BackgroundImageFix" result="effect1_dropShadow_78_2355"/>
<feBlend mode="normal" in="SourceGraphic" in2="effect1_dropShadow_78_2355" result="shape"/>
</filter>
<filter id="filter2_d_78_2355" x="78.0835" y="16.3065" width="149.534" height="151.48" filterUnits="userSpaceOnUse" color-interpolation-filters="sRGB">
<feFlood flood-opacity="0" result="BackgroundImageFix"/>
<feColorMatrix in="SourceAlpha" type="matrix" values="0 0 0 0 0 0 0 0 0 0 0 0 0 0 0 0 0 0 127 0" result="hardAlpha"/>
<feOffset dx="7" dy="6"/>
<feGaussianBlur stdDeviation="2"/>
<feComposite in2="hardAlpha" operator="out"/>
<feColorMatrix type="matrix" values="0 0 0 0 0 0 0 0 0 0 0 0 0 0 0 0 0 0 0.25 0"/>
<feBlend mode="normal" in2="BackgroundImageFix" result="effect1_dropShadow_78_2355"/>
<feBlend mode="normal" in="SourceGraphic" in2="effect1_dropShadow_78_2355" result="shape"/>
</filter>
<filter id="filter3_d_78_2355" x="166.474" y="86.7341" width="42.5109" height="33.0072" filterUnits="userSpaceOnUse" color-interpolation-filters="sRGB">
<feFlood flood-opacity="0" result="BackgroundImageFix"/>
<feColorMatrix in="SourceAlpha" type="matrix" values="0 0 0 0 0 0 0 0 0 0 0 0 0 0 0 0 0 0 127 0" result="hardAlpha"/>
<feOffset dx="2" dy="-4"/>
<feGaussianBlur stdDeviation="2"/>
<feComposite in2="hardAlpha" operator="out"/>
<feColorMatrix type="matrix" values="0 0 0 0 0 0 0 0 0 0 0 0 0 0 0 0 0 0 0.25 0"/>
<feBlend mode="normal" in2="BackgroundImageFix" result="effect1_dropShadow_78_2355"/>
<feBlend mode="normal" in="SourceGraphic" in2="effect1_dropShadow_78_2355" result="shape"/>
</filter>
<filter id="filter4_d_78_2355" x="172.037" y="47.5232" width="36.8728" height="32.7675" filterUnits="userSpaceOnUse" color-interpolation-filters="sRGB">
<feFlood flood-opacity="0" result="BackgroundImageFix"/>
<feColorMatrix in="SourceAlpha" type="matrix" values="0 0 0 0 0 0 0 0 0 0 0 0 0 0 0 0 0 0 127 0" result="hardAlpha"/>
<feOffset dx="2" dy="-4"/>
<feGaussianBlur stdDeviation="2"/>
<feComposite in2="hardAlpha" operator="out"/>
<feColorMatrix type="matrix" values="0 0 0 0 0 0 0 0 0 0 0 0 0 0 0 0 0 0 0.25 0"/>
<feBlend mode="normal" in2="BackgroundImageFix" result="effect1_dropShadow_78_2355"/>
<feBlend mode="normal" in="SourceGraphic" in2="effect1_dropShadow_78_2355" result="shape"/>
</filter>
<linearGradient id="paint0_linear_78_2355" x1="0" y1="196" x2="400" y2="196" gradientUnits="userSpaceOnUse">
<stop stop-color="#524E4E"/>
<stop offset="1" stop-color="#B8AFAF"/>
</linearGradient>
<linearGradient id="paint1_linear_78_2355" x1="134.948" y1="186.45" x2="142.886" y2="186.45" gradientUnits="userSpaceOnUse">
<stop stop-color="#524E4E"/>
<stop offset="1" stop-color="#B8AFAF"/>
</linearGradient>
<linearGradient id="paint2_linear_78_2355" x1="229.066" y1="184.709" x2="233.564" y2="184.709" gradientUnits="userSpaceOnUse">
<stop stop-color="#524E4E"/>
<stop offset="1" stop-color="#B8AFAF"/>
</linearGradient>
<linearGradient id="paint3_linear_78_2355" x1="222.491" y1="184.709" x2="226.99" y2="184.709" gradientUnits="userSpaceOnUse">
<stop stop-color="#524E4E"/>
<stop offset="1" stop-color="#B8AFAF"/>
</linearGradient>
<linearGradient id="paint4_linear_78_2355" x1="215.917" y1="184.709" x2="220.415" y2="184.709" gradientUnits="userSpaceOnUse">
<stop stop-color="#524E4E"/>
<stop offset="1" stop-color="#B8AFAF"/>
</linearGradient>
<linearGradient id="paint5_linear_78_2355" x1="209.343" y1="184.709" x2="213.841" y2="184.709" gradientUnits="userSpaceOnUse">
<stop stop-color="#524E4E"/>
<stop offset="1" stop-color="#B8AFAF"/>
</linearGradient>
<linearGradient id="paint6_linear_78_2355" x1="202.768" y1="184.709" x2="207.266" y2="184.709" gradientUnits="userSpaceOnUse">
<stop stop-color="#524E4E"/>
<stop offset="1" stop-color="#B8AFAF"/>
</linearGradient>
<linearGradient id="paint7_linear_78_2355" x1="196.194" y1="184.709" x2="200.692" y2="184.709" gradientUnits="userSpaceOnUse">
<stop stop-color="#524E4E"/>
<stop offset="1" stop-color="#B8AFAF"/>
</linearGradient>
<linearGradient id="paint8_linear_78_2355" x1="189.619" y1="184.709" x2="194.118" y2="184.709" gradientUnits="userSpaceOnUse">
<stop stop-color="#524E4E"/>
<stop offset="1" stop-color="#B8AFAF"/>
</linearGradient>
<linearGradient id="paint9_linear_78_2355" x1="183.045" y1="184.709" x2="187.543" y2="184.709" gradientUnits="userSpaceOnUse">
<stop stop-color="#524E4E"/>
<stop offset="1" stop-color="#B8AFAF"/>
</linearGradient>
<linearGradient id="paint10_linear_78_2355" x1="176.471" y1="184.709" x2="180.969" y2="184.709" gradientUnits="userSpaceOnUse">
<stop stop-color="#524E4E"/>
<stop offset="1" stop-color="#B8AFAF"/>
</linearGradient>
<linearGradient id="paint11_linear_78_2355" x1="163.322" y1="184.709" x2="167.82" y2="184.709" gradientUnits="userSpaceOnUse">
<stop stop-color="#524E4E"/>
<stop offset="1" stop-color="#B8AFAF"/>
</linearGradient>
<linearGradient id="paint12_linear_78_2355" x1="169.896" y1="184.709" x2="174.394" y2="184.709" gradientUnits="userSpaceOnUse">
<stop stop-color="#524E4E"/>
<stop offset="1" stop-color="#B8AFAF"/>
</linearGradient>
<linearGradient id="paint13_linear_78_2355" x1="398.596" y1="199.502" x2="342.215" y2="199.502" gradientUnits="userSpaceOnUse">
<stop stop-color="#524E4E"/>
<stop offset="1" stop-color="#B8AFAF"/>
</linearGradient>
<linearGradient id="paint14_linear_78_2355" x1="0.758301" y1="199.731" x2="57.1394" y2="199.731" gradientUnits="userSpaceOnUse">
<stop stop-color="#524E4E"/>
<stop offset="1" stop-color="#B8AFAF"/>
</linearGradient>
<linearGradient id="paint15_linear_78_2355" x1="1.68701" y1="228.862" x2="39.7562" y2="228.862" gradientUnits="userSpaceOnUse">
<stop stop-color="#524E4E"/>
<stop offset="1" stop-color="#B8AFAF"/>
</linearGradient>
<linearGradient id="paint16_linear_78_2355" x1="397.585" y1="228.862" x2="359.516" y2="228.862" gradientUnits="userSpaceOnUse">
<stop stop-color="#524E4E"/>
<stop offset="1" stop-color="#B8AFAF"/>
</linearGradient>
<linearGradient id="paint17_linear_78_2355" x1="308.651" y1="185.32" x2="318.685" y2="185.32" gradientUnits="userSpaceOnUse">
<stop stop-color="#524E4E"/>
<stop offset="1" stop-color="#B8AFAF"/>
</linearGradient>
<linearGradient id="paint18_linear_78_2355" x1="293.426" y1="185.32" x2="303.46" y2="185.32" gradientUnits="userSpaceOnUse">
<stop stop-color="#524E4E"/>
<stop offset="1" stop-color="#B8AFAF"/>
</linearGradient>
<linearGradient id="paint19_linear_78_2355" x1="265.398" y1="185.32" x2="275.433" y2="185.32" gradientUnits="userSpaceOnUse">
<stop stop-color="#524E4E"/>
<stop offset="1" stop-color="#B8AFAF"/>
</linearGradient>
<linearGradient id="paint20_linear_78_2355" x1="267.474" y1="185.32" x2="273.702" y2="185.32" gradientUnits="userSpaceOnUse">
<stop stop-color="#524E4E"/>
<stop offset="1" stop-color="#B8AFAF"/>
</linearGradient>
<linearGradient id="paint21_linear_78_2355" x1="88.5813" y1="185.93" x2="98.6159" y2="185.93" gradientUnits="userSpaceOnUse">
<stop stop-color="#524E4E"/>
<stop offset="1" stop-color="#B8AFAF"/>
</linearGradient>
<linearGradient id="paint22_linear_78_2355" x1="121.356" y1="184.5" x2="134.915" y2="184.5" gradientUnits="userSpaceOnUse">
<stop stop-color="#524E4E"/>
<stop offset="1" stop-color="#B8AFAF"/>
</linearGradient>
<linearGradient id="paint23_linear_78_2355" x1="129.618" y1="30.3358" x2="116.488" y2="66.1012" gradientUnits="userSpaceOnUse">
<stop stop-color="#66BFFF"/>
<stop offset="1" stop-color="#115F97"/>
</linearGradient>
<linearGradient id="paint24_linear_78_2355" x1="117.084" y1="112.931" x2="136.138" y2="170.3" gradientUnits="userSpaceOnUse">
<stop stop-color="#66BFFF"/>
<stop offset="1" stop-color="#3D7399"/>
</linearGradient>
</defs>
</svg>
