<svg width="240" height="240" viewBox="0 0 240 240" fill="none" xmlns="http://www.w3.org/2000/svg">
<path d="M0 16C0 7.16344 5.337 0 11.9205 0H228.079C234.663 0 240 7.16344 240 16V131.2C240 140.037 234.655 147.2 228.072 147.2C158.813 147.2 99.0783 147.2 11.9412 147.2C5.35765 147.2 0 140.037 0 131.2V16Z" fill="#264653"/>
<path d="M1.36661e-05 200.91C1.36661e-05 194.885 4.20312 190.001 9.38792 190.001H79.0149C84.1997 190.001 88.4028 194.885 88.4028 200.91V229.091C88.4028 235.116 84.1997 240 79.0149 240H9.38792C4.20312 240 1.36661e-05 235.116 1.36661e-05 229.091V200.91Z" fill="#4A5568"/>
<path d="M67.28 215.001C67.28 209.729 70.9577 205.456 75.4944 205.456H117.536C126.381 205.456 128.978 219.47 120.917 223.7C119.854 224.257 118.702 224.546 117.536 224.546H75.4944C70.9577 224.546 67.28 220.272 67.28 215.001Z" fill="#4A5568"/>
<path d="M111.873 207.274C111.873 201.249 116.076 196.365 121.26 196.365H148.598C153.036 196.365 156.868 199.976 157.784 205.023L158.654 209.82C159.248 213.091 158.518 216.498 156.673 219.064L152.079 225.455L143.871 236.297C142.089 238.651 139.521 240 136.823 240H121.26C116.076 240 111.873 235.116 111.873 229.091V207.274Z" fill="#4A5568"/>
<path d="M0 132.267C0 132.267 2.68978 132.267 5.93028 132.267L238.609 132.709C241.311 132.709 239.348 167.385 238.761 196.05C238.614 203.235 233.347 209.057 226.866 209.057C157.929 209.057 98.4995 209.057 11.7549 209.057C5.27392 209.057 1.36661e-05 203.23 1.36661e-05 196.043L0 132.267Z" fill="#4A5568"/>
<path d="M52 142.5V99.5H82.5V142.5H52ZM20.5 186.5V143.5H51V186.5H20.5ZM52 186.5V143.5H82.5V186.5H52Z" fill="#66BFFF" stroke="black"/>
<rect x="51.5" y="59.5" width="31" height="43" fill="#FFA366" stroke="black"/>
<path d="M219 63.2105V19H187V63.2105H219Z" fill="#FFA366"/>
<path d="M187 63.2105V19H155V63.2105H187Z" fill="#FFA366"/>
<path d="M155 63.2105V19H123V63.2105H155Z" fill="#FFA366"/>
<path d="M155 107.421V63.2105H123V107.421H155Z" fill="#FFA366"/>
<path d="M123 142.789V187H155V142.789H123Z" fill="#FFA366"/>
<path d="M155 142.789V187H187V142.789H155Z" fill="#FFA366"/>
<path d="M187 142.789V187H219V142.789H187Z" fill="#FFA366"/>
<path d="M187 98.5789V142.789H219V98.5789H187Z" fill="#FFA366"/>
<path d="M155 76.4737H187V120.684H155V76.4737Z" fill="#66BFFF"/>
<path d="M218.5 143.289V186.5H187.5V143.289H218.5ZM186.5 143.289V186.5H155.5V143.289H186.5ZM154.5 143.289V186.5H123.5V143.289H154.5ZM218.5 99.0791V142.289H187.5V99.0791H218.5ZM186.5 76.9736V120.185H155.5V76.9736H186.5ZM154.5 63.7109V106.921H123.5V63.7109H154.5ZM218.5 19.5V62.7109H187.5V19.5H218.5ZM186.5 19.5V62.7109H155.5V19.5H186.5ZM154.5 19.5V62.7109H123.5V19.5H154.5Z" stroke="black"/>
<path d="M114.5 19.5V62.5H83.833V19.5H114.5ZM82.833 19.5V62.5H52.167V19.5H82.833ZM51.167 19.5V62.5H20.5V19.5H51.167Z" fill="#66BFFF" stroke="black"/>
</svg>
